SplineFontDB: 2.0
FontName: Umpush-Oblique
FullName: Umpush Oblique
FamilyName: Umpush
Weight: Book
Copyright: Copyright (c) 2003 NECTEC. All rights reserved.\nCopyright (c) 2007 Widhaya Trisarnwadhana. All rights reserved.\nModified under GNU General Public License by TLWG.
Version: 0.9.7: 2007-04-13
ItalicAngle: -10
UnderlinePosition: -170
UnderlineWidth: 20
Ascent: 1638
Descent: 410
NeedsXUIDChange: 1
FSType: 0
OS2Version: 0
OS2_WeightWidthSlopeOnly: 0
OS2_UseTypoMetrics: 0
CreationTime: 1153662374
ModificationTime: 1199854833
PfmFamily: 33
TTFWeight: 400
TTFWidth: 5
LineGap: 0
VLineGap: 0
Panose: 2 11 5 4 2 2 2 2 2 4
OS2TypoAscent: 0
OS2TypoAOffset: 1
OS2TypoDescent: 0
OS2TypoDOffset: 1
OS2TypoLinegap: 0
OS2WinAscent: 0
OS2WinAOffset: 1
OS2WinDescent: 0
OS2WinDOffset: 1
HheadAscent: 0
HheadAOffset: 1
HheadDescent: 0
HheadDOffset: 1
OS2SubXSize: 19968
OS2SubYSize: 28
OS2SubXOff: -32593
OS2SubYOff: 21140
OS2SupXSize: 21132
OS2SupYSize: -4232
OS2SupXOff: 21252
OS2SupYOff: 269
OS2StrikeYSize: -11832
OS2StrikeYPos: 90
OS2Vendor: 'PfEd'
Lookup: 6 0 0 "'ccmp' Glyph Composition/Decomposition in Thai lookup 0"  {"'ccmp' Glyph Composition/Decomposition in Thai lookup 0"  } ['ccmp' ('thai' <'KUY ' 'PAL ' 'THA ' 'dflt' > ) ]
Lookup: 6 0 0 "'ccmp' Glyph Composition/Decomposition in Thai lookup 1"  {"'ccmp' Glyph Composition/Decomposition in Thai lookup 1"  } ['ccmp' ('thai' <'KUY ' 'PAL ' 'THA ' 'dflt' > ) ]
Lookup: 5 0 0 "Required Feature in Thai lookup 2"  {"Required Feature in Thai lookup 2"  } [' RQD' ('thai' <'PAL ' > ) ]
Lookup: 1 0 0 "Single Substitution lookup 3"  {"Single Substitution lookup 3"  } []
Lookup: 2 0 0 "Multiple Substitution lookup 4"  {"Multiple Substitution lookup 4"  } []
Lookup: 1 0 0 "Single Substitution lookup 5"  {"Single Substitution lookup 5"  } []
Lookup: 2 0 0 "Multiple Substitution lookup 6"  {"Multiple Substitution lookup 6"  } []
Lookup: 1 0 0 "Single Substitution lookup 7"  {"Single Substitution lookup 7"  } []

StartChar: .notdef
Encoding: 65536 -1 0
Width: 1536
Flags: W
HStem: 0 32<293.643 1253.64> 1248 32<508.056 1468.06>
Fore
256 0 m 1
 481.698 1280 l 1
 1505.7 1280 l 1
 1280 0 l 1
 256 0 l 1
293.643 32 m 1
 1253.64 32 l 1
 1468.06 1248 l 1
 508.056 1248 l 1
 293.643 32 l 1
EndSplineSet
EndChar
StartChar: uni0E4D.high
Encoding: 63262 63262 2
Width: 0
VWidth: 2558
Flags: W
HStem: 1725 72<-9.49179 132.682> 1953 74<1.06999 145.924>
VStem: -84 70<1801.93 1937.59> 149 71<1815.32 1948.49>
AnchorPoint: "AboveMark" 45 1739 mark 0
Fore
-84 1848 m 0
 -84 1939 1 2027 96 2027 c 0
 167 2027 220 1976 220 1903 c 0
 220 1801 126 1725 43 1725 c 0
 -25 1725 -84 1773 -84 1848 c 0
82 1953 m 0
 20 1953 -14 1898 -14 1862 c 0
 -14 1822 20 1797 54 1797 c 0
 93 1797 149 1834 149 1890 c 0
 149 1932 113 1953 82 1953 c 0
EndSplineSet
EndChar
StartChar: exclam
Encoding: 33 33 5
Width: 569
Flags: W
HStem: 0 194<240 370> 1430 20G<450.452 634>
VStem: 306 93<374.918 428.523>
Fore
374 999 m 1
 454 1450 l 1
 634 1450 l 1
 554 999 l 1
 399 365 l 1
 306 365 l 1
 374 999 l 1
240 194 m 1
 404 194 l 1
 370 0 l 1
 206 0 l 1
 240 194 l 1
EndSplineSet
EndChar
StartChar: quotedbl
Encoding: 34 34 6
Width: 727
Flags: W
HStem: 947 503<362 408 695 739>
VStem: 321 554<1217 1450 1217 1450 1217 1217>
Fore
323 947 m 1
 321 1217 l 1
 362 1450 l 1
 542 1450 l 1
 501 1217 l 1
 408 947 l 1
 323 947 l 1
654 947 m 1
 654 1217 l 1
 695 1450 l 1
 875 1450 l 1
 834 1217 l 1
 739 947 l 1
 654 947 l 1
EndSplineSet
EndChar
StartChar: numbersign
Encoding: 35 35 7
Width: 1139
Flags: W
HStem: -10 21G<85 272.949 544 730.949> 385 180<121 242 484 700 942 1181> 895 180<211 436 678 895 1137 1271> 1450 20G<646.101 834 1105.1 1293>
Fore
85 -10 m 1
 242 385 l 1
 89 385 l 1
 121 565 l 1
 304 565 l 1
 436 895 l 1
 179 895 l 1
 211 1075 l 1
 498 1075 l 1
 654 1470 l 1
 834 1470 l 1
 678 1075 l 1
 957 1075 l 1
 1113 1470 l 1
 1293 1470 l 1
 1137 1075 l 1
 1303 1075 l 1
 1271 895 l 1
 1075 895 l 1
 942 565 l 1
 1213 565 l 1
 1181 385 l 1
 880 385 l 1
 723 -10 l 1
 544 -10 l 1
 700 385 l 1
 422 385 l 1
 265 -10 l 1
 85 -10 l 1
484 565 m 1
 762 565 l 1
 895 895 l 1
 616 895 l 1
 484 565 l 1
EndSplineSet
EndChar
StartChar: dollar
Encoding: 36 36 8
Width: 1139
Flags: W
HStem: -17 140<396.23 506.495> 651 159<489.825 634> 1271 138<602.398 715 882 940.858>
VStem: 141 188<215.204 384.464 384.464 417> 282 184<884.195 1138.21> 931 188<282.004 547.062> 1018 175<1050 1075.02 1075.02 1186.22>
Fore
773 790 m 1xea
 786 777 1119 747 1119 472 c 0
 1119 228 906 -2 631 -15 c 1
 613 -118 l 1
 470 -118 l 1
 488 -17 l 1
 283 10 141 112 141 321 c 0
 141 351 144 383 150 417 c 1
 329 417 l 1
 329 396 l 0xf4
 329 246 392 143 513 123 c 1
 606 651 l 1
 457 689 282 764 282 963 c 0
 282 1158 440 1389 739 1409 c 1
 753 1488 l 1
 896 1488 l 1
 882 1409 l 1
 1068 1391 1196 1279 1196 1100 c 0
 1196 1084 1195 1067 1193 1050 c 1
 1018 1050 l 1
 1018 1058 l 2
 1018 1149 954 1253 858 1269 c 1
 773 790 l 1xea
715 1271 m 1
 603 1257 466 1149 466 999 c 0xe8
 466 895 541 839 634 810 c 1
 715 1271 l 1
656 123 m 1
 843 162 931 308 931 437 c 0xe4
 931 546 856 591 745 629 c 1
 656 123 l 1
EndSplineSet
EndChar
StartChar: percent
Encoding: 37 37 9
Width: 1821
Flags: W
HStem: -50 123<1300.3 1493.98> 600 125<1378.23 1579.23> 717 123<488.385 680.706> 1366 125<566.938 767.785>
VStem: 305 155<866.354 1223.68> 796 154<985.857 1339.92> 1116 156<98.3516 457.676> 1608 153<221.083 573.753>
Fore
1116 234 m 0xdf
 1116 485 1265 725 1500 725 c 0
 1678 725 1761 611 1761 444 c 0
 1761 218 1628 -50 1366 -50 c 0
 1198 -50 1116 64 1116 234 c 0xdf
1391 73 m 0
 1565 73 1608 348 1608 450 c 0
 1608 541 1575 600 1484 600 c 0
 1314 600 1272 339 1272 233 c 0
 1272 135 1308 73 1391 73 c 0
305 1001 m 0
 305 1252 454 1491 689 1491 c 0
 867 1491 950 1378 950 1210 c 0
 950 987 818 717 554 717 c 0xbf
 386 717 305 830 305 1001 c 0
580 840 m 0
 757 840 796 1123 796 1214 c 0
 796 1307 763 1366 673 1366 c 0
 502 1366 460 1102 460 1002 c 0
 460 903 496 840 580 840 c 0
1480 1491 m 1
 1660 1491 l 1
 636 -10 l 1
 456 -10 l 1
 1480 1491 l 1
EndSplineSet
EndChar
StartChar: ampersand
Encoding: 38 38 10
Width: 1366
Flags: W
HStem: -25 158<440.538 744.185> 1343 148<744.272 969.965>
VStem: 153 199<223.883 513.692> 473 190<1034.03 1263.9> 1003 187<1075.21 1309.19>
Fore
1190 1229 m 0
 1190 984 898 847 845 821 c 1
 1049 485 l 1
 1089 542 1124 611 1154 690 c 1
 1335 649 l 1
 1280 522 1218 417 1149 334 c 1
 1201 247 1263 172 1338 109 c 1
 1192 -35 l 1
 1128 13 1065 82 1003 172 c 1
 863 41 716 -25 549 -25 c 0
 307 -25 153 127 153 332 c 0
 153 534 290 714 584 842 c 1
 532 928 473 1008 473 1113 c 0
 473 1309 670 1491 900 1491 c 0
 1075 1491 1190 1376 1190 1229 c 0
861 1343 m 0
 761 1343 663 1249 663 1162 c 0
 663 1084 734 993 771 938 c 1
 849 981 1003 1045 1003 1205 c 0
 1003 1285 950 1343 861 1343 c 0
658 725 m 1
 451 607 352 512 352 369 c 0
 352 253 424 133 578 133 c 0
 711 133 836 220 916 315 c 1
 658 725 l 1
EndSplineSet
EndChar
StartChar: quotesingle
Encoding: 39 39 11
Width: 391
Flags: W
HStem: 947 519<348 414 303 553 348 348>
Fore
303 947 m 1
 305 1221 l 1
 348 1466 l 1
 553 1466 l 1
 510 1221 l 1
 414 947 l 1
 303 947 l 1
EndSplineSet
EndChar
StartChar: parenleft
Encoding: 40 40 12
Width: 682
Flags: W
VStem: 197 181<-46.1973 635.667>
Fore
197 294 m 0
 197 849 513 1252 742 1491 c 1
 871 1491 l 1
 699 1265 378 884 378 259 c 0
 378 29 429 -201 532 -431 c 1
 403 -431 l 1
 283 -228 197 19 197 294 c 0
EndSplineSet
EndChar
StartChar: parenright
Encoding: 41 41 13
Width: 682
Flags: W
VStem: 545 178<459.283 1119.56>
Fore
545 849 m 0
 545 300 282 -134 45 -431 c 1
 174 -431 l 1
 473 -115 723 302 723 791 c 0
 723 1074 633 1295 513 1491 c 1
 384 1491 l 1
 482 1251 545 1083 545 849 c 0
EndSplineSet
EndChar
StartChar: asterisk
Encoding: 42 42 14
Width: 797
Flags: W
HStem: 867 624<584 681 584 584> 1197 142<795.228 897.99>
VStem: 275 661<1197 1197 1197 1197>
Fore
275 1197 m 1x60
 346 1339 l 1x60
 446 1302 517 1269 560 1242 c 1
 568 1363 577 1446 584 1491 c 1
 729 1491 l 1xa0
 715 1425 693 1342 662 1243 c 1
 737 1278 821 1310 915 1339 c 1
 936 1197 l 1x60
 846 1169 760 1150 677 1141 c 1
 712 1106 758 1043 816 952 c 1
 681 867 l 1
 651 920 619 991 582 1082 c 1
 516 988 460 916 414 867 c 1xa0
 311 952 l 1
 405 1047 472 1110 510 1141 c 1
 427 1158 348 1176 275 1197 c 1x60
EndSplineSet
EndChar
StartChar: plus
Encoding: 43 43 15
Width: 1196
Flags: W
HStem: 639 168<256 626 825 1195 227 1224 256 256>
Fore
555 237 m 1
 626 639 l 1
 227 639 l 1
 256 807 l 1
 655 807 l 1
 726 1206 l 1
 896 1206 l 1
 825 807 l 1
 1224 807 l 1
 1195 639 l 1
 796 639 l 1
 725 237 l 1
 555 237 l 1
EndSplineSet
EndChar
StartChar: comma
Encoding: 44 44 16
Width: 569
Flags: W
HStem: -290 495<169 218 218 218>
VStem: 132 291<-213 205 -213 -213>
Fore
182 0 m 1
 218 205 l 1
 423 205 l 1
 387 0 l 2
 359 -157 289 -241 169 -290 c 1
 132 -213 l 1
 220 -176 259 -117 284 0 c 1
 182 0 l 1
EndSplineSet
EndChar
StartChar: hyphen
Encoding: 45 45 17
Width: 682
Flags: W
HStem: 440 181<174 696 143 727 174 174>
Fore
143 440 m 1
 174 621 l 1
 727 621 l 1
 696 440 l 1
 143 440 l 1
EndSplineSet
EndChar
StartChar: period
Encoding: 46 46 18
Width: 569
Flags: W
HStem: 0 205<222 391 186 427 222 222>
Fore
186 0 m 1
 222 205 l 1
 427 205 l 1
 391 0 l 1
 186 0 l 1
EndSplineSet
EndChar
StartChar: slash
Encoding: 47 47 19
Width: 595
Flags: W
HStem: -10 21G<-83 111.446> 1450 20G<753.541 947>
Fore
-83 -10 m 1
 765 1470 l 1
 947 1470 l 1
 100 -10 l 1
 -83 -10 l 1
EndSplineSet
EndChar
StartChar: zero
Encoding: 48 48 20
Width: 1139
Flags: W
HStem: -10 150<462.885 725.562> 1309 150<645.787 919.44>
VStem: 186 185<239.472 821.965> 1010 185<636.991 1208.46>
Fore
820 1459 m 0
 1070 1459 1195 1308 1195 1005 c 0
 1195 748 1101 -10 561 -10 c 0
 289 -10 186 172 186 447 c 0
 186 778 310 1459 820 1459 c 0
371 465 m 0
 371 269 431 140 588 140 c 0
 926 140 1010 764 1010 989 c 0
 1010 1202 938 1309 792 1309 c 0
 435 1309 371 655 371 465 c 0
EndSplineSet
EndChar
StartChar: one
Encoding: 49 49 21
Width: 1139
Flags: MW
HStem: 0 21G<583 766.533> 1452 20G<802.5 1023>
Fore
763 0 m 1
 583 0 l 1
 783 1135 l 1
 702 1033 533 937 383 907 c 1
 418 1104 l 1
 584 1175 762 1308 843 1472 c 1
 1023 1472 l 1
 763 0 l 1
EndSplineSet
EndChar
StartChar: two
Encoding: 50 50 22
Width: 1139
Flags: W
HStem: 0 173<343 1031> 1333 149<635.391 955.656>
VStem: 279 185<1069.3 1239.32> 1038 188<959.772 1251.59>
Fore
1062 173 m 1
 1031 0 l 1
 62 0 l 1
 92 174 289 365 533 542 c 0
 734 689 1038 874 1038 1125 c 0
 1038 1249 941 1333 803 1333 c 0
 630 1333 498 1220 464 1039 c 1
 279 1039 l 1
 323 1304 556 1482 833 1482 c 0
 1065 1482 1226 1357 1226 1151 c 0
 1226 814 872 601 676 455 c 0
 557 366 436 298 343 173 c 1
 1062 173 l 1
EndSplineSet
EndChar
StartChar: three
Encoding: 51 51 23
Width: 1139
Flags: W
HStem: -10 166<426.551 752.317> 713 137<619.822 816.987> 1070 21G<293 498> 1317 165<618.712 928.81>
VStem: 155 182<244.532 395.227 388.977 401.477 401.477 427> 293 180<1105.89 1251.86> 939 194<338.482 636.428> 988 186<1006.81 1259.37>
Fore
1133 531 m 0xf2
 1133 246 878 -10 550 -10 c 0
 316 -10 155 135 155 351 c 0
 155 376 157 401 161 427 c 1
 341 427 l 1
 338 409 337 393 337 376 c 0
 337 241 437 156 581 156 c 0
 779 156 939 313 939 504 c 0xfa
 939 636 849 713 702 713 c 0
 659 713 613 707 563 694 c 1
 591 852 l 1
 605 851 619 850 633 850 c 0
 831 850 988 988 988 1146 c 0
 988 1254 907 1317 781 1317 c 0
 628 1317 523 1228 473 1070 c 1
 293 1070 l 1
 340 1301 561 1482 806 1482 c 0
 1014 1482 1174 1357 1174 1166 c 0xf5
 1174 978 1029 843 912 794 c 1
 1055 756 1133 672 1133 531 c 0xf2
EndSplineSet
EndChar
StartChar: four
Encoding: 52 52 24
Width: 1139
Flags: W
HStem: 0 21G<662 845.516> 347 175<343 723 934 1101> 1452 20G<905.074 1102>
Fore
662 0 m 1
 723 347 l 1
 87 347 l 1
 118 522 l 1
 922 1472 l 1
 1102 1472 l 1
 934 522 l 1
 1132 522 l 1
 1101 347 l 1
 903 347 l 1
 842 0 l 1
 662 0 l 1
754 522 m 1
 859 1117 l 1
 343 522 l 1
 754 522 l 1
EndSplineSet
EndChar
StartChar: five
Encoding: 53 53 25
Width: 1139
Flags: W
HStem: -10 164<430.766 747.738> 817 170<543.019 863.601> 1292 180<651 1216>
VStem: 156 191<237.148 390.477 390.477 415> 961 195<389.466 725.926>
Fore
1156 614 m 0
 1156 317 917 -10 554 -10 c 0
 296 -10 156 137 156 366 c 0
 156 382 157 398 158 415 c 1
 347 415 l 1
 347 249 415 154 583 154 c 0
 821 154 961 372 961 576 c 0
 961 728 868 817 697 817 c 0
 598 817 508 773 427 686 c 1
 242 708 l 1
 519 1472 l 1
 1248 1472 l 1
 1216 1292 l 1
 651 1292 l 1
 506 920 l 1
 567 964 658 987 765 987 c 0
 1007 987 1156 841 1156 614 c 0
EndSplineSet
EndChar
StartChar: six
Encoding: 54 54 26
Width: 1139
Flags: W
HStem: -10 165<471.146 762.291> 807 170<560.421 865.901> 1305 177<662.076 970.007>
VStem: 176 209<248.987 604.498> 953 188<371.068 716.913>
Fore
1141 588 m 0
 1141 307 918 -10 584 -10 c 0
 288 -10 176 175 176 451 c 0
 176 714 286 1482 864 1482 c 0
 1064 1482 1219 1358 1219 1171 c 0
 1219 1149 1217 1126 1213 1103 c 1
 1034 1103 l 1
 1026 1235 966 1303 822 1305 c 0
 613 1305 479 1151 419 842 c 1
 511 934 615 977 766 977 c 0
 993 977 1141 814 1141 588 c 0
718 807 m 0
 505 807 385 600 385 409 c 0
 385 265 459 155 610 155 c 0
 832 155 953 372 953 561 c 0
 953 706 874 807 718 807 c 0
EndSplineSet
EndChar
StartChar: seven
Encoding: 55 55 27
Width: 1139
Flags: MW
HStem: 0 21G<293 553> 1292 180<357 1023>
VStem: 293 218<37.9625 360.393>
Fore
325 1292 m 1
 357 1472 l 1
 1306 1472 l 1
 1274 1292 l 1
 962 983 595 475 511 0 c 1
 293 0 l 1
 373 445 724 991 1023 1292 c 1
 325 1292 l 1
EndSplineSet
EndChar
StartChar: eight
Encoding: 56 56 28
Width: 1139
Flags: W
HStem: -10 157<441.406 767.264> 699 181<580.938 861.461> 1326 156<639.54 939.448>
VStem: 152 188<243.282 547.326> 331 187<940.984 1208.26> 947 187<324.156 622.42> 1002 187<1001.07 1265.24>
Fore
152 352 m 0xf4
 152 527 243 743 504 805 c 1
 388 850 331 928 331 1038 c 0
 331 1255 516 1482 824 1482 c 0
 1040 1482 1189 1362 1189 1170 c 0xea
 1189 1045 1130 881 915 805 c 1
 1054 752 1134 664 1134 518 c 0
 1134 283 962 -10 564 -10 c 0
 320 -10 152 128 152 352 c 0xf4
799 1326 m 0
 637 1326 518 1216 518 1062 c 0
 518 951 596 880 722 880 c 0
 894 880 1002 1009 1002 1146 c 0
 1002 1256 925 1326 799 1326 c 0
685 699 m 0
 441 699 340 529 340 383 c 0
 340 243 443 147 594 147 c 0
 824 147 947 325 947 491 c 0xf4
 947 631 842 699 685 699 c 0
EndSplineSet
EndChar
StartChar: nine
Encoding: 57 57 29
Width: 1139
Flags: W
HStem: -10 177<447.347 766.906> 495 170<552.853 860.309> 1317 165<647.042 946.856>
VStem: 277 188<755.4 1100.67> 1033 207<864.206 1227.76>
Fore
277 886 m 0
 277 1167 500 1482 833 1482 c 0
 1122 1482 1240 1297 1240 1012 c 0
 1240 938 1232 857 1217 771 c 0
 1140 332 950 -10 553 -10 c 0
 354 -10 198 115 198 303 c 0
 198 324 200 346 204 369 c 1
 383 369 l 1
 392 237 451 167 595 167 c 0
 809 167 939 321 998 630 c 1
 907 538 802 495 651 495 c 0
 432 495 277 657 277 886 c 0
699 665 m 0
 952 665 1033 919 1033 1068 c 0
 1033 1211 957 1317 807 1317 c 0
 579 1317 465 1095 465 911 c 0
 465 766 544 665 699 665 c 0
EndSplineSet
EndChar
StartChar: colon
Encoding: 58 58 30
Width: 569
Flags: MW
HStem: 0 205<221 390> 857 205<372 541>
Fore
336 857 m 1
 372 1062 l 1
 577 1062 l 1
 541 857 l 1
 336 857 l 1
185 0 m 1
 221 205 l 1
 426 205 l 1
 390 0 l 1
 185 0 l 1
EndSplineSet
EndChar
StartChar: semicolon
Encoding: 59 59 31
Width: 569
Flags: MW
HStem: 857 205<369 538>
Fore
333 857 m 1
 369 1062 l 1
 574 1062 l 1
 538 857 l 1
 333 857 l 1
182 0 m 1
 218 205 l 1
 423 205 l 1
 387 0 l 2
 362 -150 285 -245 169 -290 c 1
 132 -213 l 1
 218 -178 261 -110 284 0 c 1
 182 0 l 1
EndSplineSet
EndChar
StartChar: less
Encoding: 60 60 32
Width: 1196
Flags: MW
Fore
225 641 m 1
 255 809 l 1
 1298 1219 l 1
 1266 1040 l 1
 441 724 l 1
 1154 405 l 1
 1123 226 l 1
 225 641 l 1
EndSplineSet
EndChar
StartChar: equal
Encoding: 61 61 33
Width: 1196
Flags: MW
HStem: 417 168<217 1156> 862 168<296 1234>
Fore
1234 862 m 1
 266 862 l 1
 296 1030 l 1
 1264 1030 l 1
 1234 862 l 1
1156 417 m 1
 188 417 l 1
 217 585 l 1
 1185 585 l 1
 1156 417 l 1
EndSplineSet
EndChar
StartChar: greater
Encoding: 62 62 34
Width: 1196
Flags: MW
Fore
1196 641 m 1
 152 226 l 1
 183 405 l 1
 1009 724 l 1
 295 1040 l 1
 327 1219 l 1
 1226 809 l 1
 1196 641 l 1
EndSplineSet
EndChar
StartChar: question
Encoding: 63 63 35
Width: 1139
Flags: MW
HStem: 0 205<497 666> 1341 163<640.428 960.245>
VStem: 274 185<1087.55 1259.72> 1048 193<1049.26 1255.42>
Fore
274 1046 m 1
 333 1302 545 1504 830 1504 c 0
 1073 1496 1241 1360 1241 1167 c 0
 1241 1147 1239 1126 1235 1105 c 0
 1171 745 779 758 709 361 c 1
 536 361 l 1
 551 436 l 2
 646 818 1048 847 1048 1128 c 0
 1048 1232 978 1341 804 1341 c 0
 627 1340 516 1222 459 1046 c 1
 274 1046 l 1
461 0 m 1
 497 205 l 1
 702 205 l 1
 666 0 l 1
 461 0 l 1
EndSplineSet
EndChar
StartChar: at
Encoding: 64 64 36
Width: 2079
Flags: W
HStem: -431 157<747.816 1397.28> -33 196<1313.55 1543.29> -3 164<809.645 1064.44> 925 159<1037.53 1312.01> 1338 155<1039.93 1595.34>
VStem: 176 163<72.9338 583.784> 572 183<217.207 571.542> 1935 160<612.769 1029.79>
Fore
2095 857 m 0xdf
 2095 416 1694 -33 1348 -33 c 0xdf
 1208 -33 1181 33 1181 101 c 0
 1181 107 1182 114 1182 121 c 1
 1097 38 986 -3 853 -3 c 0xbf
 675 -3 572 141 572 343 c 0
 572 729 919 1084 1202 1084 c 0
 1344 1084 1436 1035 1478 938 c 1
 1537 1079 l 1
 1716 1079 l 1
 1455 400 1454 400 1392 229 c 1
 1392 225 1391 222 1391 219 c 0
 1391 172 1430 163 1451 163 c 0
 1626 163 1935 496 1935 830 c 0
 1935 1148 1677 1338 1329 1338 c 0
 729 1338 339 816 339 313 c 0
 339 -72 610 -274 1072 -274 c 0
 1507 -274 1736 -87 1827 19 c 1
 2008 19 l 1
 1829 -253 1468 -431 1047 -431 c 0
 520 -431 176 -191 176 275 c 0
 176 848 627 1493 1365 1493 c 0
 1798 1493 2095 1244 2095 857 c 0xdf
1187 925 m 0
 943 925 755 590 755 366 c 0
 755 236 816 161 919 161 c 0xbf
 1168 161 1365 503 1365 734 c 0
 1365 893 1263 925 1187 925 c 0
EndSplineSet
EndChar
StartChar: A
Encoding: 65 65 37
Width: 1366
Flags: W
HStem: 0 21G<-2 214.55 1143.99 1368> 471 182<550 1018> 1430 20G<803.731 1028.74>
Fore
815 1450 m 1
 1024 1450 l 1
 1368 0 l 1
 1149 0 l 1
 1031 471 l 1
 475 471 l 1
 203 0 l 1
 -2 0 l 1
 815 1450 l 1
1018 653 m 1
 877 1237 l 1
 550 653 l 1
 1018 653 l 1
EndSplineSet
EndChar
StartChar: B
Encoding: 66 66 38
Width: 1366
Flags: W
HStem: 0 173<375 980.803> 669 173<492 1057.62> 1277 173<569 1119.07>
VStem: 1136 202<311.882 596.966> 1186 196<970.636 1219.06>
Fore
1382 1149 m 0xe8
 1382 1044 1334 871 1117 772 c 1
 1281 721 1338 613 1338 495 c 0xf0
 1338 327 1238 0 709 0 c 2
 164 0 l 1
 420 1450 l 1
 965 1450 l 2
 1222 1450 1382 1341 1382 1149 c 0xe8
492 842 m 1
 831 842 l 2
 1029 842 1186 895 1186 1108 c 0xe8
 1186 1251 1056 1277 934 1277 c 2
 569 1277 l 1
 492 842 l 1
375 173 m 1
 740 173 l 2
 950 173 1136 235 1136 482 c 0xf0
 1136 619 1027 669 801 669 c 2
 462 669 l 1
 375 173 l 1
EndSplineSet
EndChar
StartChar: C
Encoding: 67 67 39
Width: 1479
Flags: W
HStem: -10 180<616.396 1038.2> 1297 180<805.486 1230.27>
VStem: 215 203<378.686 849.412> 1295 188<345.325 480> 1370 188<1050 1190.53>
Fore
1019 1297 m 0xe8
 621 1297 418 938 418 605 c 0
 418 399 503 170 818 170 c 0
 1054 170 1245 300 1295 480 c 1
 1483 480 l 1xf0
 1326 117 1052 -10 789 -10 c 0
 438 -10 215 187 215 555 c 0
 215 1050 551 1477 1054 1477 c 0
 1402 1477 1534 1266 1558 1050 c 1
 1370 1050 l 1
 1344 1252 1164 1297 1019 1297 c 0xe8
EndSplineSet
EndChar
StartChar: D
Encoding: 68 68 40
Width: 1479
Flags: W
HStem: 0 173<381 945.01> 1277 173<575 1133.52>
VStem: 1328 203<620.057 1097.81>
Fore
697 0 m 2
 168 0 l 1
 424 1450 l 1
 929 1450 l 2
 1387 1450 1531 1248 1531 954 c 0
 1531 688 1436 0 697 0 c 2
1328 892 m 0
 1328 1196 1126 1277 895 1277 c 2
 575 1277 l 1
 381 173 l 1
 706 173 l 2
 1253 173 1328 700 1328 892 c 0
EndSplineSet
EndChar
StartChar: E
Encoding: 69 69 41
Width: 1366
Flags: W
HStem: 0 179<373 1222> 646 180<487 1135> 1268 182<565 1446>
Fore
162 0 m 1
 418 1450 l 1
 1478 1450 l 1
 1446 1268 l 1
 565 1268 l 1
 487 826 l 1
 1167 826 l 1
 1135 646 l 1
 455 646 l 1
 373 179 l 1
 1254 179 l 1
 1222 0 l 1
 162 0 l 1
EndSplineSet
EndChar
StartChar: F
Encoding: 70 70 42
Width: 1251
Flags: W
HStem: 0 21G<168 350.526> 641 179<492 1122> 1271 179<571 1381>
Fore
168 0 m 1
 424 1450 l 1
 1413 1450 l 1
 1381 1271 l 1
 571 1271 l 1
 492 820 l 1
 1154 820 l 1
 1122 641 l 1
 460 641 l 1
 347 0 l 1
 168 0 l 1
EndSplineSet
EndChar
StartChar: G
Encoding: 71 71 43
Width: 1479
Flags: W
HStem: -10 180<616.16 1034.08> 504 180<1026 1301> 1297 180<803.618 1229.71>
VStem: 215 203<380.157 847.683> 1370 188<1050 1197.53>
Fore
1019 1297 m 0
 615 1297 418 933 418 603 c 0
 418 397 502 170 818 170 c 0
 1012 170 1264 287 1301 504 c 1
 994 504 l 1
 1026 684 l 1
 1525 684 l 1
 1462 192 1186 -10 789 -10 c 0
 476 -10 215 158 215 554 c 0
 215 1050 547 1477 1054 1477 c 0
 1402 1477 1534 1266 1558 1050 c 1
 1370 1050 l 1
 1354 1184 1260 1297 1019 1297 c 0
EndSplineSet
EndChar
StartChar: H
Encoding: 72 72 44
Width: 1479
Flags: W
HStem: 0 21G<164 347.533 1134 1317.53> 668 180<494 1252> 1430 20G<416.469 600 1386.48 1570>
Fore
164 0 m 1
 420 1450 l 1
 600 1450 l 1
 494 848 l 1
 1284 848 l 1
 1390 1450 l 1
 1570 1450 l 1
 1314 0 l 1
 1134 0 l 1
 1252 668 l 1
 462 668 l 1
 344 0 l 1
 164 0 l 1
EndSplineSet
EndChar
StartChar: I
Encoding: 73 73 45
Width: 650
Flags: MW
HStem: 0 160<53 263 443 625> 1290 160<281 462 642 852>
Fore
653 160 m 1
 625 0 l 1
 25 0 l 1
 53 160 l 1
 263 160 l 1
 462 1290 l 1
 252 1290 l 1
 281 1450 l 1
 881 1450 l 1
 852 1290 l 1
 642 1290 l 1
 443 160 l 1
 653 160 l 1
EndSplineSet
EndChar
StartChar: J
Encoding: 74 74 46
Width: 1024
Flags: MW
HStem: -10 180<360.499 646.671> 1280 170<664 911>
VStem: 128 186<217.069 417.258>
Fore
1121 1450 m 1
 945 456 l 2
 884 108 710 -10 461 -10 c 0
 201 -10 128 125 128 297 c 0
 128 347 134 401 144 455 c 1
 324 455 l 1
 317 417 314 384 314 355 c 0
 314 220 382 170 492 170 c 0
 646 170 730 256 757 408 c 2
 911 1280 l 1
 634 1280 l 1
 664 1450 l 1
 1121 1450 l 1
EndSplineSet
EndChar
StartChar: K
Encoding: 75 75 47
Width: 1366
Flags: W
HStem: 0 21G<150 333.525 1097.6 1346> 1430 20G<402.469 586 1302.14 1572>
Fore
150 0 m 1
 406 1450 l 1
 586 1450 l 1
 468 785 l 1
 1328 1450 l 1
 1572 1450 l 1
 752 806 l 1
 1346 0 l 1
 1113 0 l 1
 597 670 l 1
 425 539 l 1
 330 0 l 1
 150 0 l 1
EndSplineSet
EndChar
StartChar: L
Encoding: 76 76 48
Width: 1139
Flags: W
HStem: 0 170<360 1060 150 1090 360 360> 1430 20G<402.469 586>
Fore
150 0 m 1
 406 1450 l 1
 586 1450 l 1
 360 170 l 1
 1090 170 l 1
 1060 0 l 1
 150 0 l 1
EndSplineSet
EndChar
StartChar: M
Encoding: 77 77 49
Width: 1706
Flags: W
HStem: 0 21G<152 335.527 701.768 1007.29 1370 1553.53> 1430 20G<404.469 592.343 1614.58 1806>
Fore
152 0 m 1
 408 1450 l 1
 588 1450 l 1
 874 133 l 1
 1626 1450 l 1
 1806 1450 l 1
 1550 0 l 1
 1370 0 l 1
 1540 964 l 1
 996 0 l 1
 706 0 l 1
 502 964 l 1
 332 0 l 1
 152 0 l 1
EndSplineSet
EndChar
StartChar: N
Encoding: 78 78 50
Width: 1479
Flags: W
HStem: 0 21G<156 339.521 1120.52 1314.53> 1430 20G<408.469 602.485 1383.48 1567>
Fore
156 0 m 1
 412 1450 l 1
 592 1450 l 1
 1187 315 l 1
 1387 1450 l 1
 1567 1450 l 1
 1311 0 l 1
 1131 0 l 1
 536 1136 l 1
 336 0 l 1
 156 0 l 1
EndSplineSet
EndChar
StartChar: O
Encoding: 79 79 51
Width: 1593
Flags: W
HStem: -10 180<616.826 1050.32> 1298 180<800.388 1242.66>
VStem: 216 200<370.693 843.13> 1439 202<610.06 1101.16>
Fore
1641 905 m 0
 1641 446 1327 -10 798 -10 c 0
 424 -10 216 229 216 561 c 0
 216 902 432 1472 1062 1478 c 0
 1432 1478 1641 1253 1641 905 c 0
829 170 m 0
 1317 170 1439 642 1439 884 c 0
 1439 1138 1305 1298 1031 1298 c 0
 527 1298 416 793 416 574 c 0
 416 325 559 170 829 170 c 0
EndSplineSet
EndChar
StartChar: P
Encoding: 80 80 52
Width: 1366
Flags: W
HStem: 0 21G<158 341.517> 580 173<471 1091.26> 1277 173<563 1187.45>
VStem: 1264 204<909.925 1208.99>
Fore
158 0 m 1
 414 1450 l 1
 967 1450 l 2
 1364 1450 1468 1313 1468 1134 c 0
 1468 924 1375 580 830 580 c 2
 440 580 l 1
 338 0 l 1
 158 0 l 1
864 753 m 2
 1179 753 1264 916 1264 1092 c 0
 1264 1206 1197 1277 952 1277 c 2
 563 1277 l 1
 471 753 l 1
 864 753 l 2
EndSplineSet
EndChar
StartChar: Q
Encoding: 81 81 53
Width: 1659
Flags: W
HStem: -10 177<775.943 1052.18 1369.38 1514.28> 297 178<835.03 1065.35> 1298 180<809.991 1242.55>
VStem: 215 201<370.815 835.774> 1440 201<608.015 1103.1>
Fore
1256 354 m 1
 1399 499 1440 762 1440 888 c 0
 1440 1144 1304 1298 1031 1298 c 0
 526 1298 416 791 416 573 c 0
 416 414 474 299 584 230 c 1
 655 394 835 475 979 475 c 0
 1159 473 1241 375 1256 354 c 1
1641 905 m 0
 1641 701 1562 348 1353 204 c 1
 1367 185 1389 176 1421 175 c 0
 1460 175 1522 192 1573 228 c 1
 1675 90 l 1
 1589 21 1496 -14 1397 -14 c 0
 1311 -14 1218 16 1172 88 c 1
 1056 22 961 -10 818 -10 c 0
 430 -10 215 212 215 552 c 0
 215 877 418 1478 1062 1478 c 0
 1432 1478 1641 1253 1641 905 c 0
1090 226 m 1
 1058 273 1015 297 960 297 c 0
 823 297 769 174 769 174 c 1
 785 169 805 167 832 167 c 0
 953 169 1049 197 1090 226 c 1
EndSplineSet
EndChar
StartChar: R
Encoding: 82 82 54
Width: 1400
Flags: W
HStem: 0 21G<158 341.517 1096.41 1387> 580 173<471 800> 1277 173<563 1185.45>
VStem: 1264 204<908.305 1206.24>
Fore
1468 1132 m 0
 1468 905 1334 641 1029 596 c 1
 1387 0 l 1
 1107 0 l 1
 800 580 l 1
 440 580 l 1
 338 0 l 1
 158 0 l 1
 414 1450 l 1
 967 1450 l 2
 1359 1450 1468 1315 1468 1132 c 0
864 753 m 2
 1213 753 1264 956 1264 1091 c 0
 1264 1195 1205 1277 952 1277 c 2
 563 1277 l 1
 471 753 l 1
 864 753 l 2
EndSplineSet
EndChar
StartChar: S
Encoding: 83 83 55
Width: 1366
Flags: W
HStem: -10 174<516.973 960.25> 1300 171<668.421 1092.8>
VStem: 173 190<302.525 477.112 466.248 487.977 487.977 502> 330 192<950.964 1172.44> 1149 193<318.743 548.971> 1209 186<1019 1029.5 1029.5 1047.55 1038.52 1188.37>
Fore
1342 503 m 0xd8
 1342 210 1057 -10 715 -10 c 0
 276 -10 173 210 173 405 c 0
 173 439 176 471 181 502 c 1
 364 502 l 1
 363 492 363 483 363 474 c 0
 363 262 505 164 737 164 c 0
 974 164 1149 279 1149 452 c 0xe8
 1149 618 915 628 756 666 c 0
 534 722 330 787 330 999 c 0
 330 1282 597 1471 923 1471 c 0
 1203 1471 1398 1338 1398 1076 c 0
 1398 1058 1397 1039 1395 1019 c 1
 1209 1019 l 1xd4
 1209 1026 1210 1033 1210 1040 c 0
 1210 1200 1100 1300 901 1300 c 0
 597 1300 522 1143 522 1048 c 0
 522 754 1342 952 1342 503 c 0xd8
EndSplineSet
EndChar
StartChar: T
Encoding: 84 84 56
Width: 1251
Flags: W
HStem: 0 21G<538 721.531> 1280 170<304 764 944 1436>
Fore
538 0 m 1
 764 1280 l 1
 274 1280 l 1
 304 1450 l 1
 1466 1450 l 1
 1436 1280 l 1
 944 1280 l 1
 718 0 l 1
 538 0 l 1
EndSplineSet
EndChar
StartChar: U
Encoding: 85 85 57
Width: 1479
Flags: W
HStem: -10 180<561.771 997.249> 1430 20G<413.467 597 1386.46 1570>
VStem: 246 185<290.953 532.549>
Fore
767 170 m 0
 1085 170 1193 337 1234 568 c 2
 1390 1450 l 1
 1570 1450 l 1
 1414 567 l 2
 1346 182 1121 -10 739 -10 c 0
 360 -10 246 173 246 406 c 0
 246 457 251 512 261 567 c 2
 417 1450 l 1
 597 1450 l 1
 441 568 l 2
 434 528 431 492 431 459 c 0
 431 231 591 170 767 170 c 0
EndSplineSet
EndChar
StartChar: V
Encoding: 86 86 58
Width: 1366
Flags: W
HStem: 0 21G<572.697 787.448> 1430 20G<265 479.287 1396.35 1606>
Fore
577 0 m 1
 265 1450 l 1
 475 1450 l 1
 726 279 l 1
 1408 1450 l 1
 1606 1450 l 1
 776 0 l 1
 577 0 l 1
EndSplineSet
EndChar
StartChar: W
Encoding: 87 87 59
Width: 1933
Flags: W
HStem: 0 21G<412.166 621.487 1307.56 1516.9> 1430 20G<281 481.925 1080.42 1346.53 1945.02 2153>
Fore
414 0 m 1
 281 1450 l 1
 480 1450 l 1
 582 390 l 1
 1090 1450 l 1
 1344 1450 l 1
 1478 390 l 1
 1954 1450 l 1
 2153 1450 l 1
 1508 0 l 1
 1310 0 l 1
 1167 1170 l 1
 612 0 l 1
 414 0 l 1
EndSplineSet
EndChar
StartChar: X
Encoding: 88 88 60
Width: 1366
Flags: W
HStem: 0 21G<9 256.945 1112.1 1353> 1430 20G<332 572.146 1320.79 1569>
Fore
9 0 m 1
 697 756 l 1
 332 1450 l 1
 562 1450 l 1
 840 902 l 1
 1339 1450 l 1
 1569 1450 l 1
 931 756 l 1
 1353 0 l 1
 1123 0 l 1
 789 613 l 1
 239 0 l 1
 9 0 l 1
EndSplineSet
EndChar
StartChar: Y
Encoding: 89 89 61
Width: 1366
Flags: W
HStem: 0 21G<571 768.51> 1431 20G<262 503.376 1357.71 1606>
Fore
571 0 m 1
 680 621 l 1
 262 1451 l 1
 492 1451 l 1
 831 855 l 1
 1376 1451 l 1
 1606 1451 l 1
 874 621 l 1
 765 0 l 1
 571 0 l 1
EndSplineSet
EndChar
StartChar: Z
Encoding: 90 90 62
Width: 1251
Flags: W
HStem: 0 180<357 1200> 1270 180<301 1169>
Fore
41 0 m 1
 74 187 l 1
 1169 1270 l 1
 269 1270 l 1
 301 1450 l 1
 1469 1450 l 1
 1437 1270 l 1
 357 180 l 1
 1232 180 l 1
 1200 0 l 1
 41 0 l 1
EndSplineSet
EndChar
StartChar: bracketleft
Encoding: 91 91 63
Width: 569
Flags: MW
HStem: -407 149<274 464> 1317 149<551 768>
Fore
67 -407 m 1
 397 1466 l 1
 794 1466 l 1
 768 1317 l 1
 551 1317 l 1
 274 -258 l 1
 491 -258 l 1
 464 -407 l 1
 67 -407 l 1
EndSplineSet
EndChar
StartChar: backslash
Encoding: 92 92 64
Width: 569
Flags: MW
Fore
421 -25 m 1
 263 1491 l 1
 408 1491 l 1
 565 -25 l 1
 421 -25 l 1
EndSplineSet
EndChar
StartChar: bracketright
Encoding: 93 93 65
Width: 569
Flags: MW
HStem: -407 149<-6 211> 1317 149<297 488>
Fore
364 -407 m 1
 -33 -407 l 1
 -6 -258 l 1
 211 -258 l 1
 488 1317 l 1
 271 1317 l 1
 297 1466 l 1
 694 1466 l 1
 364 -407 l 1
EndSplineSet
EndChar
StartChar: asciicircum
Encoding: 94 94 66
Width: 961
Flags: MW
Fore
361 690 m 1
 176 690 l 1
 670 1491 l 1
 815 1491 l 1
 1029 690 l 1
 848 690 l 1
 706 1287 l 1
 361 690 l 1
EndSplineSet
EndChar
StartChar: underscore
Encoding: 95 95 67
Width: 1139
Flags: W
HStem: -407 130<-80 1090>
Fore
-103 -407 m 1
 -80 -277 l 1
 1113 -277 l 1
 1090 -407 l 1
 -103 -407 l 1
EndSplineSet
EndChar
StartChar: grave
Encoding: 96 96 68
Width: 682
Flags: W
HStem: 1194 280<531 590 349 676 349 349>
Fore
676 1194 m 1
 531 1194 l 1
 349 1474 l 1
 590 1474 l 1
 676 1194 l 1
EndSplineSet
EndChar
StartChar: a
Encoding: 97 97 69
Width: 1139
Flags: W
HStem: -24 141<355.906 660.713> 937 149<531.229 897.866>
VStem: 118 195<158.078 368.766> 850 179<39.1421 129.901> 947 188<740.082 889.331>
Fore
1073 445 m 2xe8
 1044 276 1029 185 1029 120 c 0
 1029 73 1037 39 1052 0 c 1
 864 0 l 1
 855 29 850 61 850 98 c 0xf0
 850 109 850 120 851 131 c 1
 740 49 612 -24 433 -24 c 0
 185 -24 118 108 118 225 c 0
 118 369 220 530 435 585 c 0
 560 616 769 621 932 674 c 1
 941 721 l 2
 945 742 947 761 947 780 c 0
 947 875 891 937 723 937 c 0
 554 937 474 883 411 735 c 1
 239 759 l 1
 320 990 512 1086 775 1086 c 0
 1072 1086 1135 972 1135 842 c 0
 1135 790 1125 736 1116 685 c 2
 1073 445 l 2xe8
907 533 m 1
 675 443 313 496 313 256 c 0
 313 192 352 117 501 117 c 0
 649 117 770 188 835 287 c 0
 861 328 881 388 895 467 c 2
 907 533 l 1
EndSplineSet
EndChar
StartChar: b
Encoding: 98 98 70
Width: 1139
Flags: W
HStem: -10 159<479.394 764.746> 921 165<613.508 892.274> 1446 20G<388.48 572>
VStem: 988 175<419.575 823.223>
Fore
1163 683 m 0
 1163 392 986 -10 594 -10 c 0
 417 -10 344 82 322 119 c 1
 301 0 l 1
 134 0 l 1
 392 1466 l 1
 572 1466 l 1
 480 943 l 1
 573 1038 678 1086 796 1086 c 0
 1035 1086 1163 923 1163 683 c 0
751 921 m 0
 556 921 395 683 395 414 c 0
 395 203 516 149 607 149 c 0
 916 152 988 501 988 651 c 0
 988 870 853 921 751 921 c 0
EndSplineSet
EndChar
StartChar: c
Encoding: 99 99 71
Width: 1024
Flags: W
HStem: -10 170<440.462 768.3> 916 170<560.851 874.151>
VStem: 161 187<254.285 656.617> 899 177<240.955 403> 951 175<696 704.523 704.523 730.815 717.669 837.504>
Fore
161 402 m 0xf0
 161 620 290 1086 755 1086 c 0
 1073 1086 1132 895 1132 766 c 0
 1132 739 1129 715 1126 696 c 1
 951 696 l 1xe8
 951 702 952 708 952 713 c 0
 952 825 868 916 733 916 c 0
 724 916 l 0
 404 916 348 552 348 421 c 0
 348 209 486 160 589 160 c 0
 712 161 859 203 899 403 c 1
 1076 403 l 1
 1021 137 827 -10 561 -10 c 0
 340 -10 161 131 161 402 c 0xf0
EndSplineSet
EndChar
StartChar: d
Encoding: 100 100 72
Width: 1139
Flags: W
HStem: -10 154<429.805 698.121> 917 169<545.688 832.838> 1446 20G<1066.5 1249>
VStem: 151 186<234.87 648.769>
Fore
151 400 m 0
 151 696 338 1086 710 1086 c 0
 886 1086 947 1014 981 958 c 1
 1070 1466 l 1
 1249 1466 l 1
 991 0 l 1
 824 0 l 1
 846 122 l 1
 770 34 663 -10 525 -10 c 0
 284 -8 151 158 151 400 c 0
573 144 m 2
 707 144 919 319 919 637 c 0
 919 820 831 917 706 917 c 0
 410 917 337 569 337 410 c 0
 337 193 470 144 569 144 c 2
 573 144 l 2
EndSplineSet
EndChar
StartChar: e
Encoding: 101 101 73
Width: 1139
Flags: W
HStem: -10 162<438.218 788.754> 485 164<385 976> 914 172<559.9 899.398>
VStem: 154 192<243.53 483.583> 978 182<650.65 835.288>
Fore
1160 672 m 0
 1160 583 1147 527 1139 485 c 1
 353 485 l 1
 348 454 346 425 346 399 c 0
 346 200 479 152 609 152 c 2
 613 152 l 2
 761 152 863 215 921 333 c 1
 1107 333 l 1
 1029 124 834 -10 579 -10 c 0
 304 -10 154 131 154 384 c 0
 154 677 329 1086 762 1086 c 0
 1028 1086 1160 928 1160 672 c 0
976 649 m 1
 977 661 978 674 978 688 c 0
 978 791 939 914 734 914 c 0
 564 914 422 803 385 649 c 1
 976 649 l 1
EndSplineSet
EndChar
StartChar: f
Encoding: 102 102 74
Width: 569
Flags: MW
HStem: 0 21G<178 360.516> 785 140<182 316 520 674> 1343 172<655.612 814.625>
Fore
738 1343 m 0
 689 1343 592 1335 562 1160 c 2
 520 925 l 1
 699 925 l 1
 674 785 l 1
 495 785 l 1
 357 0 l 1
 178 0 l 1
 316 785 l 1
 157 785 l 1
 182 925 l 1
 341 925 l 1
 385 1175 l 2
 433 1447 622 1515 754 1515 c 0
 805 1515 855 1506 902 1488 c 1
 872 1316 l 1
 820 1334 776 1343 738 1343 c 0
EndSplineSet
EndChar
StartChar: g
Encoding: 103 103 75
Width: 1139
Flags: W
HStem: -435 167<312.025 656.188> 0 175<417.214 710.166> 917 169<538.809 847.209>
VStem: 84 176<-216.517 -101.023 -107.523 -94.5231 -94.5231 -74> 148 188<257.8 656.481>
Fore
148 403 m 0xe8
 148 703 338 1086 717 1086 c 0
 858 1086 955 1049 1008 974 c 1
 1023 1062 l 1
 1189 1062 l 1
 1027 144 l 2
 950 -296 783 -435 445 -435 c 0
 224 -435 84 -333 84 -141 c 0
 84 -119 86 -97 89 -74 c 1
 264 -74 l 1
 261 -88 260 -102 260 -115 c 0xf0
 260 -229 365 -268 474 -268 c 0
 713 -268 800 -113 844 139 c 1
 748 46 642 0 525 0 c 0
 282 0 148 161 148 403 c 0xe8
701 917 m 0
 409 917 336 587 336 425 c 0xe8
 336 270 405 175 573 175 c 0
 876 175 930 527 930 664 c 0
 930 877 798 917 701 917 c 0
EndSplineSet
EndChar
StartChar: h
Encoding: 104 104 76
Width: 1139
Flags: MW
HStem: 0 21G<135 318.534 820 1003.54> 882 213<596.22 887.202> 1446 20G<389.48 573>
VStem: 930 189<632.462 656.144 656.144 705.951 681.047 834.459>
Fore
752 882 m 0
 562 882 448 756 409 532 c 2
 315 0 l 1
 135 0 l 1
 393 1466 l 1
 573 1466 l 1
 486 970 l 1
 568 1057 688 1095 793 1095 c 0
 1056 1095 1128 933 1128 775 c 0
 1128 740 1125 706 1119 673 c 2
 1000 0 l 1
 820 0 l 1
 930 624 l 2
 935 653 938 679 938 704 c 0
 938 823 876 882 752 882 c 0
EndSplineSet
EndChar
StartChar: i
Encoding: 105 105 77
Width: 455
Flags: MW
HStem: 0 21G<136 319.522> 1042 20G<319.478 503> 1259 207<394 538>
Fore
358 1259 m 1
 394 1466 l 1
 574 1466 l 1
 538 1259 l 1
 358 1259 l 1
136 0 m 1
 323 1062 l 1
 503 1062 l 1
 316 0 l 1
 136 0 l 1
EndSplineSet
EndChar
StartChar: j
Encoding: 106 106 78
Width: 455
Flags: MW
HStem: -428 161<-127.711 59.9505> 1042 20G<317.47 501> 1257 209<392 536>
Fore
356 1257 m 1
 392 1466 l 1
 572 1466 l 1
 536 1257 l 1
 356 1257 l 1
304 -58 m 2
 255 -336 129 -428 -36 -428 c 0
 -76 -428 -120 -423 -167 -412 c 1
 -140 -259 l 1
 -106 -264 -77 -267 -54 -267 c 0
 43 -267 95 -223 124 -54 c 2
 321 1062 l 1
 501 1062 l 1
 304 -58 l 2
EndSplineSet
EndChar
StartChar: k
Encoding: 107 107 79
Width: 1024
Flags: W
HStem: 0 21G<136 319.515 784.608 1016> 1042 20G<905.759 1162> 1446 20G<390.48 574>
Fore
136 0 m 1
 394 1466 l 1
 574 1466 l 1
 427 630 l 1
 929 1062 l 1
 1162 1062 l 1
 687 668 l 1
 1016 0 l 1
 794 0 l 1
 539 543 l 1
 390 421 l 1
 316 0 l 1
 136 0 l 1
EndSplineSet
EndChar
StartChar: l
Encoding: 108 108 80
Width: 455
Flags: MW
HStem: 0 21G<131 314.52> 1446 20G<385.48 569>
Fore
131 0 m 1
 389 1466 l 1
 569 1466 l 1
 311 0 l 1
 131 0 l 1
EndSplineSet
EndChar
StartChar: m
Encoding: 109 109 81
Width: 1706
Flags: W
HStem: 0 21G<135 318.521 766 949.533 1395 1577.54> 930 156<618.329 863.421 1250.64 1491.71>
VStem: 1513 190<688.492 704.942 704.942 762.404 733.673 897.482>
Fore
888 690 m 2
 894 722 896 750 896 774 c 0
 896 892 836 930 742 930 c 0
 632 930 532 867 480 773 c 0
 452 722 429 648 412 551 c 2
 315 0 l 1
 135 0 l 1
 322 1062 l 1
 483 1062 l 1
 457 913 l 1
 496 962 616 1086 809 1086 c 0
 985 1086 1058 1004 1077 900 c 1
 1183 1024 1302 1086 1437 1086 c 0
 1605 1086 1713 1013 1713 832 c 0
 1713 801 1710 767 1703 729 c 2
 1574 0 l 1
 1395 0 l 1
 1513 669 l 2
 1520 709 1524 744 1524 775 c 0
 1524 884 1476 930 1370 930 c 0
 1280 930 1104 893 1055 617 c 2
 946 0 l 1
 766 0 l 1
 888 690 l 2
EndSplineSet
EndChar
StartChar: n
Encoding: 110 110 82
Width: 1139
Flags: MW
HStem: 0 21G<135 318.534 820 1003.54> 882 213<596.22 887.202>
VStem: 930 189<632.462 656.144 656.144 705.951 681.047 834.459>
Fore
752 882 m 0
 562 882 448 756 409 532 c 2
 315 0 l 1
 135 0 l 1
 323 1064 l 1
 503 1064 l 1
 486 970 l 1
 568 1057 688 1095 793 1095 c 0
 1056 1095 1128 933 1128 775 c 0
 1128 740 1125 706 1119 673 c 2
 1000 0 l 1
 820 0 l 1
 930 624 l 2
 935 653 938 679 938 704 c 0
 938 823 876 882 752 882 c 0
EndSplineSet
EndChar
StartChar: o
Encoding: 111 111 83
Width: 1139
Flags: W
HStem: -11 158<431.486 765.723> 928 158<559.213 883.147>
VStem: 148 187<245.574 646.82> 984 187<415.281 822.229>
Fore
148 386 m 0
 148 613 270 1086 757 1086 c 0
 1022 1086 1171 929 1171 677 c 0
 1171 442 1050 -11 564 -11 c 0
 292 -11 148 134 148 386 c 0
592 147 m 0
 905 147 984 482 984 651 c 0
 984 875 838 928 730 928 c 0
 410 928 335 570 335 412 c 0
 335 187 484 147 592 147 c 0
EndSplineSet
EndChar
StartChar: p
Encoding: 112 112 84
Width: 1139
Flags: W
HStem: -10 165<479.068 762.642> 927 159<591.659 882.23>
VStem: 976 174<414.234 824.951>
Fore
1150 677 m 0
 1150 345 947 -10 591 -10 c 0
 473 -10 385 38 325 133 c 1
 233 -390 l 1
 53 -390 l 1
 312 1076 l 1
 479 1076 l 1
 458 957 l 1
 493 994 598 1086 775 1086 c 0
 1024 1086 1150 921 1150 677 c 0
604 155 m 0
 868 155 976 447 976 648 c 0
 976 801 908 927 732 927 c 0
 514 927 386 660 386 440 c 0
 386 278 465 155 604 155 c 0
EndSplineSet
EndChar
StartChar: q
Encoding: 113 113 85
Width: 1139
Flags: W
HStem: -10 165<439.085 717.984> 927 159<564.721 852.102>
VStem: 168 175<248.11 656.504>
Fore
168 394 m 0
 168 684 347 1086 737 1086 c 0
 914 1086 988 994 1010 957 c 1
 1031 1076 l 1
 1198 1076 l 1
 939 -390 l 1
 759 -390 l 1
 851 133 l 1
 759 38 653 -10 535 -10 c 0
 297 -10 168 153 168 394 c 0
724 927 m 0
 431 927 343 597 343 424 c 0
 343 206 479 155 580 155 c 0
 776 155 937 393 937 662 c 0
 937 873 816 927 724 927 c 0
EndSplineSet
EndChar
StartChar: r
Encoding: 114 114 86
Width: 682
Flags: MW
HStem: 0 21G<133 316.525> 900 177<559.92 787.173>
Fore
677 900 m 0
 554 900 454 802 411 556 c 2
 313 0 l 1
 133 0 l 1
 320 1062 l 1
 482 1062 l 1
 462 947 l 1
 504 1008 606 1077 723 1077 c 0
 788 1077 844 1061 891 1028 c 1
 800 861 l 1
 760 887 720 900 677 900 c 0
EndSplineSet
EndChar
StartChar: s
Encoding: 115 115 87
Width: 1024
Flags: W
HStem: -11 162<373.942 725.332> 925 161<485.122 823.299>
VStem: 123 181<215.856 331.477 331.477 358> 226 188<694.136 858.546> 816 192<230.66 408.876> 864 176<764 786.931 786.931 882.489>
Fore
1008 385 m 0xd8
 1008 147 781 -11 515 -11 c 0
 266 -11 123 100 123 305 c 0
 123 322 124 340 126 358 c 1
 304 358 l 1
 304 346 l 0
 304 215 383 151 543 151 c 0
 689 151 816 222 816 330 c 0xe8
 816 548 226 377 226 730 c 0
 226 939 416 1086 675 1086 c 0
 979 1086 1044 921 1044 810 c 0
 1044 793 1042 778 1040 764 c 1
 864 764 l 1
 864 774 l 2xd4
 864 876 803 925 662 925 c 0
 468 925 414 824 414 757 c 0
 414 685 495 671 631 644 c 0
 817 608 1008 574 1008 385 c 0xd8
EndSplineSet
EndChar
StartChar: t
Encoding: 116 116 88
Width: 569
Flags: W
HStem: -13 166<394.446 528.74> 922 140<205 331 534 660>
VStem: 207 184<158.669 271.166>
Fore
400 301 m 2
 395 272 391 246 391 225 c 0
 391 179 410 153 476 153 c 0
 493 153 520 156 556 161 c 1
 554 2 l 1
 505 -8 456 -13 409 -13 c 0
 255 -13 207 48 207 165 c 0
 207 206 213 255 223 311 c 2
 331 922 l 1
 181 922 l 1
 205 1062 l 1
 355 1062 l 1
 421 1433 l 1
 600 1433 l 1
 534 1062 l 1
 684 1062 l 1
 660 922 l 1
 510 922 l 1
 400 301 l 2
EndSplineSet
EndChar
StartChar: u
Encoding: 117 117 89
Width: 1139
Flags: W
HStem: -10 211<422.935 743.109> 1065 20G<291.493 475 976.471 1160>
VStem: 167.848 190.998<262.342 426.285>
Fore
365 461 m 2
 360.801 436.74 358.847 414.602 358.847 394.421 c 0
 358.847 241.577 470.946 201 569 201 c 0
 739 201 839 286 869 456 c 2
 980 1085 l 1
 1160 1085 l 1
 969 0 l 1
 789 0 l 1
 800 64 l 1
 749 16 660 -10 539 -10 c 0
 291.781 -10 167.848 120.011 167.848 315.447 c 0
 167.848 346.104 170.898 378.372 177 412 c 2
 295 1085 l 1
 475 1085 l 1
 365 461 l 2
EndSplineSet
EndChar
StartChar: v
Encoding: 118 118 90
Width: 1024
Flags: W
HStem: 0 21G<424.932 610.073> 1042 20G<213 407.136 986.155 1187>
VStem: 213 974<1062 1062 1062 1062>
Fore
429 0 m 1
 213 1062 l 1
 403 1062 l 1
 567 269 l 1
 997 1062 l 1
 1187 1062 l 1
 599 0 l 1
 429 0 l 1
EndSplineSet
EndChar
StartChar: w
Encoding: 119 119 91
Width: 1479
Flags: W
HStem: 0 21G<328.401 527.935 972.962 1172.17> 1042 20G<193 381.157 825.98 1021.28 1466.1 1650>
Fore
331 0 m 1
 193 1062 l 1
 379 1062 l 1
 467 246 l 1
 835 1062 l 1
 1019 1062 l 1
 1112 246 l 1
 1475 1062 l 1
 1650 1062 l 1
 1163 0 l 1
 975 0 l 1
 948 265 l 1
 908 623 886 807 884 817 c 1
 519 0 l 1
 331 0 l 1
EndSplineSet
EndChar
StartChar: x
Encoding: 120 120 92
Width: 1024
Flags: W
HStem: 0 21G<15 249.516 778.024 1009> 1042 20G<231 464.967 934.957 1168>
Fore
15 0 m 1
 493 552 l 1
 231 1062 l 1
 456 1062 l 1
 621 694 l 1
 953 1062 l 1
 1168 1062 l 1
 706 562 l 1
 1009 0 l 1
 788 0 l 1
 579 419 l 1
 233 0 l 1
 15 0 l 1
EndSplineSet
EndChar
StartChar: y
Encoding: 121 121 93
Width: 1024
Flags: W
HStem: -409 169<65 118.248 118.248 130.767 124.508 332.085> 1042 20G<220 417.391 1002.48 1193>
Fore
55 -409 m 1
 65 -240 l 1
 97 -249 132 -254 169 -254 c 0
 367 -254 411 -111 436 -2 c 1
 220 1062 l 1
 414 1062 l 1
 560 201 l 1
 1013 1062 l 1
 1193 1062 l 1
 602 -1 l 1
 551 -181 458 -422 165 -422 c 0
 123 -422 83 -421 55 -409 c 1
EndSplineSet
EndChar
StartChar: z
Encoding: 122 122 94
Width: 1024
Flags: W
HStem: 0 155<289 980> 916 146<247 878>
Fore
40 0 m 1
 67 155 l 1
 878 916 l 1
 222 916 l 1
 247 1062 l 1
 1135 1062 l 1
 1110 916 l 1
 289 155 l 1
 1007 155 l 1
 980 0 l 1
 40 0 l 1
EndSplineSet
EndChar
StartChar: braceleft
Encoding: 123 123 95
Width: 684
Flags: W
HStem: -431 157<426.666 560> 1334 157<689.604 871>
VStem: 242 168<-255.742 128.032> 302 166<-47.2282 403.546>
Fore
242 -207 m 0xe0
 242 -57 302 146 302 276 c 0
 302 381 262 432 136 449 c 1
 165 612 l 1
 363 634 397 757 440 998 c 0
 499 1335 543 1491 843 1491 c 2
 899 1491 l 1
 871 1334 l 1
 840 1334 l 2
 685 1334 665 1330 602 975 c 0
 551 685 493 620 317 530 c 1
 425 477 468 406 468 277 c 0xd0
 468 139 410 -95 410 -174 c 0
 410 -245 443 -274 557 -274 c 2
 588 -274 l 1
 560 -431 l 1
 504 -431 l 2
 301 -431 242 -354 242 -207 c 0xe0
EndSplineSet
EndChar
StartChar: bar
Encoding: 124 124 96
Width: 532
Flags: MW
Fore
112 -431 m 1
 451 1491 l 1
 608 1491 l 1
 269 -431 l 1
 112 -431 l 1
EndSplineSet
EndChar
StartChar: braceright
Encoding: 125 125 97
Width: 684
Flags: W
HStem: -431 157<30 179.625>
VStem: 403 167<658.301 1111.58> 458 171<933.9 1323.94>
Fore
458 1230 m 0xa0
 458 1108 403 914 403 775 c 0
 403 646 449 594 552 530 c 1
 372 454 311 344 264 80 c 0
 209 -181 235 -274 30 -274 c 2
 -1 -274 l 1
 -29 -431 l 1
 27 -431 l 2
 327 -431 373 -262 428 49 c 0
 475 315 501 423 705 449 c 1
 734 612 l 1
 609 626 570 685 570 791 c 0xc0
 570 916 629 1121 629 1271 c 0
 629 1420 568 1491 366 1491 c 2
 310 1491 l 1
 282 1334 l 1
 313 1334 l 2
 415 1334 458 1332 458 1230 c 0xa0
EndSplineSet
EndChar
StartChar: asciitilde
Encoding: 126 126 98
Width: 1196
Flags: W
HStem: 559 189<829.174 1120.5> 693 189<328.425 637.495>
Fore
470 693 m 0x40
 368 693 292 645 185 557 c 1
 221 762 l 1
 306 842 406 882 521 882 c 0x40
 714 882 848 748 984 748 c 0
 1087 748 1201 826 1266 885 c 1
 1229 673 l 1
 1130 594 1042 559 932 559 c 0x80
 734 559 632 693 470 693 c 0x40
EndSplineSet
EndChar
StartChar: exclamdown
Encoding: 161 161 100
Width: 680
Flags: MW
HStem: 0 21G<228 454.966> 1059 20G<441.959 612> 1278 211<501 667>
VStem: 446 166<941.655 1079>
Fore
667 1278 m 1
 463 1278 l 1
 501 1489 l 1
 705 1489 l 1
 667 1278 l 1
452 0 m 1
 228 0 l 1
 446 1079 l 1
 612 1079 l 1
 452 0 l 1
EndSplineSet
EndChar
StartChar: cent
Encoding: 162 162 101
Width: 1118
Flags: MW
HStem: 2 144<483.718 557 696 740.374> 977 139<633.214 728 868 981.286> 1455 20G<813.5 931>
VStem: 198 194<244.851 681.756>
Fore
990 83 m 1
 807 5 715 3 671 1 c 1
 607 -361 l 1
 493 -361 l 1
 557 2 l 1
 312 32 198 183 198 411 c 0
 198 706 361 1070 754 1115 c 1
 817 1475 l 1
 931 1475 l 1
 868 1116 l 1
 990 1112 1093 1074 1158 1037 c 1
 1123 837 l 1
 1113 837 l 1
 988 958 884 971 843 977 c 1
 696 141 l 1
 730 144 849 159 1015 281 c 1
 1025 281 l 1
 990 83 l 1
728 971 m 1
 478 929 392 617 392 425 c 0
 392 195 531 155 583 146 c 1
 728 971 l 1
EndSplineSet
EndChar
StartChar: sterling
Encoding: 163 163 102
Width: 1118
Flags: W
HStem: 0 171<291 1031> 613 138<262 399 615 955> 1264 21G<1175.5 1227.5> 1351 167<809.615 1110.37>
Fore
580 552 m 2
 541 330 361 218 293 182 c 1
 291 171 l 1
 1061 171 l 1
 1031 0 l 1
 89 0 l 1
 126 207 l 1
 298 256 361 398 399 613 c 1
 238 613 l 1
 262 751 l 1
 423 751 l 1
 480 1071 l 2
 527 1340 727 1518 976 1518 c 0
 1056 1518 1105 1516 1260 1470 c 1
 1224 1264 l 1
 1214 1264 l 1
 1137 1325 1045 1351 965 1351 c 0
 792 1351 700 1232 668 1052 c 2
 615 751 l 1
 979 751 l 1
 955 613 l 1
 591 613 l 1
 580 552 l 2
EndSplineSet
EndChar
StartChar: currency
Encoding: 164 164 103
Width: 1118
Flags: W
HStem: 326 138<529.971 731.231> 858 138<626.458 823.385>
VStem: 337 145<532.24 755.345> 872 146<567.334 788.822>
Fore
1018 717 m 0
 1018 624 974 541 929 486 c 1
 1105 272 l 1
 980 166 l 1
 804 378 l 1
 734 340 688 326 617 326 c 0
 547 326 488 353 452 379 c 1
 199 164 l 1
 113 273 l 1
 363 486 l 1
 345 527 337 570 337 609 c 0
 337 710 389 789 425 835 c 1
 250 1051 l 1
 376 1157 l 1
 552 944 l 1
 618 982 683 996 736 996 c 0
 806 996 864 971 903 945 c 1
 1152 1157 l 1
 1242 1052 l 1
 990 836 l 1
 1008 796 1018 760 1018 717 c 0
711 858 m 0
 597 858 482 751 482 625 c 0
 482 532 550 464 642 464 c 0
 759 464 872 574 872 696 c 0
 872 789 804 858 711 858 c 0
EndSplineSet
EndChar
StartChar: yen
Encoding: 165 165 104
Width: 1118
Flags: W
HStem: 0 21G<465 656.545> 440 138<227 543 753 1071>
Fore
1322 1489 m 1
 771 678 l 1
 753 578 l 1
 1095 578 l 1
 1071 440 l 1
 731 440 l 1
 653 0 l 1
 465 0 l 1
 543 440 l 1
 203 440 l 1
 227 578 l 1
 569 578 l 1
 583 657 l 1
 319 1489 l 1
 529 1489 l 1
 710 850 l 1
 1121 1489 l 1
 1322 1489 l 1
EndSplineSet
EndChar
StartChar: brokenbar
Encoding: 166 166 105
Width: 783
Flags: MW
Fore
609 758 m 1
 442 758 l 1
 582 1556 l 1
 749 1556 l 1
 609 758 l 1
406 -392 m 1
 239 -392 l 1
 380 406 l 1
 547 406 l 1
 406 -392 l 1
EndSplineSet
EndChar
StartChar: section
Encoding: 167 167 106
Width: 1118
Flags: W
HStem: -385 165<247.353 664.367> 1268 21G<1081.5 1173.51> 1355 164<657.011 1006.42>
VStem: 207 198<425.872 641.246> 344 199<1036.87 1258.81> 774 199<-118.496 100.486> 913 197<489.454 706.022>
Fore
594 819 m 1xf2
 475 752 405 639 405 530 c 0
 405 433 469 398 557 369 c 2
 723 315 l 1
 838 379 913 488 913 604 c 0
 913 719 822 750 688 788 c 2
 594 819 l 1xf2
973 57 m 0xe4
 973 -123 828 -385 422 -385 c 0
 300 -385 199 -360 114 -327 c 1
 149 -133 l 1
 159 -133 l 1
 215 -166 331 -220 470 -220 c 0
 594 -220 774 -172 774 4 c 0
 774 87 718 125 621 154 c 2
 494 192 l 2
 347 237 207 294 207 466 c 0xf4
 207 553 241 732 469 858 c 1
 471 865 l 1
 418 897 344 958 344 1082 c 0
 344 1257 482 1519 896 1519 c 0
 1023 1519 1112 1497 1204 1462 c 1
 1170 1268 l 1
 1160 1268 l 1
 1003 1354 899 1355 846 1355 c 0
 702 1355 543 1296 543 1133 c 0
 543 887 1110 1020 1110 669 c 0xea
 1110 575 1075 400 848 277 c 1
 847 270 l 1
 904 237 973 178 973 57 c 0xe4
EndSplineSet
EndChar
StartChar: dieresis
Encoding: 168 168 107
Width: 1118
Flags: W
HStem: 1304 195<517 684 930 1097 483 1131 517 517>
Fore
1097 1304 m 1
 896 1304 l 1
 930 1499 l 1
 1131 1499 l 1
 1097 1304 l 1
684 1304 m 1
 483 1304 l 1
 517 1499 l 1
 718 1499 l 1
 684 1304 l 1
EndSplineSet
EndChar
StartChar: copyright
Encoding: 169 169 108
Width: 1902
Flags: W
HStem: -210 110<693.289 1187.4> 180 147<897.19 1167.88> 996 147<1006.88 1328.53> 1409 110<943.52 1441.7>
VStem: 186 119<284.391 769.552> 635 187<405.436 780.51> 1829 117<538.275 1024.9>
Fore
1946 817 m 0
 1946 269 1455 -210 914 -210 c 0
 443 -210 186 145 186 494 c 0
 186 1034 671 1519 1219 1519 c 0
 1693 1519 1946 1164 1946 817 c 0
305 514 m 0
 305 199 533 -100 934 -100 c 0
 1397 -100 1829 310 1829 798 c 0
 1829 1106 1606 1409 1200 1409 c 0
 730 1409 305 991 305 514 c 0
1162 996 m 0
 890 996 822 708 822 558 c 0
 822 363 950 327 1044 327 c 0
 1182 327 1311 416 1335 434 c 1
 1351 434 l 1
 1319 255 l 1
 1170 194 1108 180 1014 180 c 0
 837 180 635 254 635 534 c 0
 635 830 817 1143 1184 1143 c 0
 1301 1143 1397 1106 1463 1070 c 1
 1431 889 l 1
 1415 889 l 1
 1368 937 1271 996 1162 996 c 0
EndSplineSet
EndChar
StartChar: ordfeminine
Encoding: 170 170 109
Width: 1010
Flags: W
HStem: 541 155<457.333 668.635> 1045 139<579.433 892> 1365 154<559.936 896.512>
VStem: 257 176<720.733 939.041> 917 168<1184 1194 1194 1215.64 1215.64 1225.2 1220.42 1335.04>
Fore
751 1519 m 0
 1002 1519 1093 1424 1093 1275 c 0
 1093 1250 1090 1223 1085 1194 c 2
 974 566 l 1
 808 566 l 1
 824 657 l 1
 732 595 658 541 499 541 c 0
 354 541 257 635 257 778 c 0
 257 1113 563 1167 917 1184 c 1
 921 1209 924 1228 924 1247 c 0
 924 1340 854 1365 723 1365 c 0
 665 1365 607 1361 434 1304 c 1
 419 1304 l 1
 449 1474 l 1
 483 1484 633 1519 751 1519 c 0
892 1045 m 1
 690 1031 433 1033 433 812 c 0
 433 748 468 696 584 696 c 0
 632 696 710 702 849 802 c 1
 892 1045 l 1
EndSplineSet
EndChar
StartChar: guillemotleft
Encoding: 171 171 110
Width: 1174
Flags: MW
Fore
1077 191 m 1
 663 610 l 1
 678 695 l 1
 1239 1113 l 1
 1206 925 l 1
 841 652 l 1
 1110 379 l 1
 1077 191 l 1
642 162 m 1
 210 608 l 1
 226 697 l 1
 814 1142 l 1
 780 946 l 1
 397 652 l 1
 676 358 l 1
 642 162 l 1
EndSplineSet
EndChar
StartChar: logicalnot
Encoding: 172 172 111
Width: 1490
Flags: MW
HStem: 602 160<291 1258>
Fore
1333 57 m 1
 1162 57 l 1
 1258 602 l 1
 263 602 l 1
 291 762 l 1
 1457 762 l 1
 1333 57 l 1
EndSplineSet
EndChar
StartChar: registered
Encoding: 174 174 113
Width: 1902
Flags: W
HStem: -210 110<693.289 1187.4> 570 126<938 1039> 1005 125<992 1254.29> 1409 110<943.52 1441.7>
VStem: 186 119<284.391 769.552> 1276 186<773.053 982.258> 1829 117<538.275 1024.9>
Fore
1946 817 m 0
 1946 269 1455 -210 914 -210 c 0
 443 -210 186 145 186 494 c 0
 186 1034 671 1519 1219 1519 c 0
 1693 1519 1946 1164 1946 817 c 0
305 514 m 0
 305 199 533 -100 934 -100 c 0
 1397 -100 1829 310 1829 798 c 0
 1829 1106 1606 1409 1200 1409 c 0
 730 1409 305 991 305 514 c 0
1462 933 m 0
 1462 816 1400 687 1210 615 c 1
 1486 215 l 1
 1259 215 l 1
 1039 570 l 1
 916 570 l 1
 853 215 l 1
 688 215 l 1
 849 1130 l 1
 1160 1130 l 2
 1257 1130 1462 1119 1462 933 c 0
1036 696 m 2
 1248 696 1276 833 1276 902 c 0
 1276 994 1192 1005 1107 1005 c 2
 992 1005 l 1
 938 696 l 1
 1036 696 l 2
EndSplineSet
EndChar
StartChar: macron
Encoding: 175 175 114
Width: 1118
Flags: W
HStem: 1659 130<299 1427>
Fore
1427 1659 m 1
 277 1659 l 1
 299 1789 l 1
 1449 1789 l 1
 1427 1659 l 1
EndSplineSet
EndChar
StartChar: degree
Encoding: 176 176 115
Width: 964
Flags: W
HStem: 755 152<514.996 783.256> 1363 152<583.126 849.831>
VStem: 295 159<966.697 1233.78> 910 160<1035.92 1303.01>
Fore
295 1063 m 0
 295 1301 501 1515 749 1515 c 0
 938 1515 1070 1388 1070 1207 c 0
 1070 968 862 755 615 755 c 0
 427 755 295 880 295 1063 c 0
722 1363 m 0
 573 1363 454 1232 454 1091 c 0
 454 980 535 907 642 907 c 0
 790 907 910 1037 910 1180 c 0
 910 1290 832 1363 722 1363 c 0
EndSplineSet
EndChar
StartChar: plusminus
Encoding: 177 177 116
Width: 1490
Flags: W
HStem: 159 158<218 718 884 1356> 739 158<320 792 986 1458>
Fore
1356 159 m 1
 190 159 l 1
 218 317 l 1
 718 317 l 1
 792 739 l 1
 292 739 l 1
 320 897 l 1
 820 897 l 1
 909 1402 l 1
 1075 1402 l 1
 986 897 l 1
 1486 897 l 1
 1458 739 l 1
 958 739 l 1
 884 317 l 1
 1384 317 l 1
 1356 159 l 1
EndSplineSet
EndChar
StartChar: uni00B2
Encoding: 178 178 117
Width: 1010
Flags: W
HStem: 566 144<498 966> 1279 21G<417 455> 1371 148<518.612 816.031>
VStem: 838 189<1125.83 1345.28>
Fore
749 1519 m 0
 968 1519 1027 1400 1027 1293 c 0
 1027 1097 866 955 637 802 c 2
 498 710 l 1
 991 710 l 1
 966 566 l 1
 285 566 l 1
 312 718 l 1
 479 832 l 2
 513 856 838 1055 838 1261 c 0
 838 1348 763 1371 699 1371 c 0
 594 1371 478 1311 432 1279 c 1
 417 1279 l 1
 448 1458 l 1
 531 1491 645 1519 749 1519 c 0
EndSplineSet
EndChar
StartChar: uni00B3
Encoding: 179 179 118
Width: 1010
Flags: W
HStem: 542 139<443.399 743.666> 968 139<529 791.76> 1380 139<535.115 843.499>
VStem: 814 173<745.028 943.054> 863 180<1177.44 1356.53>
Fore
654 1107 m 2xf0
 817 1107 863 1207 863 1275 c 0
 863 1324 837 1380 715 1380 c 0
 615 1380 491 1322 442 1283 c 1
 425 1283 l 1
 456 1458 l 1
 543 1492 649 1519 760 1519 c 0
 978 1519 1043 1408 1043 1315 c 0xe8
 1043 1211 970 1101 826 1055 c 1
 825 1047 l 1
 911 1028 987 974 987 870 c 0
 987 757 896 542 570 542 c 0
 490 542 387 553 290 600 c 1
 321 775 l 1
 338 775 l 1
 379 730 478 681 591 681 c 0
 687 681 814 722 814 860 c 0
 814 943 748 968 645 968 c 2
 505 968 l 1
 529 1107 l 1
 654 1107 l 2xf0
EndSplineSet
EndChar
StartChar: acute
Encoding: 180 180 119
Width: 1118
Flags: W
HStem: 1302 374<828 1167 1167 1167>
Fore
1167 1676 m 1
 828 1302 l 1
 679 1302 l 1
 924 1676 l 1
 1167 1676 l 1
EndSplineSet
EndChar
StartChar: mu
Encoding: 181 181 120
Width: 1163
Flags: W
HStem: -17 181<439.137 747.369>
Fore
607 164 m 0
 719 164 804 199 887 275 c 1
 1036 1117 l 1
 1224 1117 l 1
 1027 0 l 1
 855 0 l 1
 875 116 l 1
 869 116 l 1
 739 0 658 -17 575 -17 c 0
 473 -17 420 11 344 115 c 1
 251 -412 l 1
 63 -412 l 1
 333 1117 l 1
 521 1117 l 1
 372 275 l 1
 424 199 503 164 607 164 c 0
EndSplineSet
EndChar
StartChar: paragraph
Encoding: 182 182 121
Width: 1118
Flags: MW
HStem: 1359 130<895 1082>
Fore
233 953 m 0
 233 1158 351 1489 823 1489 c 2
 1245 1489 l 1
 918 -363 l 1
 778 -363 l 1
 1082 1359 l 1
 895 1359 l 1
 591 -363 l 1
 451 -363 l 1
 620 593 l 1
 380 598 233 734 233 953 c 0
EndSplineSet
EndChar
StartChar: periodcentered
Encoding: 183 183 122
Width: 724
Flags: W
HStem: 832 285<440 629 440 629 440 440>
Fore
629 832 m 1
 390 832 l 1
 440 1117 l 1
 679 1117 l 1
 629 832 l 1
EndSplineSet
EndChar
StartChar: cedilla
Encoding: 184 184 123
Width: 1118
Flags: MW
HStem: -423 150<316.238 537.768>
Fore
392 -273 m 0
 591 -273 590 -147 614 20 c 1
 771 20 l 1
 768 -12 762 -61 757 -89 c 0
 710 -355 517 -423 391 -423 c 0
 356 -423 283 -419 219 -399 c 1
 247 -239 l 1
 256 -239 l 1
 298 -259 341 -273 392 -273 c 0
EndSplineSet
EndChar
StartChar: uni0E01
Encoding: 3585 3585 124
Width: 1376
VWidth: 2045
Flags: W
HStem: 0 21G<241 424.548 998 1181.52> 744 178<553 643> 1101 178<653.339 996.46>
VStem: 1135 182<747.509 963.356>
Fore
232 744 m 1
 372 744 l 1
1129 744 m 2
 1133 766 1135 787 1135 807 c 0
 1135 972 1018 1101 833 1101 c 0
 678 1101 575 1024 491 922 c 9
 675 922 l 1
 643 744 l 1
 553 744 l 1
 421 0 l 1
 241 0 l 1
 372 744 l 1
 232 744 l 1
 288 1058 584 1279 865 1279 c 0
 1133 1279 1317 1087 1317 837 c 0
 1317 807 1315 776 1309 744 c 2
 1178 0 l 1
 998 0 l 1
 1129 744 l 2
EndSplineSet
EndChar
StartChar: uni0E02
Encoding: 3586 3586 125
Width: 1352
VWidth: 2045
Flags: W
HStem: 0 178<413 501 682 1004> 689 133<389.201 541.992> 1091 178<643.593 750.481>
VStem: 249 134<827.788 975.611> 565 139<843.782 993.877> 791 183<852.814 1050.28>
Fore
249 876 m 0
 249 1088 464 1269 673 1269 c 0
 846 1269 974 1149 974 973 c 0
 974 951 972 928 968 904 c 0
 921 637 772 688 737 489 c 2
 682 178 l 1
 1004 178 l 1
 1194 1254 l 1
 1374 1254 l 1
 1153 0 l 1
 382 0 l 1
 413 178 l 1
 501 178 l 1
 556 489 l 2
 607 776 791 733 791 937 c 0
 791 1038 720 1091 641 1091 c 1
 657 1075 704 1033 704 952 c 0
 704 809 571 689 434 689 c 0
 350 689 249 735 249 876 c 0
459 822 m 0
 523 822 565 880 565 927 c 0
 565 967 536 1000 490 1000 c 0
 434 1000 383 951 383 897 c 0
 383 857 410 822 459 822 c 0
EndSplineSet
EndChar
StartChar: uni0E03
Encoding: 3587 3587 126
Width: 1376
VWidth: 2045
Flags: W
HStem: 0 178<464 555 735 1057> 586 133<328.574 480.665> 897 132<414.974 497.938> 1238 20G<400.5 563.602 783.244 860 1243.47 1427>
VStem: 177 145<726.333 871.764> 505 139<742.082 891.189> 844 185<861.11 1056.69>
Fore
644 854 m 0
 644 717 521 586 374 586 c 0
 278 586 177 652 177 803 c 0
 177 943 268 1213 533 1258 c 1
 660 1175 l 1
 823 1257 l 1
 897 1236 1029 1166 1029 986 c 0
 1029 964 1027 939 1022 913 c 0
 978 665 814 624 783 449 c 2
 735 178 l 1
 1057 178 l 1
 1247 1254 l 1
 1427 1254 l 1
 1206 0 l 1
 433 0 l 1
 464 178 l 1
 555 178 l 1
 602 444 l 2
 650 719 844 763 844 940 c 0
 844 1034 781 1082 747 1100 c 1
 635 1042 l 1
 539 1103 l 1
 478 1099 433 1070 403 1015 c 1
 428 1024 453 1029 471 1029 c 0
 535 1029 644 975 644 854 c 0
398 719 m 0
 455 719 505 772 505 823 c 0
 505 863 476 897 429 897 c 0
 370 897 322 845 322 793 c 0
 322 749 357 719 398 719 c 0
EndSplineSet
EndChar
StartChar: uni0E04
Encoding: 3588 3588 127
Width: 1407
VWidth: 2045
Flags: W
HStem: 0 21G<161 351.758 1040 1223.52> 463 133<721.229 874.735> 774 133<736.808 892.368> 1101 178<702.652 1051.72>
VStem: 898 138<618.283 767.067> 1171 180<703.29 743 744 777.987 777.987 780.046 779.016 975.585>
Fore
1036 724 m 0
 1036 583 901 463 770 463 c 0
 705 463 658 484 625 528 c 1
 341 0 l 1
 161 0 l 1
 292 744 l 2
 357 1110 675 1279 917 1279 c 0
 1169 1279 1360 1108 1360 846 c 0
 1360 813 1357 779 1351 744 c 2
 1220 0 l 1
 1040 0 l 1
 1171 743 l 2
 1176 769 1178 793 1178 817 c 0
 1178 993 1054 1101 885 1101 c 0
 675 1101 507 942 472 744 c 2
 400 332 l 1
 619 779 l 2
 640 820 728 907 846 907 c 0
 963 907 1036 827 1036 724 c 0
791 596 m 0
 845 596 898 644 898 700 c 0
 898 741 869 774 822 774 c 0
 766 774 715 724 715 669 c 0
 715 625 751 596 791 596 c 0
EndSplineSet
EndChar
StartChar: uni0E05
Encoding: 3589 3589 128
Width: 1426
VWidth: 2045
Flags: W
HStem: 0 21G<166 357.636 1066 1249.52> 429 134<731.836 883.438> 742 134<748.643 901.075> 1234 20G<597.5 721.733 1125.6 1233.5>
VStem: 907 139<584.539 735.824> 1211 180<784.217 823 825 858.602 858.602 859.791 859.197 1041.16>
Fore
1046 692 m 0
 1046 548 912 429 777 429 c 0
 714 430 667 452 634 495 c 1
 346 0 l 1
 166 0 l 1
 311 825 l 2
 353 1060 501 1218 694 1254 c 1
 902 1104 l 1
 1160 1254 l 1
 1307 1227 1400 1101 1400 925 c 0
 1400 893 1397 860 1391 825 c 2
 1246 0 l 1
 1066 0 l 1
 1211 823 l 2
 1219 867 1223 902 1223 931 c 0
 1223 1010 1193 1041 1129 1075 c 1
 870 927 l 1
 674 1072 l 1
 656 1070 527 1038 489 825 c 2
 399 314 l 1
 629 746 l 2
 657 799 740 876 858 876 c 0
 963 876 1046 801 1046 692 c 0
800 563 m 0
 851 563 907 608 907 668 c 0
 907 711 875 742 832 742 c 0
 778 742 725 693 725 637 c 0
 725 594 759 563 800 563 c 0
EndSplineSet
EndChar
StartChar: uni0E06
Encoding: 3590 3590 129
Width: 1576
VWidth: 2045
Flags: W
HStem: -8 177<487.428 639.775> 347 177<501.696 658.486> 586 133<407.699 557.302> 897 132<491.807 576.697> 1238 20G<480.5 639.602 859.244 931.5 1435.47 1619>
VStem: 246 154<726.738 874.929> 299 181<176.012 324.303> 582 140<742.619 891.267> 921 186<808.989 1058.91>
Fore
722 854 m 0xfb80
 722 717 598 586 451 586 c 0
 353 586 246 662 246 809 c 0xfd80
 246 946 352 1214 609 1258 c 1
 736 1175 l 1
 899 1257 l 1
 964 1238 1107 1169 1107 989 c 0
 1107 709 917 689 867 415 c 1
 1249 178 l 1
 1439 1254 l 1
 1619 1254 l 1
 1398 0 l 1
 1218 0 l 1
 836 237 l 17
 808 123 688 -8 525 -8 c 0
 393 -8 299 85 299 212 c 0
 299 372 448 524 618 524 c 0
 653 524 684 519 710 508 c 1
 799 799 921 772 921 942 c 0
 921 1034 862 1080 824 1100 c 1
 711 1042 l 1
 615 1103 l 1
 556 1099 510 1070 479 1015 c 1
 507 1024 530 1029 547 1029 c 0
 612 1029 722 975 722 854 c 0xfb80
556 169 m 0
 613 169 663 219 663 276 c 0
 663 317 634 347 587 347 c 0
 523 347 480 293 480 243 c 0xfb80
 480 202 509 169 556 169 c 0
475 719 m 0
 529 719 582 770 582 824 c 0
 582 864 553 897 506 897 c 0
 452 897 400 850 400 794 c 0xfd80
 400 750 434 719 475 719 c 0
EndSplineSet
EndChar
StartChar: uni0E07
Encoding: 3591 3591 130
Width: 1031
VWidth: 2045
Flags: W
HStem: 0 21G<648.292 848.533> 814 134<716.786 807.434> 1127 133<733.4 886.374>
VStem: 575 135<955.73 1103.84> 893 138<1003.24 1119.93>
Fore
575 999 m 0
 575 1134 701 1260 841 1260 c 0
 951 1260 1031 1181 1031 1075 c 0
 1031 1062 1030 1049 1028 1036 c 2
 845 0 l 1
 665 0 l 1
 188 571 l 1
 316 681 l 1
 704 219 l 1
 809 819 l 1
 792 816 777 814 764 814 c 0
 649 814 575 897 575 999 c 0
787 948 m 0
 849 948 893 1004 893 1053 c 0
 893 1094 865 1127 819 1127 c 0
 761 1127 710 1077 710 1021 c 0
 710 979 741 948 787 948 c 0
EndSplineSet
EndChar
StartChar: uni0E08
Encoding: 3592 3592 131
Width: 1288
VWidth: 2045
Flags: W
HStem: 0 21G<757.424 951.738> 431 134<600.719 725.616> 744 133<618.342 771.443> 1098 178<629.265 950.44>
VStem: 251 180<816.583 985.872> 458 136<572.827 718.82> 758 154<356 451> 777 137<586.806 738.12> 1064 182<783.883 985.437>
Fore
458 616 m 0xfe80
 458 757 591 877 725 877 c 0
 878 877 915 750 914 706 c 2xfd80
 912 356 l 1
 1036 712 l 2
 1058 778 1064 796 1064 842 c 0
 1064 990 952 1098 800 1098 c 0
 624 1098 461 960 431 786 c 1
 251 786 l 17
 298 1056 555 1276 831 1276 c 0
 1077 1276 1246 1099 1246 870 c 0
 1246 790 1228 734 1204 672 c 2
 944 0 l 1
 758 0 l 1
 745 451 l 1
 713 438 681 431 648 431 c 0
 531 431 458 513 458 616 c 0xfe80
671 565 m 0
 727 565 777 615 777 671 c 0
 777 716 743 744 702 744 c 0
 649 744 594 696 594 640 c 0
 594 599 624 565 671 565 c 0
EndSplineSet
EndChar
StartChar: uni0E09
Encoding: 3593 3593 132
Width: 1466
VWidth: 2045
Flags: W
HStem: -8 134<1070.28 1223.6> 350 134<391.219 482.483> 662 133<406.448 561.377> 1101 178<682.513 1025.19>
VStem: 246 139<490.286 638.696> 567 138<539.463 656.634> 1165 182<746.486 962.588> 1247 138<148.446 297.134>
Fore
246 526 m 0xfd
 246 688 386 795 515 795 c 0
 631 795 705 713 705 610 c 0
 705 598 704 585 702 572 c 2
 632 178 l 1
 1102 420 l 1
 1159 743 l 2
 1163 764 1165 785 1165 805 c 0
 1165 971 1045 1101 862 1101 c 0
 655 1101 518 943 473 851 c 1
 311 904 l 17
 410 1099 630 1279 894 1279 c 0
 1162 1279 1347 1087 1347 836 c 0xfe
 1347 806 1345 775 1339 743 c 2
 1282 420 l 1
 1321 404 1385 353 1385 258 c 0
 1385 113 1253 -8 1117 -8 c 0
 985 -8 929 90 928 172 c 1
 601 0 l 1
 421 0 l 1
 483 354 l 1
 470 351 455 350 437 350 c 0
 286 350 246 443 246 526 c 0xfd
1140 126 m 0
 1202 126 1247 181 1247 230 c 0xfd
 1247 274 1213 305 1172 305 c 0
 1119 305 1064 258 1064 199 c 0
 1064 158 1095 126 1140 126 c 0
460 484 m 0
 514 484 567 531 567 588 c 0
 567 628 540 662 492 662 c 0
 432 662 385 609 385 558 c 0
 385 513 420 484 460 484 c 0
EndSplineSet
EndChar
StartChar: uni0E0A
Encoding: 3594 3594 133
Width: 1355
VWidth: 2045
Flags: W
HStem: 0 178<403 491 672 994> 689 133<379.021 531.563> 1091 178<633.593 740.481>
VStem: 239 133<830.798 975.571> 555 138<843.615 993.584> 781 183<803.674 1050.28> 1313 180<1157.83 1362>
Fore
239 876 m 0
 239 1088 454 1269 663 1269 c 0
 836 1269 964 1149 964 973 c 0
 964 671 762 692 726 489 c 2
 672 178 l 1
 994 178 l 1
 1105 804 l 2
 1105 807 1106 809 1106 811 c 0
 1106 829 1092 841 1066 846 c 1
 1098 1024 l 1
 1162 1071 1282 1185 1313 1362 c 1
 1493 1362 l 1
 1473 1250 1438 1160 1387 1093 c 0
 1335 1025 1292 975 1257 942 c 1
 1278 911 1288 878 1288 841 c 0
 1288 829 1287 817 1285 804 c 2
 1143 0 l 1
 372 0 l 1
 403 178 l 1
 491 178 l 1
 546 489 l 2
 597 776 781 733 781 937 c 0
 781 1038 710 1091 631 1091 c 1
 651 1069 l 2
 680 1035 693 995 693 951 c 0
 693 808 563 689 424 689 c 0
 340 689 239 735 239 876 c 0
449 822 m 0
 508 822 555 876 555 927 c 0
 555 967 526 1000 480 1000 c 0
 429 1000 372 956 372 896 c 0
 372 855 403 822 449 822 c 0
EndSplineSet
EndChar
StartChar: uni0E0B
Encoding: 3595 3595 134
Width: 1440
VWidth: 2045
Flags: W
HStem: 0 178<508 596 778 1099> 586 133<371.792 523.885> 897 132<456.733 542.861> 1238 20G<443 605.602 825.244 903.5>
VStem: 218 147<727.215 875.251> 548 138<742.338 891.417> 887 184<808.997 1056.97> 1418 180<1157.2 1362>
Fore
441 719 m 0
 501 719 548 773 548 824 c 0
 548 861 524 897 472 897 c 0
 413 897 365 846 365 794 c 0
 365 754 392 719 441 719 c 0
686 854 m 0
 686 721 567 586 417 586 c 0
 310 586 218 660 218 802 c 0
 218 941 311 1211 575 1258 c 1
 702 1175 l 1
 865 1257 l 1
 942 1236 1071 1165 1071 985 c 0
 1071 705 858 631 826 446 c 2
 778 178 l 1
 1099 178 l 1
 1210 804 l 2
 1210 807 1211 809 1211 811 c 0
 1211 829 1198 841 1172 846 c 1
 1204 1024 l 1
 1298 1095 1391 1207 1418 1362 c 1
 1598 1362 l 1
 1579 1251 1543 1161 1491 1092 c 0
 1439 1024 1396 974 1362 942 c 1
 1383 911 1393 878 1393 841 c 0
 1393 829 1392 817 1390 804 c 2
 1248 0 l 1
 477 0 l 1
 508 178 l 1
 596 178 l 1
 643 444 l 2
 693 720 887 764 887 942 c 0
 887 1034 828 1080 790 1100 c 1
 678 1042 l 1
 582 1103 l 1
 522 1099 476 1070 445 1015 c 1
 472 1024 496 1029 514 1029 c 0
 577 1029 686 975 686 854 c 0
EndSplineSet
EndChar
StartChar: uni0E0C
Encoding: 3596 3596 135
Width: 1924
VWidth: 2045
Flags: W
HStem: -8 134<413.745 567.199 946.914 1100.34> 305 133<493.446 583.423 966.475 1071> 744 178<547 638> 1101 178<651.177 991.219>
VStem: 271 136<133.335 248.145> 590 138<148.455 298.164> 804 137<133.987 280.129> 1131 182<747.509 963.93>
Fore
804 178 m 0
 804 319 936 438 1071 438 c 9
 1125 744 l 2
 1129 766 1131 787 1131 808 c 0
 1131 974 1010 1101 829 1101 c 0
 641 1101 523 971 485 922 c 1
 670 922 l 1
 638 744 l 1
 547 744 l 1
 492 433 l 1
 505 436 520 438 538 438 c 0
 649 438 728 360 728 255 c 0
 728 114 597 -8 460 -8 c 0
 348 -8 271 74 271 176 c 0
 271 188 273 201 275 214 c 2
 366 744 l 1
 226 744 l 1
 278 1036 559 1279 861 1279 c 0
 1127 1279 1313 1087 1313 837 c 0
 1313 807 1311 776 1305 744 c 2
 1240 376 l 1
 1588 177 l 1
 1778 1254 l 1
 1958 1254 l 1
 1737 0 l 1
 1557 0 l 1
 1248 175 l 1
 1215 83 1115 -8 993 -8 c 0
 879 -8 804 74 804 178 c 0
1016 126 m 0
 1073 126 1123 177 1123 231 c 0
 1123 275 1089 305 1048 305 c 0
 995 305 941 257 941 198 c 0
 941 154 977 126 1016 126 c 0
483 126 m 0
 537 126 590 173 590 230 c 0
 590 274 556 305 515 305 c 0
 459 305 407 254 407 199 c 0
 407 158 438 126 483 126 c 0
EndSplineSet
EndChar
StartChar: uni0E0D
Encoding: 3597 3597 136
Width: 1924
VWidth: 2045
Flags: W
HStem: -577 192<1008.54 1284.81> -577 163<1238 1404.28> -207 134<1022.04 1177.03> -8 134<403.407 557.199> 0 178<1195 1578> 305 133<481.656 573.423> 744 178<536 628> 1101 178<641.186 981.042>
VStem: 260 137<133.652 248.146> 580 138<148.455 298.164> 864 137<-378.566 -229.747> 1115 180<703.429 744 744 776.023 776.023 776.564 776.293 963.469> 1184 138<-361.461 -214.718>
Fore
1322 -251 m 0xa7e8
 1322 -305 1295 -378 1238 -414 c 1
 1252 -414 l 2x67e8
 1428 -414 1536 -267 1604 -154 c 1
 1730 -249 l 1
 1649 -374 1561 -460 1465 -507 c 0
 1370 -553 1273 -577 1175 -577 c 0
 1008 -577 946 -525 918 -488 c 0
 882 -442 864 -394 864 -342 c 0
 864 -219 969 -73 1132 -73 c 0
 1241 -73 1322 -154 1322 -251 c 0xa7e8
1076 -385 m 0xa7e8
 1125 -385 1184 -341 1184 -281 c 0
 1184 -238 1149 -207 1108 -207 c 0
 1056 -207 1001 -252 1001 -311 c 0
 1001 -352 1030 -385 1076 -385 c 0xa7e8
718 255 m 0
 718 114 587 -8 450 -8 c 0x37f0
 336 -8 260 74 260 177 c 0
 260 189 261 201 263 214 c 2
 356 744 l 1
 216 744 l 1
 268 1036 549 1279 851 1279 c 0
 1116 1279 1303 1086 1303 836 c 0
 1303 806 1301 775 1295 744 c 2
 1195 178 l 1
 1578 178 l 1
 1768 1254 l 1
 1948 1254 l 1
 1727 0 l 1
 984 0 l 25
 1115 744 l 2x2ff0
 1119 766 1121 787 1121 808 c 0
 1121 974 1000 1101 819 1101 c 0
 632 1101 511 969 477 922 c 1
 660 922 l 1
 628 744 l 1
 536 744 l 1
 481 433 l 1
 493 436 509 438 528 438 c 0
 639 438 718 360 718 255 c 0
473 126 m 0
 527 126 580 173 580 230 c 0
 580 274 546 305 505 305 c 0
 449 305 397 254 397 199 c 0
 397 158 428 126 473 126 c 0
216 744 m 1
 356 744 l 1
EndSplineSet
Substitution2: "Single Substitution lookup 9" uni0E0D.descless
Substitution2: "Single Substitution lookup 8" uni0E0D.descless
EndChar
StartChar: uni0E0E
Encoding: 3598 3598 137
Width: 1473
VWidth: 2045
Flags: W
HStem: -526 133<468.958 623.485> -214 133<486.283 639.055> -8 134<284.585 438.333> 305 133<301.727 444.046> 1101 178<769.462 1112.72>
VStem: 140 138<133.37 279.638> 325 138<-385.47 -235.818> 1244 180<703.341 744 744 775.023 775.023 777.977 776.5 964.983>
AnchorPoint: "BelowBase" 994 -625 basechar 0
Fore
140 177 m 0
 140 319 271 438 409 438 c 0
 427 438 442 436 454 433 c 1
 509 744 l 1
 344 744 l 1
 396 1036 677 1279 979 1279 c 0
 1258 1279 1432 1076 1432 834 c 0
 1432 805 1429 774 1424 744 c 2
 1240 -302 l 1
 892 -595 l 1
 741 -414 l 1
 682 -464 625 -526 513 -526 c 0
 405 -526 325 -447 325 -341 c 0
 325 -202 455 -81 594 -81 c 0
 698 -81 739 -146 780 -193 c 1
 904 -89 l 1
 997 -198 l 1
 871 -304 l 1
 931 -375 l 1
 1067 -260 l 1
 1244 744 l 2
 1248 765 1250 786 1250 806 c 0
 1250 969 1132 1101 948 1101 c 0
 797 1101 668 1014 605 922 c 1
 809 922 l 1
 777 744 l 1
 689 744 l 1
 596 216 l 2
 574 89 453 -8 331 -8 c 0
 218 -8 140 72 140 177 c 0
538 -393 m 0
 592 -393 646 -346 646 -288 c 0
 646 -244 610 -214 569 -214 c 0
 509 -214 463 -269 463 -320 c 0
 463 -363 495 -393 538 -393 c 0
354 126 m 0
 408 126 461 173 461 230 c 0
 461 274 427 305 386 305 c 0
 336 305 278 260 278 199 c 0
 278 154 315 126 354 126 c 0
344 744 m 1
 509 744 l 1
EndSplineSet
EndChar
StartChar: uni0E0F
Encoding: 3599 3599 138
Width: 1486
VWidth: 2045
Flags: W
HStem: -526 133<240.465 396.193> -214 133<255.516 410.92> -8 134<284.585 438.333> 305 133<301.727 444.046> 1101 178<768.064 1112.72>
VStem: 98 136<-385.905 -235.669> 140 138<133.37 279.638> 1250 182<747.31 964.983>
AnchorPoint: "BelowBase" 955 -625 basechar 0
Fore
98 -342 m 0xfd
 98 -212 219 -81 365 -81 c 0
 471 -81 509 -145 551 -193 c 1
 676 -88 l 1
 768 -199 l 1
 642 -305 l 1
 702 -375 l 1
 835 -260 l 1
 931 -375 l 1
 1067 -260 l 1
 1244 744 l 2
 1248 765 1250 786 1250 806 c 0
 1250 969 1132 1101 948 1101 c 0
 761 1101 651 980 605 922 c 9
 809 922 l 1
 777 744 l 1
 689 744 l 1
 596 216 l 2
 574 89 453 -8 331 -8 c 0
 218 -8 140 72 140 177 c 0xfb
 140 319 271 438 409 438 c 0
 427 438 442 436 454 433 c 1
 509 744 l 1
 344 744 l 1
 396 1036 677 1279 979 1279 c 0
 1258 1279 1432 1076 1432 834 c 0
 1432 805 1429 774 1424 744 c 2
 1240 -302 l 1
 892 -595 l 1
 796 -480 l 1
 663 -595 l 1
 512 -414 l 1
 454 -465 401 -526 286 -526 c 0
 174 -526 98 -447 98 -342 c 0xfd
310 -393 m 0
 370 -393 417 -344 417 -286 c 0
 417 -242 384 -214 341 -214 c 0
 282 -214 234 -266 234 -319 c 0xfd
 234 -360 263 -393 310 -393 c 0
354 126 m 0
 408 126 461 173 461 230 c 0
 461 274 427 305 386 305 c 0
 336 305 278 260 278 199 c 0xfb
 278 154 315 126 354 126 c 0
344 744 m 1
 509 744 l 1
EndSplineSet
EndChar
StartChar: uni0E10
Encoding: 3600 3600 139
Width: 1245
VWidth: 2045
Flags: MW
HStem: -807 134<-61.3634 92.9152> -521 133<656.042 735.986 724.477 747.494> -494 134<-46.6107 107.866> -210 134<673.287 826.371> 0 21G<682.545 910.534> 244 134<532.631 656.578> 557 133<549.653 702.494> 744 178<526 969.35> 1101 178<692.866 1033.75>
VStem: -204 136<-665.089 -515.212> 390 136<384.993 534.613> 512 137<-380.844 -234.098> 708 136<399.445 551.484> 832 137<-332.505 -216.976> 977 185<673 778>
Fore
512 -338 m 0xdfd4
 512 -208 631 -76 780 -76 c 0
 895 -76 969 -158 969 -260 c 0
 969 -273 968 -286 966 -299 c 2
 913 -603 l 25
 590 -875 l 1
 494 -760 l 1
 361 -873 l 1
 209 -695 l 1
 155 -741 93 -807 -15 -807 c 0
 -129 -807 -204 -725 -204 -621 c 0
 -204 -493 -86 -360 64 -360 c 0xbfd4
 174 -360 211 -428 248 -474 c 1
 374 -369 l 1
 466 -477 l 1
 341 -583 l 1
 400 -654 l 1
 533 -541 l 1
 628 -656 l 1
 740 -562 l 1
 748 -518 l 1
 732 -520 716 -521 701 -521 c 0
 590 -521 512 -443 512 -338 c 0xdfd4
726 -388 m 0xdfd4
 785 -388 832 -334 832 -282 c 0
 832 -242 803 -210 757 -210 c 0
 695 -210 649 -266 649 -312 c 0
 649 -353 679 -388 726 -388 c 0xdfd4
7 -673 m 0
 65 -673 115 -620 115 -567 c 0
 115 -526 84 -494 39 -494 c 0xbfc0
 -23 -494 -68 -549 -68 -598 c 0
 -68 -642 -34 -673 7 -673 c 0
390 428 m 0x9fe8
 390 570 520 690 657 690 c 0
 807 690 847 565 847 519 c 2
 844 285 l 1
 972 655 l 2
 974 659 977 667 977 679 c 0
 977 716 946 744 898 744 c 2
 267 744 l 1
 320 1043 606 1279 901 1279 c 0
 1118 1279 1259 1162 1321 1013 c 1
 1149 924 l 1
 1131 969 1056 1101 869 1101 c 0
 682 1101 562 968 526 922 c 1
 925 922 l 2
 1044 922 1162 834 1162 722 c 0
 1162 708 1160 678 1149 653 c 2
 903 0 l 1
 683 0 l 25
 677 264 l 1
 644 251 611 244 578 244 c 0
 466 244 390 323 390 428 c 0x9fe8
603 378 m 0
 658 378 708 427 708 483 c 0
 708 526 678 557 634 557 c 0
 570 557 526 499 526 452 c 0
 526 407 562 378 603 378 c 0
EndSplineSet
Substitution2: "Single Substitution lookup 9" uni0E10.descless
Substitution2: "Single Substitution lookup 8" uni0E10.descless
EndChar
StartChar: uni0E11
Encoding: 3601 3601 140
Width: 1689
VWidth: 2045
Flags: W
HStem: 0 21G<566 847.019 1334 1517.53> 586 133<372.002 526.854> 897 132<457.143 543.254> 1087 177<1380.97 1503.01>
VStem: 220 145<725.077 875.941> 548 137<742.178 891.754> 887 185<861.677 1056.69> 1509 181<955.436 1003.5 1003.5 1025.57 1014.53 1077.83>
Fore
685 854 m 0
 685 719 565 586 417 586 c 0
 310 586 220 662 220 803 c 0
 220 939 308 1212 576 1258 c 1
 703 1175 l 1
 866 1257 l 1
 940 1236 1072 1166 1072 986 c 0
 1072 964 1070 939 1065 913 c 0
 1021 662 857 628 824 444 c 2
 779 187 l 1
 1265 1140 l 2
 1279 1167 1352 1264 1494 1264 c 0
 1571 1264 1695 1210 1695 1055 c 0
 1695 1037 1694 1017 1690 996 c 2
 1514 0 l 1
 1334 0 l 1
 1509 995 l 2
 1510 1001 1511 1006 1511 1012 c 0
 1511 1053 1480 1087 1430 1087 c 0
 1408 1087 1379 1084 1367 1058 c 2
 837 0 l 1
 566 0 l 1
 644 444 l 2
 693 718 887 766 887 940 c 0
 887 1034 824 1082 790 1100 c 1
 678 1042 l 1
 583 1103 l 1
 522 1099 476 1070 446 1015 c 1
 468 1023 491 1029 515 1029 c 0
 576 1029 685 977 685 854 c 0
441 719 m 0
 499 719 548 769 548 826 c 0
 548 867 519 897 472 897 c 0
 408 897 365 840 365 793 c 0
 365 753 394 719 441 719 c 0
EndSplineSet
EndChar
StartChar: uni0E12
Encoding: 3602 3602 141
Width: 1957
VWidth: 2045
Flags: W
HStem: -8 134<1018.75 1172.84> 305 133<1036.33 1143> 749 133<756.511 910.176> 1234 20G<597.5 721.733 1125.6 1233.5 1804.48 1988>
VStem: 597 137<576.921 727.241> 876 137<132.462 282.793> 916 139<615.172 741.116> 1223 177<844.453 1041.16>
Fore
876 176 m 0xfd
 876 316 1003 438 1143 438 c 1
 1211 823 l 2
 1219 867 1223 902 1223 931 c 0
 1223 1010 1193 1041 1129 1075 c 1
 870 927 l 1
 674 1072 l 1
 656 1070 527 1038 489 825 c 2
 381 208 l 1
 680 465 l 1
 612 508 597 564 597 612 c 0
 597 771 736 882 865 882 c 0
 977 882 1055 805 1055 695 c 0xfb
 1055 661 1048 578 955 501 c 2
 349 0 l 1
 166 0 l 1
 311 825 l 2
 353 1060 501 1218 694 1254 c 1
 902 1104 l 1
 1160 1254 l 1
 1307 1227 1400 1101 1400 925 c 0
 1400 893 1397 860 1391 825 c 2
 1312 372 l 1
 1619 180 l 1
 1808 1254 l 1
 1988 1254 l 1
 1767 0 l 1
 1587 0 l 1
 1316 166 l 1
 1298 123 1218 -8 1065 -8 c 0
 952 -8 876 72 876 176 c 0xfd
1088 126 m 0
 1148 126 1195 180 1195 230 c 0
 1195 271 1166 305 1119 305 c 0
 1066 305 1013 257 1013 199 c 0xfd
 1013 155 1044 126 1088 126 c 0
810 571 m 0
 871 571 916 622 916 674 c 0xfb
 916 714 888 749 841 749 c 0
 779 749 734 693 734 644 c 0
 734 603 762 571 810 571 c 0
EndSplineSet
EndChar
StartChar: uni0E13
Encoding: 3603 3603 142
Width: 1948
VWidth: 2045
Flags: W
HStem: -8 134<405.405 558.568 1556.29 1707.18> 305 133<485.636 575.934> 1101 178<643.177 982.421>
VStem: 264 135<132.906 248.259> 582 136<148.161 297.918> 1117 180<703.357 744 744 775.546 775.546 777.26 776.403 964.613> 1730 139<149.156 298.206>
Fore
718 255 m 0
 718 126 601 -8 452 -8 c 0
 339 -8 264 74 264 176 c 0
 264 189 265 201 267 214 c 2
 360 744 l 1
 218 744 l 1
 270 1036 551 1279 853 1279 c 0
 1117 1279 1305 1090 1305 838 c 0
 1305 807 1303 776 1297 744 c 2
 1197 177 l 1
 1585 420 l 9
 1732 1254 l 1
 1912 1254 l 1
 1765 420 l 1
 1811 398 1869 349 1869 258 c 0
 1869 116 1739 -8 1600 -8 c 0
 1442 -8 1415 128 1413 151 c 1
 1166 0 l 1
 986 0 l 1
 1117 744 l 2
 1121 766 1123 787 1123 807 c 0
 1123 974 1000 1101 821 1101 c 0
 633 1101 515 971 477 922 c 1
 660 922 l 1
 628 744 l 1
 540 744 l 1
 485 433 l 1
 497 436 512 438 530 438 c 0
 644 438 718 358 718 255 c 0
1622 126 m 0
 1679 126 1730 176 1730 230 c 0
 1730 274 1696 305 1654 305 c 0
 1600 305 1548 257 1548 199 c 0
 1548 156 1580 126 1622 126 c 0
475 126 m 0
 534 126 582 178 582 230 c 0
 582 270 554 305 507 305 c 0
 449 305 399 255 399 198 c 0
 399 157 427 126 475 126 c 0
218 744 m 1
 358 744 l 1
EndSplineSet
EndChar
StartChar: uni0E14
Encoding: 3604 3604 143
Width: 1410
VWidth: 2045
Flags: W
HStem: 0 21G<161 364.992 1040 1223.52> 744 133<738.614 890.49> 1101 178<702.752 1051.72>
VStem: 577 138<571.441 721.135> 898 138<610.544 736.456> 1171 180<703.29 743 744 777.987 777.987 780.046 779.016 975.585>
Fore
790 566 m 0
 851 566 898 617 898 670 c 0
 898 710 867 744 821 744 c 0
 768 744 715 696 715 638 c 0
 715 597 743 566 790 566 c 0
577 603 m 0
 577 763 711 877 846 877 c 0
 952 877 1036 802 1036 691 c 0
 1036 657 1029 573 936 496 c 2
 341 0 l 17
 161 0 l 1
 292 744 l 2
 357 1110 675 1279 917 1279 c 0
 1169 1279 1360 1108 1360 846 c 0
 1360 813 1357 779 1351 744 c 2
 1220 0 l 1
 1040 0 l 1
 1171 743 l 2
 1176 769 1178 793 1178 817 c 0
 1178 993 1054 1101 885 1101 c 0
 675 1101 508 945 472 744 c 2
 378 210 l 1
 660 460 l 1
 594 506 577 555 577 603 c 0
EndSplineSet
EndChar
StartChar: uni0E15
Encoding: 3605 3605 144
Width: 1400
VWidth: 2045
Flags: W
HStem: 0 21G<156 363.444 1036 1219.52> 734 133<735.945 887.278> 1234 20G<625.5 701.733 1105.6 1213>
VStem: 574 137<562.169 710.333> 894 138<600.991 727.062> 1196 175<858.217 1045.42>
Fore
787 556 m 0
 851 556 894 612 894 659 c 0
 894 699 865 734 818 734 c 0
 760 734 711 681 711 627 c 0
 711 588 740 556 787 556 c 0
574 595 m 0
 574 751 708 867 842 867 c 0
 952 867 1032 792 1032 682 c 0
 1032 649 1026 563 933 486 c 2
 339 0 l 1
 156 0 l 1
 301 825 l 2
 362 1168 577 1236 674 1254 c 1
 882 1104 l 1
 1140 1254 l 1
 1286 1227 1371 1103 1371 930 c 0
 1371 897 1367 862 1361 825 c 2
 1216 0 l 1
 1036 0 l 1
 1181 823 l 2
 1190 875 1196 915 1196 947 c 0
 1196 1010 1173 1041 1109 1075 c 1
 850 927 l 1
 654 1072 l 1
 615 1068 518 1036 479 825 c 2
 371 208 l 25
 657 450 l 1
 594 492 574 541 574 595 c 0
EndSplineSet
EndChar
StartChar: uni0E16
Encoding: 3606 3606 145
Width: 1370
VWidth: 2045
Flags: W
HStem: -8 134<423.961 576.663> 305 133<501.521 593.415> 744 178<556 648> 1101 178<661.186 1001.04>
VStem: 280 138<133.161 248.587> 600 138<148.132 298.164> 1135 180<703.29 744 744 776.023 776.023 776.564 776.293 963.469>
Fore
492 126 m 0
 549 126 600 176 600 230 c 0
 600 274 566 305 524 305 c 0
 470 305 418 257 418 199 c 0
 418 156 450 126 492 126 c 0
236 744 m 1
 376 744 l 1
738 255 m 0
 738 114 607 -8 470 -8 c 0
 356 -8 280 74 280 177 c 0
 280 189 281 201 283 214 c 2
 376 744 l 1
 236 744 l 1
 288 1036 569 1279 871 1279 c 0
 1136 1279 1323 1086 1323 836 c 0
 1323 806 1321 775 1315 744 c 2
 1184 0 l 1
 1004 0 l 1
 1135 744 l 2
 1139 766 1141 787 1141 808 c 0
 1141 974 1020 1101 839 1101 c 0
 652 1101 531 969 497 922 c 1
 680 922 l 1
 648 744 l 1
 556 744 l 1
 501 433 l 1
 513 436 529 438 548 438 c 0
 659 438 738 360 738 255 c 0
EndSplineSet
EndChar
StartChar: uni0E17
Encoding: 3607 3607 146
Width: 1487
VWidth: 2045
Flags: W
HStem: 0 21G<366 556.662 1118 1301.52> 814 134<418.288 508.929> 1087 177<1104.25 1287.5> 1127 133<436.761 587.486>
VStem: 275 138<955.737 1103.74> 594 138<1002.57 1119.95> 1293 180<954.245 1003.98 1003.98 1025.09 1014.53 1076.6>
Fore
275 1000 m 0xee
 275 1131 398 1260 542 1260 c 0xde
 652 1260 732 1182 732 1075 c 0
 732 1062 731 1049 729 1036 c 2
 608 353 l 17
 1000 1125 l 2
 1011 1145 1088 1264 1263 1264 c 0
 1360 1264 1479 1207 1479 1055 c 0
 1479 1037 1477 1017 1473 995 c 2
 1298 0 l 1
 1118 0 l 1
 1293 995 l 2
 1294 1000 1295 1007 1295 1013 c 0
 1295 1046 1277 1087 1191 1087 c 0
 1147 1087 1117 1072 1102 1043 c 2
 546 0 l 1
 366 0 l 1
 510 819 l 1
 493 816 478 814 464 814 c 0
 350 814 275 896 275 1000 c 0xee
488 948 m 0
 536 948 594 989 594 1053 c 0
 594 1097 563 1127 520 1127 c 0
 460 1127 413 1074 413 1021 c 0
 413 977 447 948 488 948 c 0
EndSplineSet
EndChar
StartChar: uni0E18
Encoding: 3608 3608 147
Width: 1228
VWidth: 2045
Flags: W
HStem: 0 178<250 340 520 845> 744 178<620 927.983> 1111 168<644.341 990.91>
VStem: 929 180<612.467 664.477 664.477 676.023 670.25 739.434>
Fore
885 922 m 2
 1021 922 1113 823 1113 699 c 0
 1113 684 1112 669 1109 653 c 2
 994 0 l 1
 219 0 l 1
 250 178 l 1
 340 178 l 1
 440 744 l 25
 227 744 l 1
 280 1043 566 1279 861 1279 c 0
 1076 1279 1220 1160 1281 1013 c 1
 1109 924 l 1
 1108 929 1039 1111 839 1111 c 0
 744 1111 594 1089 486 922 c 1
 885 922 l 2
929 653 m 2
 930 660 931 668 931 676 c 0
 931 711 915 744 858 744 c 2
 620 744 l 25
 520 178 l 1
 845 178 l 1
 929 653 l 2
EndSplineSet
EndChar
StartChar: uni0E19
Encoding: 3609 3609 148
Width: 1451
VWidth: 2045
Flags: W
HStem: -8 134<1052.07 1204.53> 814 134<408.288 498.929> 1127 133<426.761 577.486>
VStem: 265 138<955.737 1103.74> 584 138<1002.57 1119.95> 1228 139<149.219 298.529>
Fore
1122 126 m 0
 1178 126 1228 177 1228 230 c 0
 1228 274 1194 305 1154 305 c 0
 1103 305 1046 259 1046 200 c 0
 1046 157 1079 126 1122 126 c 0
1367 263 m 0
 1367 111 1233 -8 1098 -8 c 0
 967 -8 910 93 910 168 c 1
 536 0 l 1
 356 0 l 1
 500 819 l 1
 483 816 468 814 454 814 c 0
 340 814 265 896 265 1000 c 0
 265 1131 388 1260 532 1260 c 0
 642 1260 722 1182 722 1075 c 0
 722 1062 721 1049 719 1036 c 2
 567 178 l 1
 1086 423 l 1
 1232 1254 l 1
 1412 1254 l 1
 1265 418 l 1
 1345 380 1367 321 1367 263 c 0
478 948 m 0
 526 948 584 989 584 1053 c 0
 584 1097 553 1127 510 1127 c 0
 450 1127 403 1074 403 1021 c 0
 403 977 437 948 478 948 c 0
EndSplineSet
EndChar
StartChar: uni0E1A
Encoding: 3610 3610 149
Width: 1420
VWidth: 2045
Flags: W
HStem: 0 178<301 392 570 1072> 814 134<413.288 503.488> 1127 133<431.761 582.104>
VStem: 270 138<955.737 1103.74> 589 138<1002.76 1121.14>
Fore
270 1000 m 0
 270 1131 393 1260 537 1260 c 0
 645 1260 727 1186 727 1077 c 0
 727 1064 725 1050 723 1036 c 2
 570 178 l 1
 1072 178 l 1
 1262 1254 l 1
 1442 1254 l 1
 1221 0 l 1
 270 0 l 1
 301 178 l 1
 392 178 l 25
 505 819 l 1
 488 816 473 814 459 814 c 0
 345 814 270 896 270 1000 c 0
483 948 m 0
 536 948 589 995 589 1053 c 0
 589 1096 557 1127 515 1127 c 0
 455 1127 408 1074 408 1021 c 0
 408 977 442 948 483 948 c 0
EndSplineSet
EndChar
StartChar: uni0E1B
Encoding: 3611 3611 150
Width: 1420
VWidth: 2045
Flags: W
HStem: 0 178<301 392 571 1072> 814 134<413.288 503.534> 1127 133<431.761 583.012>
VStem: 270 138<955.737 1103.74> 589 137<1002.73 1119.42>
AnchorPoint: "AboveBase" 1163 1339 basechar 0
Fore
270 1000 m 0
 270 1131 393 1260 537 1260 c 0
 651 1260 726 1179 726 1075 c 0
 726 1062 725 1049 723 1036 c 2
 571 178 l 1
 1072 178 l 1
 1364 1832 l 1
 1544 1832 l 1
 1221 0 l 1
 270 0 l 1
 301 178 l 1
 392 178 l 25
 505 819 l 1
 490 816 474 814 459 814 c 0
 345 814 270 896 270 1000 c 0
483 948 m 0
 536 948 589 995 589 1053 c 0
 589 1096 557 1127 515 1127 c 0
 455 1127 408 1074 408 1021 c 0
 408 977 442 948 483 948 c 0
EndSplineSet
EndChar
StartChar: uni0E1C
Encoding: 3612 3612 151
Width: 1373
VWidth: 2045
Flags: W
HStem: 0 21G<186 385.848 999.222 1195.52> 814 134<520.317 662.78> 1127 133<527.601 680.182>
VStem: 686 138<969.942 1118.39>
Fore
824 1075 m 0
 824 936 693 814 556 814 c 0
 541 814 525 816 510 819 c 1
 413 264 l 1
 806 662 l 1
 1059 264 l 1
 1233 1254 l 1
 1413 1254 l 1
 1192 0 l 1
 1012 0 l 1
 759 396 l 1
 366 0 l 1
 186 0 l 25
 369 1036 l 2
 392 1168 520 1260 624 1260 c 0
 752 1260 824 1176 824 1075 c 0
601 1127 m 0
 565 1127 504 1083 504 1021 c 0
 504 978 537 948 579 948 c 0
 630 948 686 994 686 1053 c 0
 686 1088 665 1127 601 1127 c 0
EndSplineSet
EndChar
StartChar: uni0E1D
Encoding: 3613 3613 152
Width: 1373
VWidth: 2045
Flags: W
HStem: 0 21G<186 385.848 999.222 1195.53> 814 134<520.317 661.524> 1127 133<526.582 679.649>
VStem: 686 138<971.876 1118.92>
AnchorPoint: "AboveBase" 1137 1327 basechar 0
Fore
824 1075 m 0
 824 945 701 814 556 814 c 0
 541 814 525 816 510 819 c 1
 413 264 l 1
 806 662 l 1
 1059 264 l 1
 1335 1832 l 1
 1515 1832 l 1
 1192 0 l 1
 1012 0 l 1
 759 396 l 1
 366 0 l 1
 186 0 l 25
 369 1036 l 2
 391 1163 512 1260 634 1260 c 0
 746 1260 824 1178 824 1075 c 0
611 1127 m 0
 551 1127 504 1074 504 1021 c 0
 504 978 537 948 579 948 c 0
 630 948 686 994 686 1053 c 0
 686 1096 653 1127 611 1127 c 0
EndSplineSet
EndChar
StartChar: uni0E1E
Encoding: 3614 3614 153
Width: 1552
VWidth: 2045
Flags: W
HStem: 0 21G<356 546.388 1186.66 1373.52> 814 134<408.288 498.975> 1127 133<426.761 577.486>
VStem: 265 138<955.737 1103.74> 584 138<1002.57 1119.95>
Fore
265 1000 m 0
 265 1131 388 1260 532 1260 c 0
 642 1260 722 1182 722 1075 c 0
 722 1062 721 1049 719 1036 c 2
 614 453 l 1
 1025 1254 l 1
 1141 1254 l 1
 1270 454 l 1
 1411 1254 l 1
 1591 1254 l 1
 1370 0 l 1
 1190 0 l 1
 1031 953 l 1
 536 0 l 1
 356 0 l 1
 500 819 l 1
 485 816 469 814 454 814 c 0
 340 814 265 896 265 1000 c 0
478 948 m 0
 526 948 584 989 584 1053 c 0
 584 1097 553 1127 510 1127 c 0
 450 1127 403 1074 403 1021 c 0
 403 977 437 948 478 948 c 0
EndSplineSet
EndChar
StartChar: uni0E1F
Encoding: 3615 3615 154
Width: 1552
VWidth: 2045
Flags: W
HStem: 0 21G<356 546.388 1186.66 1373.53> 814 134<408.288 498.975> 1127 133<426.761 577.642>
VStem: 265 138<955.737 1103.74> 584 138<1002.57 1119.8>
AnchorPoint: "AboveBase" 1262 1400 basechar 0
Fore
265 1000 m 0
 265 1131 388 1260 532 1260 c 0
 643 1260 722 1181 722 1075 c 0
 722 1062 721 1049 719 1036 c 2
 614 453 l 1
 1025 1254 l 1
 1141 1254 l 1
 1270 454 l 1
 1513 1832 l 1
 1693 1832 l 1
 1370 0 l 1
 1190 0 l 1
 1031 953 l 1
 536 0 l 1
 356 0 l 1
 500 819 l 1
 485 816 469 814 454 814 c 0
 340 814 265 896 265 1000 c 0
478 948 m 0
 526 948 584 989 584 1053 c 0
 584 1097 553 1127 510 1127 c 0
 450 1127 403 1074 403 1021 c 0
 403 977 437 948 478 948 c 0
EndSplineSet
EndChar
StartChar: uni0E20
Encoding: 3616 3616 155
Width: 1465
VWidth: 2045
Flags: W
HStem: -8 134<264.502 416.805> 305 133<282.986 423.942> 744 178<668 757> 1101 178<752.469 1090.73>
VStem: 121 138<133.506 280.9> 1223 180<703.29 744 744 776.523 776.523 776.564 776.543 966.891>
Fore
121 177 m 0
 121 309 243 438 389 438 c 0
 408 438 423 436 433 433 c 1
 488 744 l 1
 324 744 l 1
 376 1038 662 1279 958 1279 c 0
 1229 1279 1411 1083 1411 836 c 0
 1411 806 1409 775 1403 744 c 2
 1272 0 l 1
 1092 0 l 1
 1223 744 l 2
 1227 766 1229 788 1229 809 c 0
 1229 981 1099 1101 927 1101 c 0
 791 1101 662 1023 584 922 c 1
 789 922 l 1
 757 744 l 1
 668 744 l 1
 575 216 l 2
 552 87 431 -8 311 -8 c 0
 194 -8 121 74 121 177 c 0
334 126 m 0
 384 126 440 171 440 232 c 0
 440 275 407 305 366 305 c 0
 313 305 259 258 259 200 c 0
 259 156 291 126 334 126 c 0
EndSplineSet
EndChar
StartChar: uni0E21
Encoding: 3617 3617 156
Width: 1422
VWidth: 2045
Flags: W
HStem: -8 134<291.418 445.53> 305 133<308.021 450.336> 814 134<438.645 524.569> 1127 133<452.737 605.311>
VStem: 148 138<131.233 283.799> 294 137<955.497 1104.92> 612 137<1002.79 1121.29>
Fore
294 999 m 0
 294 1137 421 1260 560 1260 c 0
 667 1260 749 1186 749 1077 c 0
 749 1064 747 1050 745 1036 c 2
 627 369 l 1
 1066 168 l 1
 1257 1254 l 1
 1437 1254 l 1
 1216 0 l 1
 1036 0 l 1
 597 201 l 17
 574 99 469 -8 337 -8 c 0
 223 -8 148 74 148 178 c 0
 148 318 278 438 414 438 c 0
 433 438 448 436 460 433 c 1
 526 819 l 1
 511 816 496 814 482 814 c 0
 366 814 294 896 294 999 c 0
360 126 m 0
 422 126 467 181 467 230 c 0
 467 274 433 305 392 305 c 0
 338 305 286 258 286 200 c 0
 286 156 317 126 360 126 c 0
506 948 m 0
 561 948 612 995 612 1054 c 0
 612 1098 581 1127 537 1127 c 0
 482 1127 431 1080 431 1021 c 0
 431 978 463 948 506 948 c 0
EndSplineSet
EndChar
StartChar: uni0E22
Encoding: 3618 3618 157
Width: 1321
VWidth: 2045
Flags: W
HStem: 0 178<439 968> 520 178<556.435 774> 816 133<566.116 710.517> 1127 133<571.553 724.211>
VStem: 276 175<732.66 884.091> 732 139<969.579 1121.81>
Fore
612 816 m 0
 593 816 492 815 455 888 c 1
 452 872 451 857 451 843 c 0
 451 753 507 698 602 698 c 2
 805 698 l 1
 774 520 l 1
 579 520 l 2
 565 520 495 491 483 427 c 2
 439 178 l 1
 968 178 l 1
 1158 1254 l 1
 1338 1254 l 1
 1117 0 l 1
 228 0 l 1
 310 465 l 2
 320 521 345 565 385 597 c 1
 362 608 276 696 276 817 c 0
 276 1006 424 1260 669 1260 c 0
 804 1260 871 1174 871 1078 c 0
 871 947 749 816 612 816 c 0
626 949 m 0
 689 949 732 1003 732 1054 c 0
 732 1097 701 1127 659 1127 c 0
 610 1127 550 1087 550 1022 c 0
 550 978 582 949 626 949 c 0
EndSplineSet
EndChar
StartChar: uni0E23
Encoding: 3619 3619 158
Width: 1172
VWidth: 2045
Flags: W
HStem: -8 134<548.496 701.671> 305 133<565.958 707.247> 744 178<475 717.762> 1101 178<641.866 982.481>
VStem: 405 138<133.824 280.359> 758 183<653.632 735.999>
Fore
618 126 m 0
 674 126 724 177 724 230 c 0
 724 274 690 305 650 305 c 0
 597 305 543 258 543 200 c 0
 543 156 575 126 618 126 c 0
405 178 m 0
 405 319 537 438 672 438 c 0
 691 438 707 436 717 433 c 1
 756 653 l 2
 757 661 758 668 758 675 c 0
 758 730 714 744 679 744 c 2
 216 744 l 1
 269 1043 555 1279 850 1279 c 0
 1067 1279 1208 1162 1270 1013 c 1
 1098 924 l 1
 1078 971 1005 1101 818 1101 c 0
 631 1101 511 968 475 922 c 1
 707 922 l 2
 811 922 941 858 941 706 c 0
 941 690 939 672 936 653 c 2
 859 216 l 2
 837 91 719 -8 594 -8 c 0
 480 -8 405 74 405 178 c 0
EndSplineSet
EndChar
StartChar: uni0E24
Encoding: 3620 3620 159
Width: 1367
VWidth: 2045
Flags: W
HStem: -8 134<443.961 596.663> 305 133<521.521 613.415> 744 178<576 668> 1101 178<681.186 1021.04>
VStem: 300 138<133.161 248.587> 620 138<148.132 298.164> 1155 180<703.287 744 744 776.023 776.023 776.564 776.293 963.469>
Fore
512 126 m 0
 569 126 620 176 620 230 c 0
 620 274 586 305 544 305 c 0
 490 305 438 257 438 199 c 0
 438 156 470 126 512 126 c 0
256 744 m 1
 396 744 l 1
758 255 m 0
 758 114 627 -8 490 -8 c 0
 376 -8 300 74 300 177 c 0
 300 189 301 201 303 214 c 2
 396 744 l 1
 256 744 l 1
 308 1036 589 1279 891 1279 c 0
 1156 1279 1343 1086 1343 836 c 0
 1343 806 1341 775 1335 744 c 2
 1107 -551 l 1
 927 -551 l 1
 1155 744 l 2
 1159 766 1161 787 1161 808 c 0
 1161 974 1040 1101 859 1101 c 0
 672 1101 551 969 517 922 c 1
 700 922 l 1
 668 744 l 1
 576 744 l 1
 521 433 l 1
 533 436 549 438 568 438 c 0
 679 438 758 360 758 255 c 0
EndSplineSet
EndChar
StartChar: uni0E25
Encoding: 3621 3621 160
Width: 1385
VWidth: 2045
Flags: W
HStem: -8 134<429.375 581.78> 305 133<507.484 598.423> 675 178<598.763 930.097> 1101 178<663.593 1005.85>
VStem: 236 180<775.332 950.445> 284 139<132.751 247.845> 605 138<148.3 298.164> 1140 183<749.912 965.738>
Fore
743 255 m 0xfb
 743 114 612 -8 475 -8 c 0
 363 -8 284 72 284 176 c 0xf7
 284 188 286 201 288 214 c 2
 337 495 l 2
 376 716 557 853 795 853 c 0
 892 853 967 836 1020 803 c 0
 1072 770 1109 741 1130 718 c 9
 1134 744 l 2
 1138 766 1140 788 1140 809 c 0
 1140 980 1013 1101 839 1101 c 0
 641 1101 451 942 416 744 c 1
 236 744 l 1
 289 1041 574 1279 871 1279 c 0
 1125 1279 1323 1101 1323 840 c 0
 1323 809 1320 777 1314 744 c 2
 1183 0 l 1
 1003 0 l 1
 1059 317 l 2
 1063 339 1065 361 1065 382 c 0
 1065 554 937 675 764 675 c 0
 609 675 536 603 517 496 c 2
 506 433 l 1
 519 436 534 438 553 438 c 0
 664 438 743 360 743 255 c 0xfb
498 126 m 0
 549 126 605 172 605 230 c 0
 605 274 571 305 530 305 c 0
 479 305 423 257 423 200 c 0
 423 159 452 126 498 126 c 0
EndSplineSet
EndChar
StartChar: uni0E26
Encoding: 3622 3622 161
Width: 1504
VWidth: 2045
Flags: W
HStem: -8 134<294.502 446.805> 305 133<312.986 453.942> 744 178<698 787> 1101 178<782.469 1119.28>
VStem: 151 138<133.506 280.9> 1253 180<703.318 744 744 774.523 774.523 776.564 775.543 961.438>
Fore
151 177 m 0
 151 309 273 438 419 438 c 0
 438 438 453 436 463 433 c 1
 518 744 l 1
 354 744 l 1
 406 1038 692 1279 988 1279 c 0
 1259 1279 1441 1083 1441 836 c 0
 1441 806 1439 775 1433 744 c 2
 1205 -550 l 1
 1025 -551 l 1
 1253 744 l 2
 1257 765 1258 785 1258 805 c 0
 1258 969 1137 1101 957 1101 c 0
 821 1101 692 1023 614 922 c 1
 819 922 l 1
 787 744 l 1
 698 744 l 1
 605 216 l 2
 582 87 461 -8 341 -8 c 0
 224 -8 151 74 151 177 c 0
364 126 m 0
 414 126 470 171 470 232 c 0
 470 275 437 305 396 305 c 0
 343 305 289 258 289 200 c 0
 289 156 321 126 364 126 c 0
EndSplineSet
EndChar
StartChar: uni0E27
Encoding: 3623 3623 162
Width: 1174
VWidth: 2045
Flags: W
HStem: -8 134<727.956 881.271> 305 133<743.63 887.685> 1096 180<588.168 879.276>
VStem: 244 181<860.114 1014.15> 585 137<132.248 281.094> 971 183<829.984 1008.58>
Fore
585 176 m 0
 585 311 706 438 854 438 c 0
 872 438 887 436 897 433 c 1
 967 829 l 2
 970 845 971 861 971 876 c 0
 971 1003 874 1096 743 1096 c 0
 591 1096 451 978 425 829 c 1
 244 829 l 17
 286 1066 514 1276 775 1276 c 0
 1006 1276 1154 1110 1154 906 c 0
 1154 881 1152 855 1147 829 c 2
 1039 216 l 2
 1017 89 896 -8 774 -8 c 0
 662 -8 585 71 585 176 c 0
797 126 m 0
 856 126 904 178 904 230 c 0
 904 270 876 305 829 305 c 0
 777 305 722 258 722 199 c 0
 722 159 749 126 797 126 c 0
EndSplineSet
EndChar
StartChar: uni0E28
Encoding: 3624 3624 163
Width: 1398
VWidth: 2045
Flags: W
HStem: 0 21G<161 351.888 1040 1223.52> 453 133<720.024 873.357> 764 133<736.101 890.086> 1088 180<707.177 1045.09>
VStem: 896 139<608.542 747.804> 1176 182<739.458 846.359> 1365 178<1133.22 1338>
Fore
1035 715 m 0
 1035 574 902 453 768 453 c 0
 703 453 656 474 623 518 c 1
 341 0 l 1
 161 0 l 1
 290 734 l 2
 354 1095 666 1268 915 1268 c 0
 1091 1268 1174 1209 1261 1109 c 1
 1316 1178 1350 1254 1365 1338 c 1
 1543 1338 l 1
 1512 1163 1413 1025 1341 953 c 1
 1352 914 1358 873 1358 830 c 0
 1358 799 1355 767 1349 734 c 2
 1220 0 l 1
 1040 0 l 1
 1169 733 l 2
 1174 757 1176 779 1176 800 c 0
 1176 807 1176 814 1175 820 c 1
 1121 789 1072 768 1029 757 c 1
 1033 744 1035 730 1035 715 c 0
1115 976 m 1
 1063 1052 988 1088 886 1088 c 0
 662 1088 503 915 470 734 c 2
 398 322 l 1
 618 769 l 2
 627 789 704 896 844 897 c 0
 957 898 1048 925 1115 976 c 1
790 586 m 0
 842 586 896 633 896 690 c 0
 896 731 867 764 821 764 c 0
 766 764 714 715 714 660 c 0
 714 615 749 586 790 586 c 0
EndSplineSet
EndChar
StartChar: uni0E29
Encoding: 3625 3625 164
Width: 1505
VWidth: 2045
Flags: W
HStem: 0 178<321 412 590 1112> 384 193<805.631 1055.43> 755 133<822.323 975.638> 814 134<433.288 523.488> 1127 133<451.761 602.754>
VStem: 290 138<955.737 1103.74> 609 139<1002.73 1119.73> 982 139<599.015 749.272>
Fore
290 1000 m 0xdf
 290 1131 413 1260 557 1260 c 0
 669 1260 748 1181 748 1075 c 0
 748 1063 746 1049 744 1036 c 2
 688 733 l 1
 704 767 775 888 930 888 c 0xef
 1040 888 1121 805 1121 710 c 0
 1121 658 1093 585 1037 547 c 1
 1049 547 l 0
 1095 547 1140 558 1183 580 c 9
 1302 1254 l 1
 1482 1254 l 1
 1403 808 l 1
 1529 713 l 1
 1473 627 1414 560 1351 511 c 1
 1261 0 l 1
 290 0 l 1
 321 178 l 1
 412 178 l 1
 525 819 l 1
 508 816 493 814 479 814 c 0
 365 814 290 896 290 1000 c 0xdf
1153 411 m 17
 1092 393 1030 384 967 384 c 0
 846 386 763 416 718 474 c 0
 686 516 668 557 664 597 c 1
 590 178 l 1
 1112 178 l 1
 1153 411 l 17
875 577 m 0
 934 577 982 628 982 683 c 0
 982 723 953 755 906 755 c 0
 844 755 799 700 799 651 c 0
 799 610 828 577 875 577 c 0
503 948 m 0xdf
 556 948 609 995 609 1053 c 0
 609 1096 577 1127 535 1127 c 0
 475 1127 428 1074 428 1021 c 0
 428 977 462 948 503 948 c 0xdf
EndSplineSet
EndChar
StartChar: uni0E2A
Encoding: 3626 3626 165
Width: 1385
VWidth: 2045
Flags: W
HStem: -8 134<429.375 581.78> 305 133<507.484 598.423> 675 178<600.326 928.343> 1101 178<663.593 1002.19>
VStem: 236 180<775.332 950.445> 284 139<132.751 247.845> 605 138<148.3 298.164> 1144 179<709 744 744 773.588 773.588 777.304 777.304 817>
Fore
1144 817 m 1xf3
 1118 800 1089 785 1058 773 c 1
 1086 756 1110 735 1128 709 c 1
 1134 744 l 2
 1141 781 1144 806 1144 817 c 1xf3
743 255 m 0
 743 114 612 -8 475 -8 c 0
 363 -8 284 72 284 176 c 0xf7
 284 188 286 201 288 214 c 2
 337 495 l 2
 376 716 557 853 795 853 c 0
 910 853 1001 887 1103 954 c 1
 1081 989 1013 1101 839 1101 c 0
 641 1101 451 942 416 744 c 1
 236 744 l 1xfb
 289 1041 574 1279 871 1279 c 0
 1037 1279 1165 1204 1243 1098 c 1
 1287 1161 1315 1229 1327 1300 c 1
 1505 1300 l 1
 1479 1151 1416 1036 1316 927 c 1
 1321 900 1323 872 1323 844 c 0
 1323 812 1320 778 1314 744 c 2
 1183 0 l 1
 1003 0 l 1
 1059 317 l 2
 1063 339 1065 361 1065 381 c 0
 1065 555 935 675 764 675 c 0
 609 675 536 603 517 496 c 2
 506 433 l 1
 519 436 534 438 553 438 c 0
 664 438 743 360 743 255 c 0
498 126 m 0
 549 126 605 172 605 230 c 0
 605 274 571 305 530 305 c 0
 479 305 423 257 423 200 c 0
 423 159 452 126 498 126 c 0
EndSplineSet
EndChar
StartChar: uni0E2B
Encoding: 3627 3627 166
Width: 1507
VWidth: 2045
Flags: W
HStem: 0 21G<366 559.983 1120 1303.51> 814 134<418.288 508.929> 1127 133<443.871 582.764 1193.04 1344.96>
VStem: 275 138<955.737 1103.74> 594 138<1002.57 1119.95> 1032 138<963.318 1115.95> 1238 177<629.3 679.977 679.977 691.569 685.773 766.588> 1352 137<1006.68 1129.45>
Fore
1245 958 m 0xfd
 1307 958 1352 1013 1352 1064 c 0
 1352 1108 1318 1137 1276 1137 c 0
 1218 1137 1170 1089 1170 1029 c 0
 1170 986 1201 958 1245 958 c 0xfd
1032 1006 m 0
 1032 1152 1164 1270 1300 1270 c 0
 1406 1270 1489 1197 1489 1089 c 0xfd
 1489 1051 1478 947 1369 874 c 1
 1404 838 1422 789 1422 728 c 0
 1422 705 1420 681 1415 655 c 2
 1300 0 l 1
 1120 0 l 1
 1238 670 l 2xfe
 1239 676 1240 683 1240 690 c 0
 1240 729 1221 777 1146 777 c 0
 1108 777 1075 757 1048 718 c 2
 546 0 l 1
 366 0 l 1
 510 819 l 1
 493 816 478 814 464 814 c 0
 350 814 275 896 275 1000 c 0
 275 1131 398 1260 542 1260 c 0
 652 1260 732 1182 732 1075 c 0
 732 1062 731 1049 729 1036 c 2
 602 316 l 1
 920 783 l 2
 960 841 1005 885 1056 915 c 1
 1040 942 1032 972 1032 1006 c 0
488 948 m 0
 536 948 594 989 594 1053 c 0
 594 1097 563 1127 520 1127 c 0
 460 1127 413 1074 413 1021 c 0
 413 977 447 948 488 948 c 0
EndSplineSet
EndChar
StartChar: uni0E2C
Encoding: 3628 3628 167
Width: 1654
VWidth: 2045
Flags: W
HStem: 0 21G<366 557.24 1195.8 1383.53> 814 134<418.288 508.975> 1127 133<436.761 588.109 1303.2 1397.28> 1430 134<1323.02 1474.88>
VStem: 275 138<955.737 1103.74> 594 138<1002.57 1121.27> 1161 138<1258.43 1406.1>
AnchorPoint: "AboveBase" 1085 1460 basechar 0
Fore
1161 1302 m 0
 1161 1434 1281 1564 1430 1564 c 0
 1543 1564 1590 1485 1601 1462 c 1
 1703 1548 l 1
 1807 1421 l 1
 1600 1246 l 1
 1380 0 l 1
 1200 0 l 1
 1022 847 l 1
 546 0 l 1
 366 0 l 1
 510 819 l 1
 495 816 479 814 464 814 c 0
 350 814 275 896 275 1000 c 0
 275 1131 398 1260 542 1260 c 0
 656 1260 732 1178 732 1074 c 0
 732 1062 731 1049 729 1036 c 2
 620 430 l 1
 1011 1118 l 1
 1127 1118 l 1
 1276 432 l 1
 1398 1122 l 1
 1383 1119 1368 1118 1351 1118 c 0
 1242 1118 1161 1196 1161 1302 c 0
1374 1252 m 0
 1430 1252 1482 1300 1482 1356 c 0
 1482 1397 1452 1430 1406 1430 c 0
 1344 1430 1299 1373 1299 1325 c 0
 1299 1285 1328 1252 1374 1252 c 0
488 948 m 0
 536 948 594 989 594 1053 c 0
 594 1097 563 1127 520 1127 c 0
 460 1127 413 1074 413 1021 c 0
 413 977 447 948 488 948 c 0
EndSplineSet
EndChar
StartChar: uni0E2D
Encoding: 3629 3629 168
Width: 1364
VWidth: 2045
Flags: W
HStem: 0 178<547 1026> 454 133<606.24 749.188> 765 134<611.552 767.65> 1101 178<654.413 993.376>
VStem: 227 180<775.417 951.294> 773 136<609.122 758.172> 1132 182<746.509 961.354>
Fore
909 715 m 0
 909 575 778 454 642 454 c 0
 627 454 612 455 599 457 c 1
 547 178 l 1
 1026 178 l 1
 1126 743 l 2
 1130 765 1132 786 1132 807 c 0
 1132 977 1005 1101 829 1101 c 0
 632 1101 442 941 407 744 c 1
 227 744 l 1
 280 1043 566 1279 861 1279 c 0
 1127 1279 1314 1088 1314 836 c 0
 1314 806 1312 775 1306 743 c 2
 1175 0 l 1
 337 0 l 1
 457 678 l 2
 477 796 591 899 721 899 c 0
 836 899 909 817 909 715 c 0
697 765 m 0
 632 765 591 709 591 660 c 0
 591 619 619 587 666 587 c 0
 724 587 773 637 773 694 c 0
 773 735 744 765 697 765 c 0
EndSplineSet
EndChar
StartChar: uni0E2E
Encoding: 3630 3630 169
Width: 1298
VWidth: 2045
Flags: W
HStem: 0 178<412 929> 306 133<444.428 588.495> 617 133<451.351 605.118> 800 160<553.483 861.666> 1104 175<532.784 898.267>
VStem: 293 213<978.098 1072.85> 612 137<461.365 610.105> 1034 183<746.486 874.633>
Fore
726 1104 m 0
 548 1104 506 1052 506 1017 c 0
 506 971 614 960 703 960 c 0
 791 960 874 978 952 1014 c 1
 899 1074 823 1104 726 1104 c 0
749 567 m 0
 749 427 618 306 481 306 c 0
 464 306 449 307 435 309 c 1
 412 178 l 1
 929 178 l 1
 1029 743 l 2
 1033 764 1034 784 1034 804 c 0
 1034 830 1032 854 1026 878 c 1
 920 825 800 800 647 800 c 0
 375 800 293 940 293 1008 c 0
 293 1085 420 1279 771 1279 c 0
 957 1279 1076 1173 1117 1123 c 1
 1168 1170 1207 1221 1233 1276 c 1
 1371 1194 l 1
 1330 1120 1271 1051 1192 987 c 1
 1209 940 1217 889 1217 837 c 0
 1217 806 1215 775 1209 743 c 2
 1078 0 l 1
 201 0 l 1
 294 528 l 2
 316 652 434 750 559 750 c 0
 670 750 749 672 749 567 c 0
535 617 m 0
 474 617 429 562 429 512 c 0
 429 468 462 439 503 439 c 0
 552 439 612 481 612 544 c 0
 612 585 581 617 535 617 c 0
EndSplineSet
EndChar
StartChar: uni0E2F
Encoding: 3631 3631 170
Width: 1295
VWidth: 2045
Flags: W
HStem: 0 21G<919 1102.52> 719 174<517.444 896.339> 1118 134<453.978 604.62>
VStem: 293 137<947.137 1095.35> 612 139<959.977 1111.31>
Fore
293 985 m 0
 293 1118 412 1252 561 1252 c 0
 678 1252 751 1171 751 1068 c 0
 751 1001 722 944 670 899 c 1
 689 894 704 893 719 893 c 0
 914 893 1105 1054 1140 1252 c 1
 1140 1254 l 1
 1320 1254 l 1
 1099 0 l 1
 919 0 l 1
 1069 853 l 1
 1004 798 858 719 630 719 c 0
 364 719 293 877 293 985 c 0
507 940 m 0
 570 940 612 996 612 1045 c 0
 612 1088 581 1118 538 1118 c 0
 474 1118 430 1062 430 1015 c 0
 430 976 457 940 507 940 c 0
EndSplineSet
EndChar
StartChar: uni0E30
Encoding: 3632 3632 171
Width: 1158
VWidth: 2045
Flags: W
HStem: 45 193<293.897 572.485> 45 163<526 693.037> 417 133<310.635 464.987> 665 193<402.511 680.349> 665 163<635 801.303> 1036 133<419.915 574.092>
VStem: 153 135<244.791 392.623> 261 136<864.481 1011.98> 471 139<260.037 410.041> 580 139<880.094 1029.52>
Fore
719 990 m 0x3540
 719 937 692 864 635 828 c 1
 649 828 l 2x2d40
 820 828 928 965 1002 1089 c 1
 1126 994 l 1
 1032 847 868 665 569 665 c 0
 325 665 261 798 261 900 c 0
 261 1033 373 1169 528 1169 c 0
 642 1169 719 1082 719 990 c 0x3540
473 858 m 0x3540
 529 858 580 906 580 962 c 0
 580 1002 553 1036 505 1036 c 0
 447 1036 397 986 397 929 c 0
 397 888 427 858 473 858 c 0x3540
610 371 m 0xa680
 610 318 583 246 526 208 c 1
 538 208 l 2x6680
 709 208 816 342 893 470 c 1
 1017 375 l 1
 926 233 761 45 464 45 c 0
 196 45 153 194 153 281 c 0
 153 426 276 550 419 550 c 0
 533 550 610 463 610 371 c 0xa680
364 238 m 0xa680
 418 238 471 285 471 343 c 0
 471 386 438 417 396 417 c 0
 344 417 288 372 288 310 c 0
 288 266 321 238 364 238 c 0xa680
EndSplineSet
EndChar
StartChar: uni0E31
Encoding: 3633 3633 172
Width: 0
VWidth: 2045
Flags: W
HStem: 1378 193<-381.356 -82.3955> 1378 163<-150 59.6558> 1749 133<-367.197 -214.163>
VStem: -524 135<1577.62 1726.05> -206 139<1592.3 1742.54>
AnchorPoint: "AboveMark" 26 2070 basemark 0
AnchorPoint: "AboveBase" -42 1339 mark 0
Fore
-67 1703 m 0xb8
 -67 1646 -97 1575 -150 1541 c 1
 -134 1541 l 2x78
 23 1541 169 1615 315 1802 c 1
 440 1707 l 1
 206 1405 -61 1378 -211 1378 c 0
 -475 1378 -524 1531 -524 1619 c 0
 -524 1744 -415 1882 -258 1882 c 0
 -141 1882 -67 1796 -67 1703 c 0xb8
-313 1571 m 0xb8
 -251 1571 -206 1626 -206 1673 c 0
 -206 1713 -232 1749 -282 1749 c 0
 -344 1749 -389 1696 -389 1643 c 0
 -389 1603 -360 1571 -313 1571 c 0xb8
EndSplineSet
EndChar
StartChar: uni0E32
Encoding: 3634 3634 173
Width: 1169
VWidth: 2045
Flags: W
HStem: 0 21G<798 981.522> 1096 180<565.959 861.162>
VStem: 221 181<860.868 1011.6> 944 180<788.299 853 853 867.523 860.262 1010.04>
Fore
751 1276 m 0
 975 1276 1131 1114 1131 906 c 0
 1131 881 1129 855 1124 829 c 2
 978 0 l 1
 798 0 l 1
 944 829 l 2
 947 845 948 861 948 877 c 0
 948 1006 850 1096 719 1096 c 0
 562 1096 428 974 402 829 c 1
 221 829 l 1
 265 1075 502 1276 751 1276 c 0
EndSplineSet
EndChar
StartChar: uni0E34
Encoding: 3636 3636 175
Width: 0
VWidth: 2045
Flags: W
HStem: 1726 174<-517.261 -245.545>
AnchorPoint: "AboveMark" 115 2070 basemark 0
AnchorPoint: "AboveBase" 73 1339 mark 0
Fore
-145 1587 m 1
 -162 1616 -233 1720 -405 1726 c 0
 -440 1726 -601 1694 -651 1636 c 9
 -145 1587 l 1
-963 1507 m 17
 -824 1807 -545 1900 -377 1900 c 0
 -145 1900 78 1750 78 1449 c 0
 78 1435 78 1422 77 1408 c 1
 -963 1507 l 17
EndSplineSet
EndChar
StartChar: uni0E35
Encoding: 3637 3637 176
Width: 0
VWidth: 2045
Flags: MW
HStem: 1723 174<-517.839 -243.457>
AnchorPoint: "AboveBase" 77 1339 mark 0
AnchorPoint: "AboveMark" 115 2070 basemark 0
Fore
-964 1504 m 1
 -825 1804 -546 1897 -378 1897 c 0
 -225 1897 -105 1824 -21 1741 c 9
 32 2040 l 1
 189 2040 l 1
 77 1405 l 1
 -964 1504 l 1
-146 1584 m 1
 -163 1613 -233 1717 -405 1723 c 0
 -440 1723 -602 1691 -651 1633 c 9
 -146 1584 l 1
EndSplineSet
EndChar
StartChar: uni0E36
Encoding: 3638 3638 177
Width: 0
VWidth: 2045
Flags: MW
HStem: 1721 174<-518.252 -275.24> 1971 133<-98.1838 53.5982>
VStem: 60 138<1815.94 1964.74>
AnchorPoint: "AboveBase" 62 1339 mark 0
AnchorPoint: "AboveMark" 2 2070 basemark 0
Fore
198 1921 m 0
 198 1815 121 1716 23 1677 c 1
 59 1612 77 1535 77 1447 c 0
 77 1433 77 1418 76 1403 c 1
 -964 1502 l 1
 -825 1802 -546 1895 -378 1895 c 0
 -329 1895 -279 1886 -256 1881 c 1
 -235 2002 -122 2104 8 2104 c 0
 119 2104 198 2027 198 1921 c 0
-47 1793 m 0
 6 1793 60 1841 60 1896 c 0
 60 1936 33 1971 -15 1971 c 0
 -76 1971 -123 1915 -123 1865 c 0
 -123 1821 -86 1793 -47 1793 c 0
-146 1582 m 1
 -163 1611 -234 1715 -406 1721 c 0
 -441 1721 -602 1689 -651 1631 c 9
 -146 1582 l 1
EndSplineSet
EndChar
StartChar: uni0E37
Encoding: 3639 3639 178
Width: 0
VWidth: 2045
Flags: MW
HStem: 1728 174<-516.839 -274.034>
AnchorPoint: "AboveMark" -3 2070 basemark 0
AnchorPoint: "AboveBase" 61 1339 mark 0
Fore
-963 1509 m 1
 -824 1809 -545 1902 -377 1902 c 0
 -327 1902 -281 1894 -233 1879 c 1
 -203 2045 l 1
 -46 2045 l 1
 -89 1806 l 17
 -62 1785 -40 1765 -20 1746 c 1
 33 2045 l 1
 190 2045 l 1
 78 1410 l 1
 -963 1509 l 1
-145 1589 m 1
 -162 1618 -232 1722 -404 1728 c 0
 -439 1728 -601 1696 -650 1638 c 9
 -145 1589 l 1
EndSplineSet
EndChar
StartChar: uni0E38
Encoding: 3640 3640 179
Width: 0
VWidth: 2045
Flags: W
HStem: -532 133<-522.97 -443.452 -454.546 -432.357> -221 134<-506.062 -352.143>
VStem: -669 140<-392.378 -241.047> -347 138<-342.023 -226.566>
AnchorPoint: "BelowBase" -175 -88 mark 0
Fore
-669 -349 m 0
 -669 -217 -548 -87 -399 -87 c 0
 -281 -87 -209 -172 -209 -272 c 0
 -209 -284 -210 -296 -212 -308 c 2
 -291 -755 l 1
 -471 -755 l 9
 -431 -529 l 1
 -448 -531 -463 -532 -478 -532 c 0
 -590 -532 -669 -454 -669 -349 c 0
-454 -399 m 0
 -403 -399 -347 -352 -347 -294 c 0
 -347 -253 -376 -221 -423 -221 c 0
 -482 -221 -529 -271 -529 -325 c 0
 -529 -366 -498 -399 -454 -399 c 0
EndSplineSet
EndChar
StartChar: uni0E39
Encoding: 3641 3641 180
Width: 0
VWidth: 2045
Flags: W
HStem: -775 156<-603 -440> -532 133<-859.43 -779.273 -790.5 -768.046> -221 134<-844.871 -687.917>
VStem: -1003 138<-391.448 -243.901> -683 138<-341.962 -228.132>
AnchorPoint: "BelowBase" -127 -85 mark 0
Fore
-1003 -348 m 0
 -1003 -217 -883 -87 -735 -87 c 0
 -616 -87 -545 -170 -545 -271 c 0
 -545 -283 -546 -295 -548 -308 c 2
 -603 -619 l 1
 -440 -619 l 1
 -346 -85 l 1
 -166 -85 l 1
 -288 -775 l 1
 -811 -775 l 25
 -767 -529 l 1
 -783 -531 -798 -532 -814 -532 c 0
 -927 -532 -1003 -452 -1003 -348 c 0
-790 -399 m 0
 -738 -399 -683 -352 -683 -293 c 0
 -683 -253 -711 -221 -759 -221 c 0
 -814 -221 -865 -267 -865 -326 c 0
 -865 -371 -829 -399 -790 -399 c 0
EndSplineSet
EndChar
StartChar: uni0E3A
Encoding: 3642 3642 181
Width: 0
VWidth: 2045
Flags: W
HStem: -438 356<-514.693 -321.328>
VStem: -600 366<-348.719 -166.932>
AnchorPoint: "BelowBase" -200 -86 mark 0
Fore
-234 -227 m 0
 -234 -333 -330 -438 -447 -438 c 0
 -535 -438 -600 -376 -600 -290 c 0
 -600 -176 -497 -82 -384 -82 c 0
 -291 -82 -234 -146 -234 -227 c 0
EndSplineSet
EndChar
StartChar: uni0E3F
Encoding: 3647 3647 182
Width: 1364
VWidth: 2045
Flags: W
HStem: 0 172<375 550 737 982.622> 669 174<494 668 856 1047.61> 1278 172<570 775 963 1120.98>
VStem: 1134 202<367.405 592.556> 1185 196<1013.64 1219.88>
Fore
1381 1146 m 0xe8
 1381 1045 1332 869 1116 772 c 1
 1247 734 1336 636 1336 490 c 0xf0
 1336 349 1255 0 707 0 c 9
 684 -131 l 1
 527 -131 l 1
 550 0 l 1
 165 0 l 1
 421 1450 l 1
 806 1450 l 1
 832 1598 l 1
 989 1598 l 1
 963 1450 l 1
 1317 1448 1381 1270 1381 1146 c 0xe8
856 843 m 17
 955 846 1144 852 1180 1056 c 0
 1183 1075 1185 1093 1185 1109 c 0xe8
 1185 1266 1030 1271 932 1276 c 1
 856 843 l 17
737 172 m 17
 891 172 1089 194 1129 420 c 0
 1132 440 1134 458 1134 475 c 0xf0
 1134 628 998 664 825 669 c 1
 737 172 l 17
580 172 m 25
 668 669 l 1
 463 669 l 1
 375 172 l 1
 580 172 l 25
698 841 m 25
 775 1278 l 1
 570 1278 l 1
 494 843 l 1
 698 841 l 25
EndSplineSet
EndChar
StartChar: uni0E40
Encoding: 3648 3648 183
Width: 706
VWidth: 2045
Flags: W
HStem: -8 134<364.832 518.617> 305 133<445.197 534.961> 1234 20G<405.481 589>
VStem: 223 136<133.288 248.912> 541 137<149.55 298.754>
Fore
434 126 m 0
 487 126 541 173 541 231 c 0
 541 270 515 305 466 305 c 0
 402 305 359 248 359 200 c 0
 359 160 388 126 434 126 c 0
678 256 m 0
 678 118 551 -8 411 -8 c 0
 295 -8 223 75 223 176 c 0
 223 188 224 201 226 214 c 2
 409 1254 l 1
 589 1254 l 1
 444 433 l 1
 457 436 472 438 489 438 c 0
 602 438 678 359 678 256 c 0
EndSplineSet
EndChar
StartChar: uni0E41
Encoding: 3649 3649 184
Width: 1277
VWidth: 2045
Flags: W
HStem: -8 134<344.832 498.617 932.219 1083.53> 305 133<425.197 514.961 1009.99 1101.42> 1234 20G<385.481 569 970.481 1154>
VStem: 203 136<133.288 248.912> 521 137<149.55 298.754> 787 139<132.504 247.999> 1108 138<150.368 298.164>
Fore
1001 126 m 0
 1046 126 1108 168 1108 230 c 0
 1108 274 1074 305 1033 305 c 0
 979 305 926 258 926 200 c 0
 926 160 955 126 1001 126 c 0
1246 255 m 0
 1246 123 1123 -8 978 -8 c 0
 865 -8 787 72 787 175 c 0
 787 188 789 201 791 214 c 2
 974 1254 l 1
 1154 1254 l 1
 1009 433 l 1
 1021 436 1037 438 1056 438 c 0
 1167 438 1246 360 1246 255 c 0
414 126 m 0
 467 126 521 173 521 231 c 0
 521 270 495 305 446 305 c 0
 382 305 339 248 339 200 c 0
 339 160 368 126 414 126 c 0
658 256 m 0
 658 118 531 -8 391 -8 c 0
 275 -8 203 75 203 176 c 0
 203 188 204 201 206 214 c 2
 389 1254 l 1
 569 1254 l 1
 424 433 l 1
 437 436 452 438 469 438 c 0
 582 438 658 359 658 256 c 0
EndSplineSet
EndChar
StartChar: uni0E42
Encoding: 3650 3650 185
Width: 852
VWidth: 2045
Flags: W
HStem: -8 134<491.677 643.905> 305 133<572.564 660.87> 1542 178<289 568.518> 1899 178<455.584 796.305>
VStem: 350 136<132.941 248.534> 573 183<1452.61 1534.15> 668 137<147.145 299.689>
Fore
805 256 m 0xfa
 805 122 685 -8 538 -8 c 0
 422 -8 350 75 350 176 c 0
 350 188 351 201 353 214 c 2
 571 1452 l 2
 572 1459 573 1466 573 1473 c 0
 573 1517 544 1542 494 1542 c 2
 30 1542 l 1
 82 1836 365 2077 664 2077 c 0
 878 2077 1023 1959 1084 1811 c 1
 913 1722 l 1
 892 1772 820 1899 633 1899 c 0
 446 1899 327 1769 289 1720 c 1
 520 1720 l 2
 635 1720 756 1651 756 1505 c 0xfc
 756 1488 754 1471 751 1452 c 2
 571 433 l 1
 583 436 598 438 616 438 c 0
 722 438 805 365 805 256 c 0xfa
561 126 m 0
 623 126 668 181 668 231 c 0xfa
 668 270 642 305 593 305 c 0
 532 305 486 251 486 200 c 0
 486 160 513 126 561 126 c 0
EndSplineSet
EndChar
StartChar: uni0E43
Encoding: 3651 3651 186
Width: 909
VWidth: 2045
Flags: W
HStem: -8 134<551.375 702.528> 305 133<629.017 720.423> 1384 133<271.961 423.968> 1695 128<348.227 381.601 364.914 441.334> 1903 178<386.958 631.046>
VStem: 104 161<1525.25 1671.97> 406 139<132.821 247.999> 447 140<1540.07 1689.33> 678 183<1719.75 1857.34> 727 138<150.368 298.164>
Fore
341 1517 m 0xfd
 403 1517 447 1572 447 1622 c 0
 447 1665 416 1695 373 1695 c 0
 320 1695 265 1648 265 1591 c 0
 265 1550 294 1517 341 1517 c 0xfd
620 126 m 0
 665 126 727 168 727 230 c 0
 727 274 693 305 652 305 c 0
 598 305 545 258 545 200 c 0xfe40
 545 160 574 126 620 126 c 0
865 255 m 0
 865 123 742 -8 597 -8 c 0
 485 -8 406 72 406 176 c 0xfe40
 406 188 408 201 410 214 c 2
 675 1719 l 2
 677 1730 678 1741 678 1752 c 0
 678 1845 602 1903 522 1903 c 0
 446 1903 398 1883 347 1823 c 1
 364 1823 392 1831 423 1831 c 0
 500 1831 587 1777 587 1657 c 0
 587 1499 453 1384 317 1384 c 0
 227 1384 104 1446 104 1609 c 0
 104 1828 284 2081 555 2081 c 0
 741 2081 861 1949 861 1782 c 0xfd80
 861 1761 859 1740 855 1719 c 2
 628 433 l 1
 641 436 656 438 675 438 c 0
 786 438 865 360 865 255 c 0
EndSplineSet
EndChar
StartChar: uni0E44
Encoding: 3652 3652 187
Width: 903
VWidth: 2045
Flags: W
HStem: -8 134<551.375 702.528> 305 133<629.017 720.423>
VStem: 265 160<1997.77 2140.28> 406 139<132.821 247.999> 727 138<150.368 298.164>
Fore
865 255 m 0xe8
 865 123 742 -8 597 -8 c 0
 485 -8 406 72 406 176 c 0xd8
 406 188 408 201 410 214 c 2
 698 1846 l 1
 344 1521 l 1
 178 1521 l 1
 262 1997 l 2
 264 2009 265 2020 265 2032 c 0
 265 2071 253 2106 228 2136 c 1
 348 2238 l 1
 399 2190 425 2130 425 2058 c 0
 425 2039 423 2018 419 1997 c 2
 375 1745 l 1
 738 2074 l 1
 918 2074 l 25
 628 433 l 1
 641 436 656 438 675 438 c 0
 786 438 865 360 865 255 c 0xe8
620 126 m 0
 665 126 727 168 727 230 c 0
 727 274 693 305 652 305 c 0
 598 305 545 258 545 200 c 0
 545 160 574 126 620 126 c 0
EndSplineSet
EndChar
StartChar: uni0E45
Encoding: 3653 3653 188
Width: 1090
VWidth: 2045
Flags: W
HStem: 1096 180<434.631 734.204>
VStem: 94 181<860.496 1012.87> 817 180<788.293 852.523 852.523 866.546 859.535 1007.37>
Fore
624 1276 m 0
 852 1276 1004 1110 1004 904 c 0
 1004 880 1001 855 997 829 c 2
 754 -551 l 1
 574 -551 l 1
 817 829 l 2
 820 845 821 861 821 876 c 0
 821 1000 730 1096 592 1096 c 0
 436 1096 301 974 275 829 c 1
 94 829 l 1
 138 1078 379 1276 624 1276 c 0
EndSplineSet
EndChar
StartChar: uni0E46
Encoding: 3654 3654 189
Width: 1648
VWidth: 2045
Flags: W
HStem: 571 133<585.818 738.183> 882 132<671.444 755.388> 1238 20G<706 875.556 1111.57 1193>
VStem: 426 153<711.767 860.266> 761 140<726.786 875.473> 1208 180<829.257 894.546 894.546 907.592 901.069 1041.16>
Fore
901 841 m 0
 901 702 780 571 632 571 c 0
 538 571 426 635 426 792 c 0
 426 967 566 1195 846 1258 c 1
 979 1168 l 1
 1150 1257 l 1
 1236 1237 1395 1147 1395 945 c 0
 1395 922 1393 897 1388 870 c 2
 1138 -551 l 1
 958 -551 l 1
 1208 870 l 2
 1211 887 1213 904 1213 919 c 0
 1213 1025 1141 1083 1075 1100 c 1
 953 1033 l 1
 853 1103 l 1
 794 1103 730 1069 659 1000 c 1
 673 1005 704 1014 732 1014 c 0
 786 1014 901 966 901 841 c 0
655 704 m 0
 708 704 761 752 761 810 c 0
 761 853 729 882 687 882 c 0
 630 882 579 834 579 777 c 0
 579 731 615 704 655 704 c 0
EndSplineSet
EndChar
StartChar: uni0E47
Encoding: 3655 3655 190
Width: 0
VWidth: 2045
Flags: MW
HStem: 1367 112<-225.046 -102.398> 1476 131<-580.052 -426.05> 1612 112<-221.342 -95.1354> 1769 119<-623.309 -352.874 -354.505 -351.242 -352.874 10.6476>
VStem: -814 132<1514.19 1709.43> -344 114<1513.13 1601.66> -94 115<1488.11 1609.96>
AnchorPoint: "AboveMark" -423 1338 mark 0
AnchorPoint: "AboveBase" -36 1339 mark 0
Fore
-526 1476 m 0
 -578 1476 -582 1436 -591 1367 c 1
 -775 1390 -814 1483 -814 1566 c 0
 -814 1717 -709 1888 -449 1888 c 0
 -387 1888 -327 1876 -221 1876 c 0
 -59 1876 41 1918 80 2001 c 1
 171 1941 l 1
 115 1820 -15 1759 -219 1758 c 0
 -338 1758 -384 1769 -456 1769 c 0
 -578 1769 -682 1732 -682 1585 c 0
 -682 1544 -666 1519 -632 1512 c 1
 -620 1581 -572 1607 -532 1607 c 0
 -438 1607 -413 1526 -344 1512 c 1
 -344 1646 -224 1724 -130 1724 c 0
 -45 1724 21 1664 21 1578 c 0
 21 1488 -51 1367 -212 1367 c 0
 -403 1367 -435 1476 -526 1476 c 0
-173 1479 m 0
 -129 1479 -94 1516 -94 1557 c 0
 -94 1589 -119 1612 -150 1612 c 0
 -190 1612 -230 1578 -230 1533 c 0
 -230 1503 -209 1479 -173 1479 c 0
EndSplineSet
EndChar
StartChar: uni0E48
Encoding: 3656 3656 191
Width: 0
VWidth: 2045
Flags: W
HStem: 2107 330<-55 67 -113 125 -55 -55>
AnchorPoint: "AboveMark" -31 2049 mark 0
Fore
-113 2107 m 17
 -55 2437 l 1
 125 2437 l 1
 67 2107 l 1
 -113 2107 l 17
EndSplineSet
Substitution2: "Single Substitution lookup 5" uni0E48.low
MultipleSubs2: "Multiple Substitution lookup 4" uni0E4D uni0E48
EndChar
StartChar: uni0E49
Encoding: 3657 3657 192
Width: 0
VWidth: 2045
Flags: W
HStem: 2504 112<-156.125 -31.277>
VStem: -280 115<2372.79 2493.58> -29 115<2400.24 2489.77> 310 157<2414.53 2604>
AnchorPoint: "AboveMark" -58 2049 mark 0
Fore
-280 2405 m 0
 -280 2511 -189 2616 -66 2616 c 0
 28 2616 86 2551 86 2470 c 0
 86 2448 81 2363 -2 2294 c 2
 -81 2222 l 1
 49 2245 264 2342 310 2604 c 1
 467 2604 l 1
 417 2288 113 2066 -165 2066 c 2
 -314 2066 l 1
 -287 2220 l 1
 -175 2276 l 1
 -265 2294 -280 2361 -280 2405 c 0
-109 2371 m 0
 -72 2371 -29 2406 -29 2448 c 0
 -29 2475 -47 2504 -85 2504 c 0
 -133 2504 -165 2463 -165 2426 c 0
 -165 2393 -140 2371 -109 2371 c 0
EndSplineSet
Substitution2: "Single Substitution lookup 5" uni0E49.low
MultipleSubs2: "Multiple Substitution lookup 4" uni0E4D uni0E49
EndChar
StartChar: uni0E4A
Encoding: 3658 3658 193
Width: 0
VWidth: 2045
Flags: W
HStem: 2079 112<-403.961 -278.011> 2324 112<-359.765 -270.857> 2490 127<-344.076 -186.438 -26.7822 153.079>
VStem: -543 138<2193.41 2310.43> -269 115<2201.77 2322.88> 170 130<2310.59 2472.21> 467 128<2389.27 2569>
AnchorPoint: "AboveMark" -97 2049 mark 0
Fore
-543 2266 m 0
 -543 2489 -348 2617 -217 2617 c 0
 -148 2617 -98 2596 -70 2553 c 1
 -27 2596 29 2617 98 2617 c 0
 196 2617 300 2535 300 2399 c 0
 300 2356 291 2318 276 2283 c 1
 354 2336 443 2434 467 2569 c 1
 595 2569 l 17
 542 2268 247 2079 38 2079 c 1
 60 2206 l 1
 99 2228 170 2290 170 2380 c 0
 170 2459 113 2490 81 2490 c 0
 27 2490 -16 2468 -43 2425 c 1
 -144 2425 l 1
 -178 2468 -210 2490 -239 2490 c 0
 -284 2489 -330 2463 -362 2428 c 1
 -342 2433 -322 2436 -305 2436 c 0
 -212 2436 -154 2372 -154 2289 c 0
 -154 2186 -245 2079 -368 2079 c 0
 -453 2079 -543 2134 -543 2266 c 0
-349 2191 m 0
 -307 2191 -269 2228 -269 2269 c 0
 -269 2302 -295 2324 -325 2324 c 0
 -365 2324 -405 2287 -405 2246 c 0
 -405 2217 -384 2191 -349 2191 c 0
EndSplineSet
Substitution2: "Single Substitution lookup 5" uni0E4A.low
MultipleSubs2: "Multiple Substitution lookup 4" uni0E4D uni0E4A
EndChar
StartChar: uni0E4B
Encoding: 3659 3659 194
Width: 0
VWidth: 2045
Flags: MW
HStem: 2256 180<-168 -50 163 281 -200 313 -168 -168>
AnchorPoint: "AboveMark" 4 2049 mark 0
Fore
281 2256 m 1
 131 2256 l 1
 104 2106 l 1
 -77 2106 l 1
 -50 2256 l 1
 -200 2256 l 1
 -168 2436 l 1
 -18 2436 l 1
 8 2585 l 1
 189 2585 l 1
 163 2436 l 1
 313 2436 l 1
 281 2256 l 1
EndSplineSet
Substitution2: "Single Substitution lookup 5" uni0E4B.low
MultipleSubs2: "Multiple Substitution lookup 4" uni0E4D uni0E4B
EndChar
StartChar: uni0E4C
Encoding: 3660 3660 195
Width: 0
VWidth: 2045
Flags: W
HStem: 1806 133<-337.161 -185.847> 2098 154<-26 392.293> 2118 134<-321.138 -167.268>
VStem: -481 137<1946.71 2095.45> -162 138<1961.36 2094.7>
AnchorPoint: "AboveMark" -81 1738 mark 0
Fore
-269 1939 m 0xb8
 -215 1939 -162 1987 -162 2045 c 0
 -162 2089 -196 2118 -238 2118 c 0
 -292 2118 -344 2071 -344 2013 c 0
 -344 1970 -311 1939 -269 1939 c 0xb8
-481 1987 m 0
 -481 2128 -356 2252 -213 2252 c 2xb8
 257 2250 l 2
 321 2250 371 2269 407 2308 c 1
 498 2199 l 1
 419 2130 329 2096 230 2096 c 2
 -26 2098 l 1xd8
 -25 2087 -24 2077 -24 2066 c 0
 -24 1940 -145 1806 -293 1806 c 0
 -399 1806 -481 1879 -481 1987 c 0
EndSplineSet
Substitution2: "Single Substitution lookup 5" uni0E4C.low
MultipleSubs2: "Multiple Substitution lookup 4" uni0E4D uni0E4C
EndChar
StartChar: uni0E4D
Encoding: 3661 3661 196
Width: 0
VWidth: 2045
Flags: W
HStem: 1375 134<-201.954 -47.6955> 1688 133<-183.544 -30.8321>
VStem: -344 136<1515.36 1663.14> -25 136<1531.87 1680.59>
AnchorPoint: "AboveMark" -33 2070 basemark 0
AnchorPoint: "AboveBase" 62 1339 mark 0
Fore
111 1637 m 0
 111 1501 -14 1375 -156 1375 c 0
 -269 1375 -344 1455 -344 1558 c 0
 -344 1691 -224 1821 -77 1821 c 0
 39 1821 111 1740 111 1637 c 0
-132 1509 m 0
 -70 1509 -25 1565 -25 1613 c 0
 -25 1655 -54 1688 -100 1688 c 0
 -159 1688 -208 1635 -208 1582 c 0
 -208 1541 -178 1509 -132 1509 c 0
EndSplineSet
Substitution2: "Single Substitution lookup 3" uni0E4D.high
EndChar
StartChar: uni0E4E
Encoding: 3662 3662 197
Width: 0
VWidth: 2045
Flags: W
HStem: 1759 157<-257.031 -135> 2028 156<59.0619 235.108>
VStem: -457 161<1548.86 1722.06> 247 158<1916 1925.5 1925.5 1940.52 1933.01 2013.81>
AnchorPoint: "AboveBase" 96 1339 mark 0
Fore
-163 1759 m 0
 -228 1759 -296 1705 -296 1626 c 0
 -296 1572 -255 1537 -202 1537 c 1
 -229 1381 l 17
 -364 1381 -457 1474 -457 1600 c 0
 -457 1767 -305 1916 -135 1916 c 1
 -108 2072 37 2184 181 2184 c 0
 310 2184 409 2096 409 1965 c 0
 409 1949 408 1933 405 1916 c 1
 247 1916 l 1
 248 1922 249 1929 249 1935 c 0
 249 1986 213 2028 154 2028 c 0
 84 2028 20 1964 20 1897 c 0
 20 1875 27 1855 40 1837 c 1
 20 1726 l 1
 -89 1726 l 1
 -108 1748 -133 1759 -163 1759 c 0
EndSplineSet
EndChar
StartChar: uni0E4F
Encoding: 3663 3663 198
Width: 1571
VWidth: 2045
Flags: W
HStem: -23 133<630.309 993.021> 245 133<759.536 957.429> 646 133<792.079 988.996> 914 133<754.803 1119.15>
VStem: 326 136<272.504 624.143> 600 138<399.092 593.228> 1010 138<432.243 624.003> 1285 137<399.986 750.933>
Fore
1422 607 m 0
 1422 275 1114 -23 780 -23 c 0
 513 -23 326 167 326 419 c 0
 326 742 627 1047 969 1047 c 0
 1235 1047 1422 858 1422 607 c 0
803 110 m 0
 1051 110 1285 333 1285 582 c 0
 1285 773 1141 914 945 914 c 0
 702 914 462 697 462 441 c 0
 462 246 613 110 803 110 c 0
1148 559 m 0
 1148 395 998 245 827 245 c 0
 689 245 600 341 600 465 c 0
 600 634 754 779 921 779 c 0
 1063 779 1148 678 1148 559 c 0
851 378 m 0
 933 378 1010 451 1010 536 c 0
 1010 598 964 646 898 646 c 0
 818 646 738 575 738 488 c 0
 738 421 788 378 851 378 c 0
EndSplineSet
EndChar
StartChar: uni0E50
Encoding: 3664 3664 199
Width: 1326
VWidth: 2045
Flags: W
HStem: 0 157<511.812 892.33> 737 157<594.047 974.08>
VStem: 196 182<278.802 545.914> 1106 182<346.327 616.889>
Fore
691 157 m 0
 908 157 1106 309 1106 489 c 0
 1106 630 976 737 793 737 c 0
 567 737 378 577 378 406 c 0
 378 267 506 157 691 157 c 0
1288 510 m 0
 1288 257 1009 0 663 0 c 0
 375 0 196 179 196 384 c 0
 196 636 475 894 821 894 c 0
 1105 894 1288 720 1288 510 c 0
EndSplineSet
EndChar
StartChar: uni0E51
Encoding: 3665 3665 200
Width: 1361
VWidth: 2045
Flags: W
HStem: 0 190<506.259 730.344> 369 134<619.152 772.233> 719 175<598.626 981.926>
VStem: 202 181<204.258 515.167> 459 137<196.14 345.64> 778 138<237.896 362.141> 1099 178<262.01 604.392>
Fore
202 325 m 0
 202 614 490 894 826 894 c 0
 1058 894 1277 748 1277 468 c 0
 1277 126 1006 -63 852 -133 c 1
 779 15 l 1
 1043 126 1099 326 1099 458 c 0
 1099 624 982 719 796 719 c 0
 521 719 383 526 383 345 c 0
 383 248 427 180 490 160 c 1
 469 185 459 214 459 248 c 0
 459 366 577 503 726 503 c 0
 840 503 916 422 916 319 c 0
 916 267 895 157 757 60 c 0
 696 20 613 0 509 0 c 0
 341 0 202 123 202 325 c 0
671 190 m 0
 725 190 778 238 778 297 c 0
 778 341 744 369 702 369 c 0
 654 369 596 327 596 264 c 0
 596 218 631 190 671 190 c 0
EndSplineSet
EndChar
StartChar: uni0E52
Encoding: 3666 3666 201
Width: 1454
VWidth: 2045
Flags: W
HStem: 0 177<323 1103.37> 239 133<589.847 744.993> 550 134<694 759.938> 719 175<726.412 930.179 1094.94 1238.11>
VStem: 309 181<1094.56 1192.76> 444 139<378.621 524.236> 766 136<395.194 543.489> 1250 182<443.799 716.221>
Fore
444 447 m 0xf7
 444 715 654 894 844 894 c 0
 922 894 983 861 1027 794 c 1
 1098 861 1161 894 1216 894 c 0
 1360 894 1432 804 1432 625 c 0
 1432 575 1426 517 1415 453 c 0
 1346 63 1101 0 997 0 c 2
 114 0 l 1
 307 1094 l 2
 308 1101 309 1108 309 1115 c 0
 309 1162 279 1205 214 1205 c 1
 246 1384 l 1
 444 1384 490 1254 490 1153 c 0xfb
 490 1131 488 1111 485 1094 c 2
 323 177 l 1
 976 177 l 2
 1147 177 1250 375 1250 603 c 0
 1250 680 1229 719 1188 719 c 0
 1123 719 1076 680 1048 603 c 1
 955 603 l 1
 951 680 902 718 808 719 c 0
 761 719 723 707 694 684 c 1
 714 684 l 2
 829 684 902 603 902 501 c 0
 902 366 782 239 635 239 c 0
 573 239 444 267 444 447 c 0xf7
659 372 m 0
 720 372 766 425 766 477 c 0
 766 518 736 550 690 550 c 0
 628 550 583 495 583 447 c 0xf7
 583 408 609 372 659 372 c 0
114 0 m 1
EndSplineSet
EndChar
StartChar: uni0E53
Encoding: 3667 3667 202
Width: 1398
VWidth: 2045
Flags: W
HStem: 0 133<375.283 527.099> 311 134<414.097 543.482> 719 175<498.878 740.778 965.156 1164.04>
VStem: 178 189<138.957 418.566> 550 135<156.213 305.375> 1180 181<553.45 606.523 606.523 613.523 610.023 701.475>
Fore
178 299 m 0
 178 702 446 894 675 894 c 0
 756 894 821 864 874 804 c 1
 944 864 1020 894 1100 894 c 0
 1256 894 1361 785 1361 641 c 0
 1361 623 1359 605 1356 586 c 2
 1253 0 l 1
 1073 0 l 1
 1178 594 l 2
 1179 603 1180 611 1180 619 c 0
 1180 676 1145 717 1079 717 c 0
 981 717 946 661 935 619 c 2
 903 438 l 1
 723 438 l 1
 755 616 l 2
 756 620 756 624 756 629 c 0
 756 670 725 719 644 719 c 0
 421 719 349 478 362 405 c 1
 410 432 452 445 491 445 c 0
 622 445 685 356 685 262 c 0
 685 125 561 0 418 0 c 0
 238 0 178 138 178 299 c 0
441 133 m 0
 506 133 550 189 550 239 c 0
 550 279 521 311 473 311 c 0
 421 311 367 266 367 207 c 0
 367 167 394 133 441 133 c 0
EndSplineSet
EndChar
StartChar: uni0E54
Encoding: 3668 3668 203
Width: 1498
VWidth: 2045
Flags: W
HStem: 0 178<469.586 676 885.136 1294> 221 132<845.556 952.138> 532 134<817.071 967.616> 717 177<519.141 1413.5> 1054 20G<1492 1680>
VStem: 182 184<281.406 564.634> 620 172<306.898 507.66> 974 138<377.148 525.521> 1500 180<950.818 1074>
Fore
182 367 m 0
 182 635 425 894 722 894 c 2
 1289 896 l 2
 1396 896 1484 980 1500 1074 c 1
 1680 1074 l 1
 1646 879 1462 717 1257 717 c 2
 689 717 l 2
 406 717 366 470 366 413 c 0
 366 291 471 178 592 178 c 2
 676 178 l 17
 653 197 620 255 620 343 c 0
 620 539 759 666 922 666 c 0
 1032 666 1112 588 1112 482 c 0
 1112 347 987 221 844 221 c 1
 857 192 887 178 934 178 c 2
 1325 178 l 1
 1294 0 l 1
 561 0 l 2
 333 0 182 159 182 367 c 0
867 353 m 0
 920 353 974 401 974 459 c 0
 974 503 940 532 899 532 c 0
 844 532 792 483 792 427 c 0
 792 386 823 353 867 353 c 0
EndSplineSet
EndChar
StartChar: uni0E55
Encoding: 3669 3669 204
Width: 1489
VWidth: 2045
Flags: W
HStem: 0 178<469.586 676 885.136 1294> 221 132<845.556 952.138> 532 134<817.071 967.616> 717 178<766.615 918.841 1042 1413.5> 1074 134<780.724 935.742>
VStem: 182 184<281.406 564.227> 620 172<306.898 507.66> 621 139<911.857 1050.33> 942 138<943.277 1066.29> 974 138<377.148 525.521> 1500 180<950.818 1074>
Fore
621 945 m 0xfd60
 621 1078 745 1208 890 1208 c 0
 1004 1208 1080 1127 1080 1023 c 0
 1080 969 1060 923 1042 895 c 9
 1289 895 l 2
 1397 895 1484 980 1500 1074 c 1
 1680 1074 l 1
 1646 879 1462 717 1257 717 c 2
 689 717 l 2
 406 717 366 470 366 413 c 0
 366 291 471 178 592 178 c 2
 676 178 l 1
 653 197 620 255 620 343 c 0xfea0
 620 539 759 666 922 666 c 0
 1032 666 1112 588 1112 482 c 0
 1112 347 987 221 844 221 c 1
 857 192 887 178 934 178 c 2
 1325 178 l 1
 1294 0 l 1
 561 0 l 2
 333 0 182 159 182 367 c 0
 182 648 424 850 630 887 c 1
 624 905 621 925 621 945 c 0xfd60
835 895 m 0
 893 895 942 950 942 1000 c 0
 942 1044 906 1074 866 1074 c 0
 817 1074 760 1030 760 971 c 0xfda0
 760 930 789 895 835 895 c 0
867 353 m 0
 920 353 974 401 974 459 c 0
 974 503 940 532 899 532 c 0
 844 532 792 483 792 427 c 0xfe60
 792 386 823 353 867 353 c 0
EndSplineSet
EndChar
StartChar: uni0E56
Encoding: 3670 3670 205
Width: 1448
VWidth: 2045
Flags: W
HStem: 0 187<406.245 719.804 672 889.754> 366 134<416.767 572.597> 719 175<583.053 1072.59> 1438 20G<329.536 431>
VStem: 257 138<196.066 343.636> 397 183<1168.56 1265.78> 578 137<234.366 358.917> 1180 179<400.756 630.126>
Fore
672 180 m 1xfb
 930 180 1180 355 1180 527 c 0
 1180 595 1132 719 837 719 c 0
 494 719 294 577 290 571 c 1
 395 1168 l 2
 396 1175 397 1182 397 1189 c 0
 397 1240 363 1279 302 1279 c 1
 333 1458 l 1
 529 1458 580 1329 580 1224 c 0xfd
 580 1204 578 1185 575 1168 c 2
 514 822 l 1
 613 870 743 894 902 894 c 0
 1131 894 1359 764 1359 537 c 0
 1359 305 1072 0 616 0 c 0
 416 0 257 67 257 228 c 0
 257 386 395 500 526 500 c 0
 640 500 715 417 715 316 c 0
 715 278 704 224 672 180 c 1xfb
471 187 m 0
 524 187 578 234 578 295 c 0xfb
 578 339 545 366 503 366 c 0
 449 366 395 320 395 262 c 0
 395 218 429 187 471 187 c 0
EndSplineSet
EndChar
StartChar: uni0E57
Encoding: 3671 3671 206
Width: 1716
VWidth: 2045
Flags: W
HStem: 0 133<398.067 549.372> 0 178<1307 1404.02> 311 134<437.803 566.351> 719 175<522.781 765.349 988.527 1189.02> 1237 20G<1658.5 1707.32>
VStem: 199 190<140.499 419.946> 572 137<156.064 303.401> 1203 181<553.45 606.523 606.523 613.023 609.773 703.293>
Fore
199 304 m 0xbf
 199 704 473 894 698 894 c 0
 778 894 843 864 895 804 c 1
 966 864 1043 894 1125 894 c 0
 1284 894 1384 781 1384 640 c 0
 1384 623 1382 604 1379 586 c 2
 1307 178 l 1
 1369 178 1429 226 1440 288 c 2
 1574 1051 l 2
 1589 1132 1627 1200 1690 1257 c 1
 1800 1130 l 1
 1776 1109 1760 1082 1754 1051 c 2
 1621 293 l 2
 1588 110 1430 0 1276 0 c 2
 1096 0 l 1x7f
 1201 594 l 2
 1202 603 1203 611 1203 619 c 0
 1203 683 1164 717 1096 717 c 0
 994 717 964 644 958 619 c 2
 926 438 l 1
 746 438 l 1
 778 616 l 2
 779 620 779 625 779 629 c 0
 779 672 745 719 667 719 c 0
 445 719 372 480 385 405 c 1
 434 432 478 445 518 445 c 0
 639 445 709 359 709 261 c 0
 709 124 581 0 442 0 c 0
 260 0 199 142 199 304 c 0xbf
464 133 m 0xbf
 518 133 572 180 572 239 c 0
 572 279 543 311 496 311 c 0
 443 311 389 265 389 207 c 0
 389 167 416 133 464 133 c 0xbf
EndSplineSet
EndChar
StartChar: uni0E58
Encoding: 3672 3672 207
Width: 1548
VWidth: 2045
Flags: W
HStem: 0 150<875.984 1168.22> 258 194<502.363 639.332> 328 134<1030.06 1182.94> 717 178<475.197 1413.5> 1054 20G<1492 1680>
VStem: 163 183<326.972 582.023> 878 130<222 305.102> 1190 136<172.656 320.563> 1500 180<950.818 1074>
Fore
577 258 m 0xdf80
 476 258 460 94 451 0 c 1
 272 0 163 165 163 370 c 0
 163 677 388 895 652 895 c 2
 1289 895 l 2
 1397 895 1484 980 1500 1074 c 1
 1680 1074 l 1
 1646 879 1462 717 1257 717 c 2
 620 717 l 2
 497 717 346 630 346 401 c 0
 346 363 352 333 366 311 c 1
 398 405 474 452 592 452 c 0xdf80
 717 452 840 222 878 222 c 1
 883 356 1006 462 1138 462 c 0xbf80
 1244 462 1326 388 1326 280 c 0
 1326 173 1245 0 1015 0 c 0
 739 0 646 258 577 258 c 0xdf80
1083 150 m 0
 1141 150 1190 200 1190 256 c 0
 1190 300 1156 328 1115 328 c 0xbf80
 1066 328 1008 287 1008 223 c 0
 1008 181 1035 150 1083 150 c 0
EndSplineSet
EndChar
StartChar: uni0E59
Encoding: 3673 3673 208
Width: 1611
VWidth: 2045
Flags: W
HStem: 0 151<410.966 636.994> 329 133<499.754 653.762> 716 178<550.91 896.842 1190.55 1354.85>
VStem: 184 181<315.19 537.67> 660 136<174.997 322.767> 1002 179<367.381 402 402 435.5 435.5 439.038 437.269 609.18>
Fore
184 327 m 0
 184 645 415 894 763 894 c 0
 862 894 957 888 1055 794 c 1
 1138 861 1213 894 1280 894 c 0
 1359 894 1412 880 1440 853 c 1
 1496 1168 l 2
 1510 1250 1548 1318 1611 1373 c 1
 1723 1246 l 1
 1697 1225 1681 1199 1676 1168 c 2
 1594 705 l 1
 1397 606 l 1
 1395 615 1353 716 1251 716 c 0
 1224 716 1191 699 1154 666 c 1
 1169 648 1191 601 1191 513 c 0
 1191 481 1188 445 1181 402 c 2
 1110 0 l 1
 930 0 l 1
 1002 408 l 2
 1005 426 1007 445 1007 463 c 0
 1007 598 916 716 724 716 c 0
 568 716 365 617 365 354 c 0
 365 339 366 326 368 314 c 1
 398 369 479 462 607 462 c 0
 721 462 796 383 796 280 c 0
 796 140 667 0 457 0 c 0
 339 0 184 86 184 327 c 0
553 151 m 0
 610 151 660 201 660 257 c 0
 660 294 636 329 584 329 c 0
 521 329 477 274 477 225 c 0
 477 184 506 151 553 151 c 0
EndSplineSet
EndChar
StartChar: uni0E5A
Encoding: 3674 3674 209
Width: 1519
VWidth: 2045
Flags: W
HStem: 0 21G<848 1031.52 1145 1328.52> 680 173<578 688.026> 1118 134<401.377 557.481>
VStem: 236 144<947.296 1093.39> 563 138<987.216 1109.78>
Fore
456 939 m 0
 507 939 563 986 563 1046 c 0
 563 1089 528 1118 487 1118 c 0
 434 1118 380 1071 380 1015 c 0
 380 974 409 939 456 939 c 0
236 966 m 0
 236 1141 381 1252 511 1252 c 0
 627 1252 701 1167 701 1067 c 0
 701 1013 671 894 578 853 c 1
 858 853 1036 1064 1069 1254 c 1
 1249 1254 l 1
 1028 0 l 1
 848 0 l 1
 995 835 l 17
 816 691 685 680 584 680 c 0
 295 680 236 851 236 966 c 0
1366 1254 m 1
 1546 1254 l 1
 1325 0 l 1
 1145 0 l 1
 1366 1254 l 1
EndSplineSet
EndChar
StartChar: uni0E5B
Encoding: 3675 3675 210
Width: 2515
VWidth: 2045
Flags: W
HStem: 0 178<460.174 839.361> 338 134<685.881 838.497> 417 172<2285.76 2469> 651 134<703.101 855.715> 879 178<557.28 859.29>
VStem: 168 177<290.264 650.19> 542 138<479.37 626.747> 862 219<552.451 749.231>
Fore
755 472 m 0xdf
 803 472 862 517 862 577 c 0
 862 617 834 651 787 651 c 0
 738 651 680 609 680 545 c 0
 680 500 716 472 755 472 c 0xdf
696 879 m 0
 473 879 345 647 345 452 c 0
 345 309 419 178 630 178 c 0
 734 178 819 202 886 252 c 0
 972 317 1032 375 1067 424 c 2
 1286 737 l 1
 1392 737 l 1
 1477 508 l 1
 1642 737 l 1
 1749 737 l 1
 1834 508 l 1
 1998 737 l 1
 2104 737 l 1
 2189 508 l 1
 2223 562 2286 589 2374 589 c 2
 2499 589 l 1
 2469 417 l 1
 2356 417 l 2xbf
 2314 417 2260 358 2195 239 c 1
 2088 239 l 1
 2004 468 l 1
 1838 239 l 1
 1731 239 l 1
 1647 468 l 1
 1483 239 l 1
 1376 239 l 1
 1292 468 l 1
 1191 326 l 2
 1138 247 1053 170 938 94 c 0
 841 31 734 0 617 0 c 0
 311 0 168 213 168 438 c 0
 168 802 513 1057 723 1057 c 0
 933 1057 1081 931 1081 751 c 0
 1081 687 1054 537 973 455 c 0
 899 378 818 339 731 338 c 0
 620 338 542 418 542 523 c 0
 542 654 662 785 809 785 c 0
 857 785 896 769 923 736 c 1
 914 816 828 879 696 879 c 0
EndSplineSet
EndChar
StartChar: afii301
Encoding: 8205 8205 212
Width: 0
Flags: MW
Fore
-12.4902 -275 m 1
 -84.4902 -275 l 1
 160.429 1114 l 1
 2.44824 978 l 1
 -37.9121 1027 l 1
 162.887 1196 l 1
 21.5098 1364 l 1
 79.1504 1413 l 1
 218.998 1242 l 1
 419.15 1413 l 1
 459.51 1364 l 1
 258.887 1196 l 1
 400.088 1027 l 1
 342.448 978 l 1
 232.429 1114 l 1
 -12.4902 -275 l 1
EndSplineSet
EndChar
StartChar: afii299
Encoding: 8206 8206 213
Width: 0
Flags: MW
HStem: 1163 71<240.068 506.068>
Fore
641.24 1198 m 1
 386.506 984 l 1
 346.146 1033 l 1
 506.068 1163 l 1
 240.068 1163 l 1
 -13.4902 -275 l 1
 -84.4902 -275 l 1
 181.588 1234 l 1
 518.588 1234 l 1
 404.51 1364 l 1
 462.15 1413 l 1
 641.24 1198 l 1
EndSplineSet
EndChar
StartChar: afii300
Encoding: 8207 8207 214
Width: 0
Flags: MW
HStem: 1163 71<-84.4121 169.068>
Fore
-13.4902 -275 m 1
 -84.4902 -275 l 1
 169.068 1163 l 1
 -96.9316 1163 l 1
 17.1455 1033 l 1
 -40.4941 984 l 1
 -219.761 1198 l 1
 35.1504 1413 l 1
 75.5098 1364 l 1
 -84.4121 1234 l 1
 252.588 1234 l 1
 -13.4902 -275 l 1
EndSplineSet
EndChar
StartChar: uni2010
Encoding: 8208 8208 215
Width: 973
Flags: W
HStem: 580 165<321.363 917.27 321.363 917.27 321.363 321.363>
Fore
321.363 745 m 1
 946.363 745 l 1
 917.27 580 l 1
 292.27 580 l 1
 321.363 745 l 1
EndSplineSet
EndChar
StartChar: endash
Encoding: 8211 8211 216
Width: 1125
Flags: W
HStem: 572 160<125.071 1222.86>
Fore
1222.86 572 m 1
 96.8594 572 l 1
 125.071 732 l 1
 1251.07 732 l 1
 1222.86 572 l 1
EndSplineSet
EndChar
StartChar: emdash
Encoding: 8212 8212 217
Width: 1886
Flags: W
HStem: 572 160<125.071 1966.86>
Fore
1966.86 572 m 1
 96.8594 572 l 1
 125.071 732 l 1
 1995.07 732 l 1
 1966.86 572 l 1
EndSplineSet
EndChar
StartChar: afii00208
Encoding: 8213 8213 218
Width: 1862
Flags: W
HStem: 572 160<239.071 1852.86>
Fore
1852.86 572 m 1
 210.859 572 l 1
 239.071 732 l 1
 1881.07 732 l 1
 1852.86 572 l 1
EndSplineSet
EndChar
StartChar: underscoredbl
Encoding: 8215 8215 219
Width: 1118
Flags: W
HStem: -423 130<-67.6641 1059.41> -212 130<-30.459 1096.62>
Fore
1096.62 -212 m 1
 -53.3809 -212 l 1
 -30.459 -82 l 1
 1119.54 -82 l 1
 1096.62 -212 l 1
1059.41 -423 m 1
 -90.5859 -423 l 1
 -67.6641 -293 l 1
 1082.34 -293 l 1
 1059.41 -423 l 1
EndSplineSet
EndChar
StartChar: quoteleft
Encoding: 8216 8216 220
Width: 450
Flags: W
HStem: 997 559<372.798 452.365 210.365 510.798 210.365 210.365>
Fore
510.798 997 m 1
 372.798 997 l 1
 210.365 1556 l 1
 452.365 1556 l 1
 510.798 997 l 1
EndSplineSet
EndChar
StartChar: quoteright
Encoding: 8217 8217 221
Width: 580
Flags: W
HStem: 997 559<410.798 770.365 770.365 770.365>
Fore
770.365 1556 m 1
 410.798 997 l 1
 272.798 997 l 1
 528.365 1556 l 1
 770.365 1556 l 1
EndSplineSet
EndChar
StartChar: quotesinglbase
Encoding: 8218 8218 222
Width: 432
Flags: W
HStem: -276 559<76.334 435.9 435.9 435.9>
Fore
435.9 283 m 1
 76.334 -276 l 1
 -61.666 -276 l 1
 193.9 283 l 1
 435.9 283 l 1
EndSplineSet
EndChar
StartChar: quotereversed
Encoding: 8219 8219 223
Width: 432
Flags: W
HStem: 997 559<353.798 609.365 609.365 609.365>
Fore
609.365 1556 m 1
 353.798 997 l 1
 111.798 997 l 1
 471.365 1556 l 1
 609.365 1556 l 1
EndSplineSet
EndChar
StartChar: quotedblleft
Encoding: 8220 8220 224
Width: 850
Flags: W
HStem: 997 559<372.798 448.365 766.798 842.365 604.365 900.798 210.365 210.365>
Fore
900.798 997 m 1
 766.798 997 l 1
 604.365 1556 l 1
 842.365 1556 l 1
 900.798 997 l 1
506.798 997 m 1
 372.798 997 l 1
 210.365 1556 l 1
 448.365 1556 l 1
 506.798 997 l 1
EndSplineSet
EndChar
StartChar: quotedblright
Encoding: 8221 8221 225
Width: 1000
Flags: W
HStem: 997 559<810.798 1170.37 1170.37 1170.37>
Fore
1170.37 1556 m 1
 810.798 997 l 1
 676.798 997 l 1
 932.365 1556 l 1
 1170.37 1556 l 1
776.365 1556 m 1
 416.798 997 l 1
 282.798 997 l 1
 538.365 1556 l 1
 776.365 1556 l 1
EndSplineSet
EndChar
StartChar: quotedblbase
Encoding: 8222 8222 226
Width: 814
Flags: W
HStem: -276 559<471.334 830.9 830.9 830.9>
Fore
830.9 283 m 1
 471.334 -276 l 1
 337.334 -276 l 1
 592.9 283 l 1
 830.9 283 l 1
436.9 283 m 1
 77.334 -276 l 1
 -56.666 -276 l 1
 198.9 283 l 1
 436.9 283 l 1
EndSplineSet
EndChar
StartChar: dagger
Encoding: 8224 8224 227
Width: 1118
Flags: W
HStem: 1034 129<340.068 681.204 824.187 1165.32 317.322 1188.07 340.068 340.068>
Fore
1165.32 1034 m 1
 803.204 1039 l 1
 648.804 135 l 1
 516.804 135 l 1
 681.204 1039 l 1
 317.322 1034 l 1
 340.068 1163 l 1
 702.187 1158 l 1
 767.365 1556 l 1
 899.365 1556 l 1
 824.187 1158 l 1
 1188.07 1163 l 1
 1165.32 1034 l 1
EndSplineSet
EndChar
StartChar: daggerdbl
Encoding: 8225 8225 228
Width: 1118
Flags: MW
HStem: 507 129<247.144 588.279 731.263 1072.4> 1044 129<341.832 682.967 825.95 1167.08>
Fore
1072.4 507 m 1
 710.279 512 l 1
 646.864 124 l 1
 514.864 124 l 1
 588.279 512 l 1
 224.397 507 l 1
 247.144 636 l 1
 609.263 631 l 1
 682.967 1049 l 1
 319.085 1044 l 1
 341.832 1173 l 1
 703.95 1168 l 1
 767.365 1556 l 1
 899.365 1556 l 1
 825.95 1168 l 1
 1189.83 1173 l 1
 1167.08 1044 l 1
 804.967 1049 l 1
 731.263 631 l 1
 1095.14 636 l 1
 1072.4 507 l 1
EndSplineSet
EndChar
StartChar: bullet
Encoding: 8226 8226 229
Width: 950
Flags: W
HStem: 311 702<470.882 699.926>
VStem: 225 715<553.27 768.728>
Fore
940 724 m 0
 940 515 747 311 520 311 c 0
 351 311 225 428 225 604 c 0
 225 801 411 1013 644 1013 c 0
 828 1013 940 879 940 724 c 0
EndSplineSet
EndChar
StartChar: ellipsis
Encoding: 8230 8230 230
Width: 1650
Flags: W
HStem: 0 223<216.321 381 774.321 939 1332.32 1497>
Fore
1497 0 m 1
 1293 0 l 1
 1332.32 223 l 1
 1536.32 223 l 1
 1497 0 l 1
939 0 m 1
 735 0 l 1
 774.321 223 l 1
 978.321 223 l 1
 939 0 l 1
381 0 m 1
 177 0 l 1
 216.321 223 l 1
 420.321 223 l 1
 381 0 l 1
EndSplineSet
EndChar
StartChar: perthousand
Encoding: 8240 8240 231
Width: 2848
Flags: W
HStem: -29 133<1455.05 1671.8 2299.05 2518.24> 634 133<479.259 694.717> 721 133<1561.96 1778.13 2406.34 2623.51> 1384 133<587.406 807.114>
VStem: 278 176<793.581 1193.67> 834 177<956.514 1358.15> 1251 177<129.833 448.962> 1807 177<292.361 695.394> 2095 177<129.833 451.915> 2651 177<293.412 696.645>
Fore
722 1517 m 0xdfc0
 915 1517 1011 1417 1011 1220 c 0
 1011 1027 933 634 567 634 c 0
 336 634 278 779 278 935 c 0
 278 1075 331 1517 722 1517 c 0xdfc0
1736 1489 m 1
 693 0 l 1
 528 0 l 1
 1571 1489 l 1
 1736 1489 l 1
1696 854 m 0xbfc0
 1926 854 1984 709 1984 559 c 0
 1984 377 1913 -29 1540 -29 c 0
 1348 -29 1251 73 1251 268 c 0
 1251 422 1308 854 1696 854 c 0xbfc0
454 924 m 0
 454 827 481 767 588 767 c 0xdfc0
 788 767 834 1082 834 1222 c 0
 834 1325 807 1384 699 1384 c 0
 503 1384 454 1080 454 924 c 0
1428 264 m 0
 1428 160 1455 104 1563 104 c 0
 1774 104 1807 453 1807 559 c 0
 1807 662 1780 721 1672 721 c 0xbfc0
 1446 721 1428 333 1428 264 c 0
2828 557 m 0
 2828 411 2774 -29 2384 -29 c 0
 2192 -29 2095 73 2095 268 c 0
 2095 422 2152 854 2540 854 c 0
 2687 854 2828 795 2828 557 c 0
2272 264 m 0
 2272 160 2299 104 2407 104 c 0
 2618 104 2651 453 2651 559 c 0
 2651 662 2624 721 2516 721 c 0
 2292 721 2272 347 2272 264 c 0
EndSplineSet
EndChar
StartChar: minute
Encoding: 8242 8242 232
Width: 602
Flags: W
HStem: 870 619<426.404 833.551 833.551 833.551>
Fore
833.551 1489 m 1
 426.404 870 l 1
 290.404 870 l 1
 593.551 1489 l 1
 833.551 1489 l 1
EndSplineSet
EndChar
StartChar: second
Encoding: 8243 8243 233
Width: 972
Flags: W
HStem: 870 619<422.404 829.551 829.551 829.551>
Fore
829.551 1489 m 1
 422.404 870 l 1
 290.404 870 l 1
 593.551 1489 l 1
 829.551 1489 l 1
1223.55 1489 m 1
 816.404 870 l 1
 684.404 870 l 1
 987.551 1489 l 1
 1223.55 1489 l 1
EndSplineSet
EndChar
StartChar: guilsinglleft
Encoding: 8249 8249 234
Width: 784
Flags: MW
Fore
663.328 172 m 1
 230.207 608 l 1
 245.9 697 l 1
 832.603 1132 l 1
 797.513 933 l 1
 416.965 652 l 1
 698.417 371 l 1
 663.328 172 l 1
EndSplineSet
EndChar
StartChar: guilsinglright
Encoding: 8250 8250 235
Width: 784
Flags: MW
Fore
768.207 608 m 1
 181.328 172 l 1
 216.417 371 l 1
 596.965 652 l 1
 315.513 933 l 1
 350.603 1132 l 1
 783.9 697 l 1
 768.207 608 l 1
EndSplineSet
EndChar
StartChar: uni203E
Encoding: 8254 8254 237
Width: 1118
Flags: W
HStem: 1658 131<267.449 1410.35>
Fore
1410.35 1658 m 1
 244.351 1658 l 1
 267.449 1789 l 1
 1433.45 1789 l 1
 1410.35 1658 l 1
EndSplineSet
EndChar
StartChar: fraction
Encoding: 8260 8260 238
Width: 886
Flags: W
HStem: 0 21G<-29 150.003>
Fore
1178.55 1489 m 1
 136 0 l 1
 -29 0 l 1
 1013.55 1489 l 1
 1178.55 1489 l 1
EndSplineSet
EndChar
StartChar: uni207F
Encoding: 8319 8319 239
Width: 1010
Flags: W
HStem: 1368 151<730.463 907.159>
VStem: 929 176<1171.64 1343.82>
Fore
854 1519 m 0
 1055 1519 1105 1387 1105 1270 c 0
 1105 1237 1102 1202 1095 1163 c 2
 990 566 l 1
 818 566 l 1
 910 1088 l 2
 923 1162 929 1207 929 1237 c 0
 929 1333 884 1368 782 1368 c 0
 729 1368 658 1354 517 1254 c 1
 396 566 l 1
 225 566 l 1
 387 1488 l 1
 558 1488 l 1
 541 1388 l 1
 704 1510 791 1519 854 1519 c 0
EndSplineSet
EndChar
StartChar: dottedcircle
Encoding: 9676 9676 240
Width: 1255
Flags: W
HStem: 7 121<568.168 679.206> 68 121<872.324 984.04> 98 121<319.107 430.214> 234 121<1068.17 1179.07> 249 121<202.359 314.166> 445 121<116.479 227.644 1182.27 1290.22> 679 121<172.324 283.375 1207.32 1318.76> 868 121<312.149 423.359> 891 121<1138.15 1249.17> 1011 121<526.324 637.576> 1034 121<975.168 1086.07> 1079 121<764.324 875.576>
VStem: 110 123<451.013 559.929> 166 123<684.766 793.938> 196 124<255.013 363.938> 313 123<103.625 209.521 873.906 962.272> 520 123<1017.01 1126.08> 562 123<13.0127 121.938> 758 123<1085.01 1194.08> 866 124<73.9062 183.073> 969 123<1039.91 1149.08> 1062 123<239.906 349.078> 1132 123<896.819 1006.3> 1173 123<443.819 552.938> 1201 123<684.344 793.929>
Fore
306 916 m 0x07
 306 955 337 989 377 989 c 0
 416 989 429 960 429 940 c 0
 429 902 397 868 356 868 c 0
 326 868 306 887 306 916 c 0x07
520 1059 m 0x064080
 520 1098 552 1132 592 1132 c 0
 621 1132 643 1112 643 1083 c 0
 643 1041 608 1011 570 1011 c 0
 540 1011 520 1030 520 1059 c 0x064080
758 1127 m 0x061020
 758 1166 790 1200 830 1200 c 0
 859 1200 881 1180 881 1151 c 0
 881 1109 846 1079 808 1079 c 0
 778 1079 758 1098 758 1127 c 0x061020
110 493 m 0x0608
 110 532 143 566 182 566 c 0
 212 566 233 546 233 517 c 0
 233 475 198 445 160 445 c 0
 130 445 110 464 110 493 c 0x0608
196 297 m 0x0e02
 196 335 228 370 268 370 c 0
 304 370 320 343 320 321 c 0
 320 279 284 249 247 249 c 0
 217 249 196 268 196 297 c 0x0e02
313 146 m 0x2601
 313 183 343 219 385 219 c 0
 415 219 436 199 436 170 c 0
 436 130 403 98 363 98 c 0
 333 98 313 117 313 146 c 0x2601
562 55 m 0x860040
 562 93 593 128 634 128 c 0
 669 128 685 101 685 79 c 0
 685 37 649 7 612 7 c 0
 582 7 562 26 562 55 c 0x860040
866 116 m 0x460010
 866 155 898 189 938 189 c 0
 971 189 990 167 990 140 c 0
 990 102 958 68 917 68 c 0
 887 68 866 87 866 116 c 0x460010
1062 282 m 0x160004
 1062 321 1093 355 1134 355 c 0
 1166 355 1185 333 1185 306 c 0
 1185 268 1153 234 1112 234 c 0
 1082 234 1062 253 1062 282 c 0x160004
1173 486 m 0x060001
 1173 524 1204 559 1245 559 c 0
 1275 559 1296 539 1296 510 c 0
 1296 470 1263 438 1223 438 c 0
 1193 438 1173 457 1173 486 c 0x060001
1201 727 m 0x06000080
 1201 765 1233 800 1273 800 c 0
 1303 800 1324 780 1324 751 c 0
 1324 709 1290 679 1252 679 c 0
 1221 679 1201 698 1201 727 c 0x06000080
1132 939 m 0x068002
 1132 977 1163 1012 1203 1012 c 0
 1239 1012 1255 985 1255 963 c 0
 1255 924 1222 891 1182 891 c 0
 1152 891 1132 910 1132 939 c 0x068002
969 1082 m 0x062008
 969 1121 1000 1155 1041 1155 c 0
 1073 1155 1092 1133 1092 1106 c 0
 1092 1068 1060 1034 1019 1034 c 0
 989 1034 969 1053 969 1082 c 0x062008
166 727 m 0x0604
 166 765 198 800 238 800 c 0
 274 800 289 773 289 751 c 0
 289 712 257 679 217 679 c 0
 186 679 166 698 166 727 c 0x0604
EndSplineSet
EndChar
StartChar: uni0E10.descless
Encoding: 63232 63232 241
Width: 1245
VWidth: 2045
Flags: MW
HStem: 0 21G<682.545 910.534> 244 134<532.631 656.578> 557 133<549.653 702.494> 744 178<526 969.35> 1101 178<692.866 1033.75>
VStem: 390 136<384.993 534.613> 708 136<399.445 551.484> 977 185<673 778>
Fore
390 428 m 0
 390 570 520 690 657 690 c 0
 807 690 847 565 847 519 c 2
 844 285 l 1
 972 655 l 2
 974 659 977 667 977 679 c 0
 977 716 946 744 898 744 c 2
 267 744 l 1
 320 1043 606 1279 901 1279 c 0
 1118 1279 1259 1162 1321 1013 c 1
 1149 924 l 1
 1131 969 1056 1101 869 1101 c 0
 682 1101 562 968 526 922 c 1
 925 922 l 2
 1044 922 1162 834 1162 722 c 0
 1162 708 1160 678 1149 653 c 2
 903 0 l 1
 683 0 l 25
 677 264 l 1
 644 251 611 244 578 244 c 0
 466 244 390 323 390 428 c 0
603 378 m 0
 658 378 708 427 708 483 c 0
 708 526 678 557 634 557 c 0
 570 557 526 499 526 452 c 0
 526 407 562 378 603 378 c 0
EndSplineSet
EndChar
StartChar: uni0E34.left
Encoding: 63233 63233 242
Width: 0
VWidth: 2045
Flags: W
HStem: 1726 174<-847.261 -575.545>
Back
-1115.11 1593 m 13
 -610.751 1544 l 1
 -631.266 1582.67 -664.565 1615 -710.647 1641 c 0
 -756.063 1667 -808.928 1681 -869.242 1683 c 0
 -897.242 1683 -939.829 1674 -997.003 1656 c 0
 -1054.73 1638.67 -1094.1 1617.67 -1115.11 1593 c 13
-1427.86 1464 m 21
 -1368.93 1594 -1282.99 1692 -1170.02 1758 c 0
 -1058.15 1825.33 -947.66 1858.33 -838.561 1857 c 0
 -704.914 1855 -593.848 1810 -505.365 1722 c 0
 -416.999 1633.33 -377.648 1514.33 -387.313 1365 c 1
 -1427.86 1464 l 21
EndSplineSet
Refer: 175 3636 N 1 0 0 1 -330 0 2
EndChar
StartChar: uni0E35.left
Encoding: 63234 63234 243
Width: 0
VWidth: 2045
Flags: W
HStem: 1723 174<-847.839 -573.457>
Back
-485.067 1701 m 13
 -432.346 2000 l 1
 -275.346 2000 l 1
 -387.313 1365 l 1
 -1427.86 1464 l 1
 -1368.93 1594 -1282.99 1692 -1170.02 1758 c 0
 -1058.15 1825.33 -947.66 1858.33 -838.561 1857 c 0
 -706.247 1855 -588.416 1803 -485.067 1701 c 13
-1115.11 1593 m 13
 -610.751 1544 l 1
 -631.266 1582.67 -664.565 1615 -710.647 1641 c 0
 -756.063 1667 -808.928 1681 -869.242 1683 c 0
 -897.242 1683 -939.829 1674 -997.003 1656 c 0
 -1054.73 1638.67 -1094.1 1617.67 -1115.11 1593 c 13
EndSplineSet
Refer: 176 3637 N 1 0 0 1 -330 0 2
EndChar
StartChar: uni0E36.left
Encoding: 63235 63235 244
Width: 0
VWidth: 2045
Flags: W
HStem: 1721 174<-848.252 -605.24> 1971 133<-428.184 -276.402>
VStem: -270 138<1815.94 1964.74>
Back
-472 1639 m 5
 -429.401 1563 -411.506 1471.67 -418.313 1365 c 1
 -1458.86 1464 l 1
 -1398.6 1594 -1312.65 1692 -1201.02 1758 c 0
 -1088.59 1824.67 -978.107 1857.67 -869.561 1857 c 0
 -829.678 1856.33 -790.168 1851.67 -751.029 1843 c 1
 -740.097 1905 -708.811 1957.67 -657.17 2001 c 0
 -606.196 2044.33 -549.375 2066 -486.708 2066 c 0
 -424.041 2066 -374.529 2044.33 -338.17 2001 c 0
 -301.811 1957.67 -289.039 1905.33 -299.854 1844 c 0
 -310.668 1782.67 -342.288 1730 -394.713 1686 c 0
 -416.906 1666 -442.669 1650.33 -472 1639 c 5
-616.029 1843 m 4
 -620.379 1818.33 -615.023 1797.67 -599.962 1781 c 0
 -584.351 1763.67 -564.879 1755 -541.546 1755 c 0
 -517.546 1755 -494.685 1763.67 -472.962 1781 c 0
 -452.572 1798.33 -440.261 1819 -436.029 1843 c 0
 -431.798 1867 -436.703 1888.33 -450.744 1907 c 0
 -465.021 1924.33 -484.827 1933 -510.16 1933 c 0
 -534.827 1933 -557.355 1924.33 -577.744 1907 c 0
 -598.918 1889 -611.68 1867.67 -616.029 1843 c 4
-1146.11 1593 m 13
 -640.751 1544 l 1
 -662.6 1582.67 -696.232 1615 -741.647 1641 c 0
 -785.73 1667 -838.595 1681 -900.242 1683 c 0
 -927.242 1683 -969.828 1674 -1028 1656 c 0
 -1085.73 1638.67 -1125.1 1617.67 -1146.11 1593 c 13
EndSplineSet
Refer: 177 3638 N 1 0 0 1 -330 0 2
EndChar
StartChar: uni0E37.left
Encoding: 63236 63236 245
Width: 0
VWidth: 2045
Flags: W
HStem: 1728 174<-846.839 -604.034>
Back
-553.488 1761 m 21
 -532.427 1744.33 -509.62 1724.33 -485.067 1701 c 1
 -432.346 2000 l 1
 -275.346 2000 l 1
 -387.313 1365 l 1
 -1427.86 1464 l 1
 -1368.93 1594 -1282.99 1692 -1170.02 1758 c 0
 -1058.15 1825.33 -947.66 1858.33 -838.561 1857 c 0
 -791.345 1856.33 -744.363 1848.67 -697.616 1834 c 1
 -668.346 2000 l 1
 -511.346 2000 l 1
 -553.488 1761 l 21
-1115.11 1593 m 13
 -610.751 1544 l 1
 -631.266 1582.67 -664.565 1615 -710.647 1641 c 0
 -756.063 1667 -808.928 1681 -869.242 1683 c 0
 -897.242 1683 -939.829 1674 -997.003 1656 c 0
 -1054.73 1638.67 -1094.1 1617.67 -1115.11 1593 c 13
EndSplineSet
Refer: 178 3639 N 1 0 0 1 -330 0 2
EndChar
StartChar: uni0E48.low_left
Encoding: 63237 63237 246
Width: 0
VWidth: 2045
Flags: W
Back
-538.632 1593 m 17
 -480.632 1923 l 1
 -300.632 1923 l 1
 -358.632 1593 l 1
 -538.632 1593 l 17
EndSplineSet
Refer: 251 63242 N 1 0 0 1 -242 0 2
EndChar
StartChar: uni0E49.low_left
Encoding: 63238 63238 247
Width: 0
VWidth: 2045
Flags: W
HStem: 1810 112<-685.406 -560.447>
VStem: -809 114<1679.12 1798.83> -559 115<1704.15 1808.39> -219 157<1719.71 1909>
Back
-634.528 1988 m 0
 -634.528 2094 -543.528 2199 -420.528 2199 c 0
 -326.528 2199 -268.528 2134 -268.528 2053 c 0
 -268.528 2031 -273.528 1946 -356.528 1877 c 2
 -435.528 1805 l 1
 -305.528 1828 -90.5283 1925 -44.5283 2187 c 1
 112.472 2187 l 1
 62.4717 1871 -241.528 1649 -519.528 1649 c 2
 -668.528 1649 l 1
 -641.528 1803 l 1
 -529.528 1859 l 1
 -619.528 1877 -634.528 1944 -634.528 1988 c 0
-463.528 1954 m 0
 -426.528 1954 -383.528 1989 -383.528 2031 c 0
 -383.528 2058 -401.528 2087 -439.528 2087 c 0
 -487.528 2087 -519.528 2046 -519.528 2009 c 0
 -519.528 1976 -494.528 1954 -463.528 1954 c 0
EndSplineSet
Refer: 252 63243 N 1 0 0 1 -407 0 2
EndChar
StartChar: uni0E4A.low_left
Encoding: 63239 63239 248
Width: 0
VWidth: 2045
Flags: W
HStem: 1377 112<-878.621 -753.549> 1621 112<-836.248 -745.506> 1787 127<-819.608 -635.962 -472.638 -323.103>
VStem: -1017 137<1490.69 1607.72> -744 115<1499.33 1620.02> -305 129<1605.84 1770.94> -8 128<1690.02 1866>
Back
-802.528 1849 m 0
 -802.528 2072 -607.528 2200 -476.528 2200 c 0
 -407.528 2200 -357.528 2179 -329.528 2136 c 1
 -286.528 2179 -230.528 2200 -161.528 2200 c 0
 -63.5283 2200 40.4717 2118 40.4717 1982 c 0
 40.4717 1939 31.4717 1901 16.4717 1866 c 1
 94.4717 1919 183.472 2017 207.472 2152 c 1
 335.472 2152 l 17
 282.472 1851 -12.5283 1662 -221.528 1662 c 1
 -199.528 1789 l 1
 -160.528 1811 -89.5283 1873 -89.5283 1963 c 0
 -89.5283 2042 -146.528 2073 -178.528 2073 c 0
 -232.528 2073 -275.528 2051 -302.528 2008 c 1
 -403.528 2008 l 1
 -437.528 2051 -469.528 2073 -498.528 2073 c 0
 -543.528 2072 -589.528 2046 -621.528 2011 c 1
 -601.528 2016 -581.528 2019 -564.528 2019 c 0
 -471.528 2019 -413.528 1955 -413.528 1872 c 0
 -413.528 1769 -504.528 1662 -627.528 1662 c 0
 -712.528 1662 -802.528 1717 -802.528 1849 c 0
-608.528 1774 m 0
 -566.528 1774 -528.528 1811 -528.528 1852 c 0
 -528.528 1885 -554.528 1907 -584.528 1907 c 0
 -624.528 1907 -664.528 1870 -664.528 1829 c 0
 -664.528 1800 -643.528 1774 -608.528 1774 c 0
EndSplineSet
Refer: 253 63244 N 1 0 0 1 -351 0 2
EndChar
StartChar: uni0E4B.low_left
Encoding: 63240 63240 249
Width: 0
VWidth: 2045
Flags: W
HStem: 1538 178<-671 -553 -340 -222 -703 -190 -671 -671>
Back
-14.999 1842 m 1x40
 -164.999 1842 l 1x40
 -191.999 1692 l 1
 -372.999 1692 l 1x80
 -345.999 1842 l 1
 -495.999 1842 l 1
 -463.999 2022 l 1
 -313.999 2022 l 1x40
 -287.999 2171 l 1
 -106.999 2171 l 1x80
 -132.999 2022 l 1
 17.001 2022 l 1
 -14.999 1842 l 1x40
EndSplineSet
Refer: 254 63245 N 1 0 0 1 -376 0 2
EndChar
StartChar: uni0E4C.low_left
Encoding: 63241 63241 250
Width: 0
VWidth: 2045
Flags: W
HStem: 1376 134<-539.496 -385.373> 1668 154<-228 190.293> 1689 133<-522.278 -369.812>
VStem: -683 137<1515.69 1665.6> -364 138<1532.65 1664.35>
Back
-514.231 1501 m 0xb8
 -460.231 1501 -407.231 1549 -407.231 1607 c 0
 -407.231 1651 -441.231 1680 -483.231 1680 c 0
 -537.231 1680 -589.231 1633 -589.231 1575 c 0
 -589.231 1532 -556.231 1501 -514.231 1501 c 0xb8
-726.231 1549 m 0
 -726.231 1690 -601.231 1814 -458.231 1814 c 2xb8
 11.7686 1812 l 2
 75.7686 1812 125.769 1831 161.769 1870 c 1
 252.769 1761 l 1
 173.769 1692 83.7686 1658 -15.2314 1658 c 2
 -271.231 1660 l 1xd8
 -270.231 1649 -269.231 1639 -269.231 1628 c 0
 -269.231 1502 -390.231 1368 -538.231 1368 c 0
 -644.231 1368 -726.231 1441 -726.231 1549 c 0
EndSplineSet
Refer: 255 63246 N 1 0 0 1 -126 0 2
EndChar
StartChar: uni0E48.low
Encoding: 63242 63242 251
Width: 0
VWidth: 2045
Flags: MW
AnchorPoint: "AboveBase" -15 1339 mark 0
Fore
-181 1415 m 17
 -124 1743 l 1
 56 1743 l 1
 -1 1415 l 1
 -181 1415 l 17
EndSplineSet
EndChar
StartChar: uni0E49.low
Encoding: 63243 63243 252
Width: 0
VWidth: 2045
Flags: W
HStem: 1810 112<-278.406 -153.447>
VStem: -402 114<1679.12 1798.83> -152 115<1704.15 1808.39> 188 157<1719.71 1909>
AnchorPoint: "AboveBase" 150 1339 mark 0
Fore
-402 1709 m 0
 -402 1839 -288 1922 -188 1922 c 0
 -105 1922 -37 1865 -37 1776 c 0
 -37 1754 -41 1668 -124 1600 c 2
 -204 1527 l 1
 -119 1542 -37 1581 41 1644 c 0
 119 1707 168 1795 188 1909 c 1
 345 1909 l 1
 295 1593 -7 1372 -287 1372 c 2
 -436 1372 l 1
 -409 1526 l 1
 -297 1582 l 1
 -387 1600 -402 1665 -402 1709 c 0
-231 1677 m 0
 -184 1677 -152 1721 -152 1755 c 0
 -152 1787 -177 1810 -208 1810 c 0
 -248 1810 -288 1775 -288 1731 c 0
 -288 1701 -267 1677 -231 1677 c 0
EndSplineSet
EndChar
StartChar: uni0E4A.low
Encoding: 63244 63244 253
Width: 0
VWidth: 2045
Flags: W
HStem: 1377 112<-527.621 -402.549> 1621 112<-485.248 -394.506> 1787 127<-468.608 -284.962 -121.638 27.8971>
VStem: -666 137<1490.69 1607.72> -393 115<1499.33 1620.02> 46 129<1605.84 1770.94> 343 128<1690.02 1866>
AnchorPoint: "AboveBase" 94 1339 mark 0
Fore
-666 1563 m 0
 -666 1785 -475 1914 -341 1914 c 0
 -272 1914 -222 1893 -194 1851 c 1
 -151 1893 -95 1914 -26 1914 c 0
 78 1914 175 1827 175 1696 c 0
 175 1661 170 1623 152 1581 c 1
 238 1639 320 1738 343 1866 c 1
 471 1866 l 17
 419 1573 131 1377 -86 1377 c 1
 -64 1504 l 1
 -21 1528 46 1590 46 1678 c 0
 46 1756 -11 1787 -40 1787 c 0
 -68 1787 -129 1782 -167 1723 c 1
 -268 1723 l 1
 -302 1766 -333 1787 -363 1787 c 0
 -427 1785 -478 1735 -486 1726 c 1
 -468 1731 -449 1733 -429 1733 c 0
 -334 1733 -278 1668 -278 1587 c 0
 -278 1482 -372 1377 -492 1377 c 0
 -575 1377 -666 1429 -666 1563 c 0
-472 1489 m 0
 -430 1489 -393 1526 -393 1567 c 0
 -393 1598 -415 1621 -449 1621 c 0
 -493 1621 -529 1583 -529 1544 c 0
 -529 1514 -508 1489 -472 1489 c 0
EndSplineSet
EndChar
StartChar: uni0E4B.low
Encoding: 63245 63245 254
Width: 0
VWidth: 2045
Flags: MW
HStem: 1538 178<-295 -177 36 154 -327 186 -295 -295>
AnchorPoint: "AboveBase" 119 1339 mark 0
Fore
154 1538 m 1
 4 1538 l 1
 -22 1387 l 1
 -203 1387 l 1
 -177 1538 l 1
 -327 1538 l 1
 -295 1716 l 1
 -145 1716 l 1
 -119 1867 l 1
 62 1867 l 1
 36 1716 l 1
 186 1716 l 1
 154 1538 l 1
EndSplineSet
EndChar
StartChar: uni0E4C.low
Encoding: 63246 63246 255
Width: 0
VWidth: 2045
Flags: W
HStem: 1376 134<-413.496 -259.373> 1668 154<-102 316.293> 1689 133<-396.278 -243.812>
VStem: -557 137<1515.69 1665.6> -238 138<1532.65 1664.35>
AnchorPoint: "AboveBase" -131 1339 mark 0
Fore
-345 1510 m 0xb8
 -290 1510 -238 1557 -238 1615 c 0
 -238 1658 -271 1689 -313 1689 c 0
 -367 1689 -420 1641 -420 1583 c 0
 -420 1539 -387 1510 -345 1510 c 0xb8
-557 1559 m 0
 -557 1699 -430 1822 -289 1822 c 0xb8
 -131 1822 28 1822 186 1822 c 0
 247 1822 296 1841 331 1879 c 1
 422 1770 l 1
 343 1702 253 1668 154 1668 c 2
 -102 1668 l 1xd8
 -101 1657 -100 1646 -100 1635 c 0
 -100 1506 -225 1376 -368 1376 c 0
 -477 1376 -557 1451 -557 1559 c 0
EndSplineSet
EndChar
StartChar: uni0E0D.descless
Encoding: 63247 63247 256
Width: 1924
VWidth: 2045
Flags: W
HStem: -8 134<403.407 557.199> 0 178<1195 1578> 305 133<481.656 573.423> 744 178<536 628> 1101 178<641.186 981.042>
VStem: 260 137<133.652 248.146> 580 138<148.455 298.164> 1115 180<703.429 744 744 776.023 776.023 776.564 776.293 963.469>
Fore
718 255 m 0x7f
 718 114 587 -8 450 -8 c 0xbf
 336 -8 260 74 260 177 c 0
 260 189 261 201 263 214 c 2
 356 744 l 1
 216 744 l 1
 268 1036 549 1279 851 1279 c 0
 1116 1279 1303 1086 1303 836 c 0
 1303 806 1301 775 1295 744 c 2
 1195 178 l 1
 1578 178 l 1
 1768 1254 l 1
 1948 1254 l 1
 1727 0 l 1
 984 0 l 25
 1115 744 l 2
 1119 766 1121 787 1121 808 c 0
 1121 974 1000 1101 819 1101 c 0
 632 1101 511 969 477 922 c 1
 660 922 l 1
 628 744 l 1
 536 744 l 1
 481 433 l 1
 493 436 509 438 528 438 c 0
 639 438 718 360 718 255 c 0x7f
473 126 m 0
 527 126 580 173 580 230 c 0
 580 274 546 305 505 305 c 0
 449 305 397 254 397 199 c 0
 397 158 428 126 473 126 c 0
216 744 m 1
 356 744 l 1
EndSplineSet
EndChar
StartChar: uni0E31.left
Encoding: 63248 63248 257
Width: 0
VWidth: 2045
Flags: W
HStem: 1378 163<-365 -155.344> 1378 193<-596.356 -297.395> 1749 133<-582.197 -429.163>
VStem: -739 135<1577.62 1726.05> -421 139<1592.3 1742.54>
Back
-421 1740 m 0xb8
 -421 1683 -451 1611 -504 1577 c 1
 -488 1577 l 2x78
 -331 1577 -185 1651 -39 1838 c 1
 86 1743 l 1
 -148 1441 -415 1414 -565 1414 c 0
 -829 1414 -878 1567 -878 1655 c 0
 -878 1780 -767 1918 -612 1918 c 0
 -496 1918 -421 1832 -421 1740 c 0xb8
-667 1607 m 0xb8
 -611 1607 -560 1655 -560 1711 c 0
 -560 1750 -586 1785 -635 1785 c 0
 -696 1785 -742 1731 -742 1680 c 0
 -742 1639 -714 1607 -667 1607 c 0xb8
EndSplineSet
Refer: 172 3633 N 1 0 0 1 -215 0 2
EndChar
StartChar: uni0E4D.left
Encoding: 63249 63249 258
Width: 0
VWidth: 2045
Flags: W
HStem: 1375 134<-520.954 -366.695> 1688 133<-502.544 -349.832>
VStem: -663 136<1515.36 1663.14> -344 136<1531.87 1680.59>
Back
-348 1626 m 0
 -348 1485 -478 1364 -614 1364 c 0
 -727 1364 -803 1444 -803 1547 c 0
 -803 1679 -683 1810 -536 1810 c 0
 -420 1810 -348 1729 -348 1626 c 0
-591 1498 m 0
 -529 1498 -484 1554 -484 1602 c 0
 -484 1644 -513 1677 -559 1677 c 0
 -618 1677 -667 1624 -667 1571 c 0
 -667 1530 -637 1498 -591 1498 c 0
EndSplineSet
Refer: 196 3661 N 1 0 0 1 -319 0 2
EndChar
StartChar: uni0E47.left
Encoding: 63250 63250 259
Width: 0
VWidth: 2045
Flags: W
HStem: 1384 112<-446.046 -323.398> 1493 131<-801.052 -647.05> 1629 112<-442.342 -316.135> 1786 119<-844.309 -573.874 -575.505 -572.242 -573.874 -210.352>
VStem: -1035 132<1531.19 1726.43> -565 114<1530.13 1618.66> -315 115<1505.11 1626.96>
Back
-793.002 1422 m 0xf7
 -832.002 1422 -853.002 1400 -858.002 1313 c 1
 -1042 1337 -1082 1430 -1082 1513 c 0
 -1082 1659 -980.002 1834 -717.002 1834 c 0
 -655.002 1834 -595.002 1822 -489.002 1822 c 0
 -327.002 1822 -226.002 1864 -188.002 1947 c 1
 -96.002 1887 l 1xf8
 -153.002 1766 -282.002 1705 -487.002 1704 c 0
 -606.002 1704 -652.002 1715 -724.002 1715 c 0
 -846.002 1715 -949.002 1678 -949.002 1530 c 0
 -949.002 1489 -933.002 1465 -900.002 1458 c 1
 -888.002 1527 -839.002 1553 -799.002 1553 c 0
 -705.002 1553 -680.002 1472 -612.002 1458 c 1
 -612.002 1580 -502.002 1670 -398.002 1670 c 0
 -312.002 1670 -246.002 1609 -246.002 1523 c 0
 -246.002 1434 -319.002 1313 -479.002 1313 c 0
 -670.002 1313 -702.002 1422 -793.002 1422 c 0xf7
-441.002 1425 m 0
 -397.002 1425 -361.002 1464 -361.002 1503 c 0
 -361.002 1535 -386.002 1558 -417.002 1558 c 0
 -457.002 1558 -497.002 1523 -497.002 1479 c 0xf3
 -497.002 1449 -476.002 1425 -441.002 1425 c 0
EndSplineSet
Refer: 190 3655 N 1 0 0 1 -221 17 2
EndChar
StartChar: uni0E48.left
Encoding: 63251 63251 260
Width: 0
VWidth: 2045
Flags: W
HStem: 2107 330<-238 -116 -296 -58 -238 -238>
Back
-435.645 2092 m 17
 -377.645 2422 l 1
 -197.645 2422 l 1
 -255.645 2092 l 1
 -435.645 2092 l 17
EndSplineSet
Refer: 191 3656 N 1 0 0 1 -183 0 2
EndChar
StartChar: uni0E49.left
Encoding: 63252 63252 261
Width: 0
VWidth: 2045
Flags: W
HStem: 2504 112<-312.125 -187.277>
VStem: -436 115<2372.79 2493.58> -185 115<2400.24 2489.77> 154 157<2414.53 2604>
Back
-436 2405 m 0
 -436 2511 -345 2616 -222 2616 c 0
 -128 2616 -70 2551 -70 2470 c 0
 -70 2448 -75 2363 -158 2294 c 2
 -237 2222 l 1
 -107 2245 108 2342 154 2604 c 1
 311 2604 l 1
 261 2288 -43 2066 -321 2066 c 2
 -470 2066 l 1
 -443 2220 l 1
 -331 2276 l 1
 -421 2294 -436 2361 -436 2405 c 0
-265 2371 m 0
 -228 2371 -185 2406 -185 2448 c 0
 -185 2475 -203 2504 -241 2504 c 0
 -289 2504 -321 2463 -321 2426 c 0
 -321 2393 -296 2371 -265 2371 c 0
EndSplineSet
Refer: 192 3657 N 1 0 0 1 -156 0 2
EndChar
StartChar: uni0E4A.left
Encoding: 63253 63253 262
Width: 0
VWidth: 2045
Flags: W
HStem: 2079 112<-520.961 -395.011> 2324 112<-476.765 -387.857> 2490 127<-461.076 -303.438 -143.782 36.0787>
VStem: -660 138<2193.41 2310.43> -386 115<2201.77 2322.88> 53 130<2310.59 2472.21> 350 128<2389.27 2569>
Back
-816.884 2278 m 0
 -816.884 2501 -621.884 2629 -490.884 2629 c 0
 -421.884 2629 -371.884 2608 -343.884 2565 c 1
 -300.884 2608 -244.884 2629 -175.884 2629 c 0
 -77.8838 2629 26.1162 2547 26.1162 2411 c 0
 26.1162 2368 17.1162 2330 2.11621 2295 c 1
 80.1162 2348 169.116 2446 193.116 2581 c 1
 321.116 2581 l 17
 268.116 2280 -26.8838 2091 -235.884 2091 c 1
 -213.884 2218 l 1
 -174.884 2240 -103.884 2302 -103.884 2392 c 0
 -103.884 2471 -160.884 2502 -192.884 2502 c 0
 -246.884 2502 -289.884 2480 -316.884 2437 c 1
 -417.884 2437 l 1
 -451.884 2480 -483.884 2502 -512.884 2502 c 0
 -557.884 2501 -603.884 2475 -635.884 2440 c 1
 -615.884 2445 -595.884 2448 -578.884 2448 c 0
 -485.884 2448 -427.884 2384 -427.884 2301 c 0
 -427.884 2198 -518.884 2091 -641.884 2091 c 0
 -726.884 2091 -816.884 2146 -816.884 2278 c 0
-622.884 2203 m 0
 -580.884 2203 -542.884 2240 -542.884 2281 c 0
 -542.884 2314 -568.884 2336 -598.884 2336 c 0
 -638.884 2336 -678.884 2299 -678.884 2258 c 0
 -678.884 2229 -657.884 2203 -622.884 2203 c 0
EndSplineSet
Refer: 193 3658 N 1 0 0 1 -117 0 2
EndChar
StartChar: uni0E4B.left
Encoding: 63254 63254 263
Width: 0
VWidth: 2045
Flags: W
HStem: 2256 180<-386 -268 -55 63 -418 95 -386 -386>
Back
153.174 2274 m 1x40
 3.17383 2274 l 1x40
 -23.8262 2124 l 1
 -204.826 2124 l 1x80
 -177.826 2274 l 1
 -327.826 2274 l 1
 -295.826 2454 l 1
 -145.826 2454 l 1x40
 -119.826 2603 l 1
 61.1738 2603 l 1x80
 35.1738 2454 l 1
 185.174 2454 l 1
 153.174 2274 l 1x40
EndSplineSet
Refer: 194 3659 N 1 0 0 1 -218 0 2
EndChar
StartChar: uni0E4C.left
Encoding: 63255 63255 264
Width: 0
VWidth: 2045
Flags: W
HStem: 1806 133<-525.161 -373.847> 2098 154<-214 204.293> 2118 134<-509.138 -355.268>
VStem: -669 137<1946.71 2095.45> -350 138<1961.36 2094.7>
Back
-467 1939 m 0xb8
 -413 1939 -360 1987 -360 2045 c 0
 -360 2089 -394 2118 -436 2118 c 0
 -490 2118 -542 2071 -542 2013 c 0
 -542 1970 -509 1939 -467 1939 c 0xb8
-679 1987 m 0
 -679 2128 -554 2252 -411 2252 c 2xb8
 59 2250 l 2
 123 2250 173 2269 209 2308 c 1
 300 2199 l 1
 221 2130 131 2096 32 2096 c 2
 -224 2098 l 1xd8
 -223 2087 -222 2077 -222 2066 c 0
 -222 1940 -343 1806 -491 1806 c 0
 -597 1806 -679 1879 -679 1987 c 0
EndSplineSet
Refer: 195 3660 N 1 0 0 1 -188 0 2
EndChar
StartChar: uni0E38.low
Encoding: 63256 63256 265
Width: 0
VWidth: 2046
Flags: W
HStem: -912 66<-743.749 -664.653> -700 79<-734.455 -633.433>
VStem: -824 79<-844.89 -731.006> -625 116<-804.559 -700.554>
Back
-384.335 -535 m 1
 -353.302 -359 l 1
 -365.183 -369.667 -376.79 -375 -388.123 -375 c 0
 -439.456 -375 -475.575 -364.333 -496.48 -343 c 0
 -517.385 -321.667 -523.959 -289 -516.2 -245 c 0
 -507.031 -193 -486.978 -153 -456.041 -125 c 0
 -425.888 -97.6667 -385.479 -84 -334.812 -84 c 0
 -282.145 -84 -245.378 -102.333 -224.51 -139 c 0
 -203.406 -174.333 -199.143 -227.667 -211.722 -299 c 2
 -253.335 -535 l 1
 -384.335 -535 l 1
-359.741 -163 m 0
 -403.741 -163 -430.032 -187.333 -438.613 -236 c 0
 -447.194 -284.667 -429.485 -309 -385.485 -309 c 0
 -352.152 -309 -331.253 -285 -322.789 -237 c 0
 -318.675 -213.667 -319.835 -195.667 -326.268 -183 c 0
 -333.25 -169.667 -344.408 -163 -359.741 -163 c 0
EndSplineSet
Fore
-824 -815 m 0
 -824 -762 -796 -621 -639 -621 c 0
 -584 -621 -509 -641 -509 -764 c 0
 -509 -785 -511 -809 -516 -836 c 2
 -558 -1072 l 1
 -689 -1072 l 1
 -658 -896 l 1
 -670 -907 -682 -912 -693 -912 c 0
 -777 -912 -824 -884 -824 -815 c 0
-690 -846 m 0
 -638 -846 -625 -781 -625 -750 c 0
 -625 -709 -647 -700 -664 -700 c 0
 -737 -700 -745 -770 -745 -795 c 0
 -745 -829 -727 -846 -690 -846 c 0
EndSplineSet
EndChar
StartChar: uni0E39.low
Encoding: 63257 63257 266
Width: 0
VWidth: 2046
Flags: W
HStem: -1072 100<-817 -674> -913 68<-1021.74 -942.369> -700 79<-1009.27 -904.472>
VStem: -1100 77<-844.361 -710.642> -903 118<-798.757 -709.201>
Back
-310.104 -97 m 1
 -176.104 -97 l 1
 -253.335 -535 l 1
 -661.335 -535 l 1
 -630.302 -359 l 1
 -636.143 -365.667 -643.241 -370 -651.594 -372 c 0
 -659.947 -374 -667.123 -375 -673.123 -375 c 2
 -677.24 -375.667 -686.299 -376 -700.299 -376 c 0
 -732.299 -376 -757.732 -363.333 -776.599 -338 c 0
 -794.014 -312 -799.548 -281 -793.2 -245 c 0
 -784.854 -197.667 -763.762 -159.333 -729.923 -130 c 0
 -695.849 -99.3333 -656.812 -84 -612.812 -84 c 0
 -552.145 -84 -513.064 -104.333 -495.567 -145 c 0
 -478.778 -178.333 -476.497 -229.667 -488.722 -299 c 2
 -512.702 -435 l 1
 -369.702 -435 l 1
 -310.104 -97 l 1
-638.741 -163 m 0
 -656.074 -163 -672.642 -170 -688.444 -184 c 0
 -702.913 -198 -711.969 -215.333 -715.613 -236 c 0
 -724.077 -284 -709.976 -308 -673.309 -308 c 0
 -653.309 -308 -637.074 -301 -624.605 -287 c 0
 -612.921 -273.667 -605.081 -255.667 -601.084 -233 c 0
 -597.087 -210.333 -598.031 -193 -603.915 -181 c 0
 -611.132 -169 -622.741 -163 -638.741 -163 c 0
EndSplineSet
Fore
-1100 -809 m 0
 -1100 -722 -1027 -621 -917 -621 c 0
 -837 -621 -785 -655 -785 -758 c 0
 -785 -781 -788 -807 -793 -836 c 2
 -817 -972 l 1
 -674 -972 l 1
 -615 -634 l 1
 -481 -634 l 1
 -558 -1072 l 1
 -966 -1072 l 1
 -935 -896 l 1
 -951 -913 -973 -913 -1005 -913 c 0
 -1062 -913 -1100 -870 -1100 -809 c 0
-978 -845 m 0
 -914 -845 -903 -771 -903 -744 c 0
 -903 -719 -913 -700 -943 -700 c 0
 -987 -700 -1023 -740 -1023 -798 c 0
 -1023 -829 -1008 -845 -978 -845 c 0
EndSplineSet
EndChar
StartChar: uni0E3A.low
Encoding: 63258 63258 267
Width: 0
VWidth: 2045
Flags: W
HStem: -866 269<-669.84 -508.224>
VStem: -725 272<-811.526 -651.443>
Back
-260.58 -60 m 0
 -223.913 -60 -195.264 -73.3333 -174.633 -100 c 0
 -152.472 -129.333 -144.389 -161 -150.384 -195 c 0
 -156.967 -232.333 -176.217 -264 -208.135 -290 c 0
 -242.72 -316 -276.012 -329 -308.012 -329 c 0
 -343.345 -329 -372.72 -316 -396.135 -290 c 0
 -417.433 -263.333 -424.849 -231.667 -418.384 -195 c 0
 -411.801 -157.667 -393.218 -126 -362.633 -100 c 0
 -329.931 -73.3333 -295.913 -60 -260.58 -60 c 0
EndSplineSet
Fore
-725 -757 m 0
 -725 -664 -639 -597 -565 -597 c 0
 -490 -597 -453 -657 -453 -712 c 0
 -453 -801 -545 -866 -613 -866 c 0
 -675 -866 -725 -823 -725 -757 c 0
EndSplineSet
EndChar
StartChar: uniF71B
Encoding: 63259 63259 268
Width: 998
VWidth: 2045
Flags: W
HStem: 60 1024<406.139 839.58 225.58 1020.14 406.139 406.139>
Fore
1020.14 1084 m 1
 839.58 60 l 1
 225.58 60 l 1
 406.139 1084 l 1
 1020.14 1084 l 1
EndSplineSet
EndChar
StartChar: uniF71C
Encoding: 63260 63260 269
Width: 698
VWidth: 2045
Flags: W
HStem: -423 269<32.4141 216.846 216.846 216.846>
Fore
32.4141 -423 m 1
 216.846 -154 l 1
 457.846 -154 l 1
 169.414 -423 l 1
 32.4141 -423 l 1
EndSplineSet
EndChar
StartChar: uniF71D
Encoding: 63261 63261 270
Width: 798
VWidth: 2045
Flags: MW
HStem: -127 102<242.606 508.606>
Fore
574.387 -236 m 1
 489.387 -236 l 1
 508.606 -127 l 1
 242.606 -127 l 1
 223.387 -236 l 1
 141.387 -236 l 1
 178.592 -25 l 1
 611.592 -25 l 1
 574.387 -236 l 1
EndSplineSet
EndChar
StartChar: afii61664
Encoding: 8204 8204 271
Width: 0
Flags: MW
Fore
263.285 1289 m 1
 -12.4902 -275 l 1
 -84.4902 -275 l 1
 191.285 1289 l 1
 263.285 1289 l 1
EndSplineSet
EndChar
